// Created by Crowbar 0.74
version 1
nodes
  0 "ValveBiped.Bip01_Pelvis" -1
  1 "ValveBiped.Bip01_L_Thigh" 0
  2 "ValveBiped.Bip01_L_Calf" 1
  3 "ValveBiped.Bip01_L_Foot" 2
  4 "ValveBiped.Bip01_R_Thigh" 0
  5 "ValveBiped.Bip01_R_Calf" 4
  6 "ValveBiped.Bip01_R_Foot" 5
  7 "ValveBiped.Bip01_Spine" 0
  8 "ValveBiped.Bip01_Spine1" 7
  9 "ValveBiped.Bip01_Spine2" 8
  10 "ValveBiped.Bip01_Spine4" 9
  11 "ValveBiped.Bip01_Neck1" 10
  12 "ValveBiped.Bip01_L_Clavicle" 10
  13 "ValveBiped.Bip01_L_UpperArm" 12
  14 "ValveBiped.Bip01_L_Forearm" 13
  15 "ValveBiped.Bip01_L_Hand" 14
  16 "ValveBiped.Bip01_R_Clavicle" 10
  17 "ValveBiped.Bip01_R_UpperArm" 16
  18 "ValveBiped.Bip01_R_Forearm" 17
  19 "ValveBiped.Bip01_R_Hand" 18
  20 "lPectoral" 9
  21 "rPectoral" 9
  22 "ValveBiped.Bip01_Head1" 11
  23 "HBN_CK01" 22
  24 "HBN_CK02" 23
  25 "HBn_LF01" 22
  26 "HBn_LF02" 25
  27 "HBn_LF03" 26
  28 "HBn_LF04" 27
  29 "HBn_LF05" 28
  30 "HBN_LMA01" 22
  31 "HBN_LMA02" 30
  32 "HBN_LMB01" 22
  33 "HBN_LMB02" 32
  34 "HBN_LMC01" 22
  35 "HBN_LMC02" 34
  36 "HBN_LMD01" 22
  37 "HBN_LMD02" 36
  38 "HBN_LME01" 22
  39 "HBN_LME02" 38
  40 "HBN_LMF01" 22
  41 "HBN_LMF02" 40
  42 "HBn_RF01" 22
  43 "HBn_RF02" 42
  44 "HBn_RF03" 43
  45 "HBn_RF04" 44
  46 "HBN_RMA01" 22
  47 "HBN_RMA02" 46
  48 "HBN_RMB01" 22
  49 "HBN_RMB02" 48
  50 "HBN_RMC01" 22
  51 "HBN_RMC02" 50
  52 "HBN_RMD01" 22
  53 "HBN_RMD02" 52
  54 "HBN_RME01" 22
  55 "HBN_RME02" 54
  56 "HBN_RMF01" 22
  57 "HBN_RMF02" 56
  58 "HBn_RFF01" 22
  59 "HBn_RFF02" 58
  60 "HBn_RFF03" 59
  61 "HBn_RFF04" 60
  62 "HBn_RFF05" 61
  63 "HBN_CK03" 24
  64 "HBN_CK04" 63
  65 "HBN_CK05" 64
  66 "HBN_LMA03" 31
  67 "HBN_LMA04" 66
  68 "HBN_LMA05" 67
  69 "HBN_LMB03" 33
  70 "HBN_LMB04" 69
  71 "HBN_LMB05" 70
  72 "HBN_LMC03" 35
  73 "HBN_LMC04" 72
  74 "HBN_LMC05" 73
  75 "HBN_LMD03" 37
  76 "HBN_LMD04" 75
  77 "HBN_LME03" 39
  78 "HBN_LME04" 77
  79 "HBN_LME05" 78
  80 "HBN_LME06" 79
  81 "HBN_LMF03" 41
  82 "HBN_LMF04" 81
  83 "HBN_RMA03" 47
  84 "HBN_RMA04" 83
  85 "HBN_RMA05" 84
  86 "HBN_RMB03" 49
  87 "HBN_RMB04" 86
  88 "HBN_RMB05" 87
  89 "HBN_RMC03" 51
  90 "HBN_RMC04" 89
  91 "HBN_RMC05" 90
  92 "HBN_RMC06" 91
  93 "HBN_RMD03" 53
  94 "HBN_RMD04" 93
  95 "HBN_RMD05" 94
  96 "HBN_RME03" 55
  97 "HBN_RME04" 96
  98 "HBN_RME05" 97
  99 "HBN_RMF03" 57
  100 "HBN_RMF04" 99
  101 "HBN_RMF05" 100
  102 "HBN_LMD05" 76
  103 "HBN_LME07" 80
  104 "HBN_RMB06" 88
  105 "HBN_RMD06" 95
  106 "Front Cloth" 9
  107 "Front Cloth.001" 106
  108 "Front Cloth.002" 107
  109 "Front Cloth.003" 108
  110 "Front Cloth.004" 109
  111 "ValveBiped.Bip01_L_Finger2" 15
  112 "ValveBiped.Bip01_L_Finger21" 111
  113 "ValveBiped.Bip01_L_Finger22" 112
  114 "ValveBiped.Bip01_L_Finger1" 15
  115 "ValveBiped.Bip01_L_Finger11" 114
  116 "ValveBiped.Bip01_L_Finger12" 115
  117 "ValveBiped.Bip01_L_Finger0" 15
  118 "ValveBiped.Bip01_L_Finger01" 117
  119 "ValveBiped.Bip01_L_Finger02" 118
  120 "ValveBiped.Bip01_L_Finger4" 15
  121 "ValveBiped.Bip01_L_Finger41" 120
  122 "ValveBiped.Bip01_L_Finger42" 121
  123 "ValveBiped.Bip01_L_Finger3" 15
  124 "ValveBiped.Bip01_L_Finger31" 123
  125 "ValveBiped.Bip01_L_Finger32" 124
  126 "ValveBiped.Bip01_R_Finger2" 19
  127 "ValveBiped.Bip01_R_Finger21" 126
  128 "ValveBiped.Bip01_R_Finger22" 127
  129 "ValveBiped.Bip01_R_Finger1" 19
  130 "ValveBiped.Bip01_R_Finger11" 129
  131 "ValveBiped.Bip01_R_Finger12" 130
  132 "ValveBiped.Bip01_R_Finger0" 19
  133 "ValveBiped.Bip01_R_Finger01" 132
  134 "ValveBiped.Bip01_R_Finger02" 133
  135 "ValveBiped.Bip01_R_Finger4" 19
  136 "ValveBiped.Bip01_R_Finger41" 135
  137 "ValveBiped.Bip01_R_Finger42" 136
  138 "ValveBiped.Bip01_R_Finger3" 19
  139 "ValveBiped.Bip01_R_Finger31" 138
  140 "ValveBiped.Bip01_R_Finger32" 139
end
skeleton
time 0
0 0 0 0 -0.000000 -0.000000 -1.570796
1 0 0 0 0 0 0
2 0 0 0 -0.000000 -0.000000 -0.000000
3 0 0 0 -0.000000 -0.000000 -0.000000
4 0 0 0 0 0 0
5 0 0 0 -0.000000 -0.000000 -0.000000
6 0 0 0 -0.000000 -0.000000 -0.000000
7 0 0 0 -0.000000 -0.000000 -0.000000
8 0 0 0 -0.000000 -0.000000 -0.000000
9 0 0 0 0 0 0
10 0 0 0 0 0 0
11 0 0 0 0 0 0
12 0.407373 -0.457764 -0.010786 -0.000000 0.209440 0.069813
13 -2.295826 0.842869 1.538963 -0.000000 0.122173 0.087266
14 -1.218732 0.013748 -0.074034 -0.087267 -0.195480 -0.017453
15 -1.010000 0.000000 0.000000 0.104719 0.209439 -0.069815
16 0.409962 -0.456924 0.011811 -0.000000 -0.733038 0.034907
17 -1.208538 0.140741 0.096539 0.000001 -0.209438 -0.680678
18 -0.907370 -0.025658 -0.131269 0.000000 -0.11521 0.017453
19 -0.938017 0.160442 0.145687 0.104717 0.418866 -0.069812
20 -0.000000 -0.000000 -0.000000 -0.000000 -0.000000 -0.000000
21 -0.000000 -0.000000 -0.000000 -0.000000 -0.000000 -0.000000
22 0 0 0 0 0 0
23 -0.000000 -0.000000 -0.000000 -0.000000 -0.000000 -0.000000
24 -0.000000 -0.000000 -0.000000 -0.000000 -0.000000 -0.000000
25 -0.000000 -0.000000 -0.000000 -0.000000 -0.000000 -0.000000
26 -0.000000 -0.000000 -0.000000 -0.000000 -0.000000 -0.000000
27 -0.000000 -0.000000 -0.000000 -0.000000 -0.000000 -0.000000
28 -0.000000 -0.000000 -0.000000 -0.000000 -0.000000 -0.000000
29 -0.000000 -0.000000 -0.000000 -0.000000 -0.000000 -0.000000
30 -0.000000 -0.000000 -0.000000 -0.000000 -0.000000 -0.000000
31 -0.000000 -0.000000 -0.000000 -0.000000 -0.000000 -0.000000
32 -0.000000 -0.000000 -0.000000 -0.000000 -0.000000 -0.000000
33 -0.000000 -0.000000 -0.000000 -0.000000 -0.000000 -0.000000
34 -0.000000 -0.000000 -0.000000 -0.000000 -0.000000 -0.000000
35 -0.000000 -0.000000 -0.000000 -0.000000 -0.000000 -0.000000
36 -0.000000 -0.000000 -0.000000 -0.000000 -0.000000 -0.000000
37 -0.000000 -0.000000 -0.000000 -0.000000 -0.000000 -0.000000
38 -0.000000 -0.000000 -0.000000 -0.000000 -0.000000 -0.000000
39 -0.000000 -0.000000 -0.000000 -0.000000 -0.000000 -0.000000
40 -0.000000 -0.000000 -0.000000 -0.000000 -0.000000 -0.000000
41 -0.000000 -0.000000 -0.000000 -0.000000 -0.000000 -0.000000
42 -0.000000 -0.000000 -0.000000 -0.000000 -0.000000 -0.000000
43 -0.000000 -0.000000 -0.000000 -0.000000 -0.000000 -0.000000
44 -0.000000 -0.000000 -0.000000 -0.000000 -0.000000 -0.000000
45 -0.000000 -0.000000 -0.000000 -0.000000 -0.000000 -0.000000
46 -0.000000 -0.000000 -0.000000 -0.000000 -0.000000 -0.000000
47 -0.000000 -0.000000 -0.000000 -0.000000 -0.000000 -0.000000
48 -0.000000 -0.000000 -0.000000 -0.000000 -0.000000 -0.000000
49 -0.000000 -0.000000 -0.000000 -0.000000 -0.000000 -0.000000
50 -0.000000 -0.000000 -0.000000 -0.000000 -0.000000 -0.000000
51 -0.000000 -0.000000 -0.000000 -0.000000 -0.000000 -0.000000
52 -0.000000 -0.000000 -0.000000 -0.000000 -0.000000 -0.000000
53 -0.000000 -0.000000 -0.000000 -0.000000 -0.000000 -0.000000
54 -0.000000 -0.000000 -0.000000 -0.000000 -0.000000 -0.000000
55 -0.000000 -0.000000 -0.000000 -0.000000 -0.000000 -0.000000
56 -0.000000 -0.000000 -0.000000 -0.000000 -0.000000 -0.000000
57 -0.000000 -0.000000 -0.000000 -0.000000 -0.000000 -0.000000
58 -0.000000 -0.000000 -0.000000 -0.000000 -0.000000 -0.000000
59 -0.000000 -0.000000 -0.000000 -0.000000 -0.000000 -0.000000
60 -0.000000 -0.000000 -0.000000 -0.000000 -0.000000 -0.000000
61 -0.000000 -0.000000 -0.000000 -0.000000 -0.000000 -0.000000
62 -0.000000 -0.000000 -0.000000 -0.000000 -0.000000 -0.000000
63 -0.000000 -0.000000 -0.000000 -0.000000 -0.000000 -0.000000
64 -0.000000 -0.000000 -0.000000 -0.000000 -0.000000 -0.000000
65 -0.000000 -0.000000 -0.000000 -0.000000 -0.000000 -0.000000
66 -0.000000 -0.000000 -0.000000 -0.000000 -0.000000 -0.000000
67 -0.000000 -0.000000 -0.000000 -0.000000 -0.000000 -0.000000
68 -0.000000 -0.000000 -0.000000 -0.000000 -0.000000 -0.000000
69 -0.000000 -0.000000 -0.000000 -0.000000 -0.000000 -0.000000
70 -0.000000 -0.000000 -0.000000 -0.000000 -0.000000 -0.000000
71 -0.000000 -0.000000 -0.000000 -0.000000 -0.000000 -0.000000
72 -0.000000 -0.000000 -0.000000 -0.000000 -0.000000 -0.000000
73 -0.000000 -0.000000 -0.000000 -0.000000 -0.000000 -0.000000
74 -0.000000 -0.000000 -0.000000 -0.000000 -0.000000 -0.000000
75 -0.000000 -0.000000 -0.000000 -0.000000 -0.000000 -0.000000
76 -0.000000 -0.000000 -0.000000 -0.000000 -0.000000 -0.000000
77 -0.000000 -0.000000 -0.000000 -0.000000 -0.000000 -0.000000
78 -0.000000 -0.000000 -0.000000 -0.000000 -0.000000 -0.000000
79 -0.000000 -0.000000 -0.000000 -0.000000 -0.000000 -0.000000
80 -0.000000 -0.000000 -0.000000 -0.000000 -0.000000 -0.000000
81 -0.000000 -0.000000 -0.000000 -0.000000 -0.000000 -0.000000
82 -0.000000 -0.000000 -0.000000 -0.000000 -0.000000 -0.000000
83 -0.000000 -0.000000 -0.000000 -0.000000 -0.000000 -0.000000
84 -0.000000 -0.000000 -0.000000 -0.000000 -0.000000 -0.000000
85 -0.000000 -0.000000 -0.000000 -0.000000 -0.000000 -0.000000
86 -0.000000 -0.000000 -0.000000 -0.000000 -0.000000 -0.000000
87 -0.000000 -0.000000 -0.000000 -0.000000 -0.000000 -0.000000
88 -0.000000 -0.000000 -0.000000 -0.000000 -0.000000 -0.000000
89 -0.000000 -0.000000 -0.000000 -0.000000 -0.000000 -0.000000
90 -0.000000 -0.000000 -0.000000 -0.000000 -0.000000 -0.000000
91 -0.000000 -0.000000 -0.000000 -0.000000 -0.000000 -0.000000
92 -0.000000 -0.000000 -0.000000 -0.000000 -0.000000 -0.000000
93 -0.000000 -0.000000 -0.000000 -0.000000 -0.000000 -0.000000
94 -0.000000 -0.000000 -0.000000 -0.000000 -0.000000 -0.000000
95 -0.000000 -0.000000 -0.000000 -0.000000 -0.000000 -0.000000
96 -0.000000 -0.000000 -0.000000 -0.000000 -0.000000 -0.000000
97 -0.000000 -0.000000 -0.000000 -0.000000 -0.000000 -0.000000
98 -0.000000 -0.000000 -0.000000 -0.000000 -0.000000 -0.000000
99 -0.000000 -0.000000 -0.000000 -0.000000 -0.000000 -0.000000
100 -0.000000 -0.000000 -0.000000 -0.000000 -0.000000 -0.000000
101 -0.000000 -0.000000 -0.000000 -0.000000 -0.000000 -0.000000
102 -0.000000 -0.000000 -0.000000 -0.000000 -0.000000 -0.000000
103 -0.000000 -0.000000 -0.000000 -0.000000 -0.000000 -0.000000
104 -0.000000 -0.000000 -0.000000 -0.000000 -0.000000 -0.000000
105 -0.000000 -0.000000 -0.000000 -0.000000 -0.000000 -0.000000
106 -0.000000 -0.000000 -0.000000 -0.000000 -0.000000 -0.000000
107 -0.000000 -0.000000 -0.000000 -0.000000 -0.000000 -0.000000
108 -0.000000 -0.000000 -0.000000 -0.000000 -0.000000 -0.000000
109 -0.000000 -0.000000 -0.000000 -0.000000 -0.000000 -0.000000
110 -0.000000 -0.000000 -0.000000 -0.000000 -0.000000 -0.000000
111 -0.275813 -0.234108 -0.046826 0.000001 0.244346 -0.104720
112 -0.543240 0.105870 -0.013819 0.000001 0.296706 -0.034907
113 0.023460 0.018313 -0.004166 -0.000002 0.558505 -0.139626
114 -0.306818 -0.126108 0.210634 0.000000 0.122173 -0.017453
115 -0.121714 0.026169 -0.010283 0.000002 0.157080 -0.122173
116 -0.033815 0.016807 -0.011464 0.000000 0.087266 -0.000000
117 -0.752589 -0.070438 -0.478740 -0.000000 -0.017453 0.034907
118 0.467207 0.003347 -0.012453 0.000001 -0.174533 -0.087266
119 -0.014439 0.018076 0.009602 0.000000 -0.244346 0.000000
120 -0.376679 -0.733061 -0.256727 -0.000000 0.418879 -0.000000
121 -0.167528 0.035120 -0.009517 -0.000001 0.488692 0.034907
122 -0.033909 0.005245 -0.000648 0.000000 0.244346 0.000000
123 -0.224627 -0.443035 -0.106774 0.000000 0.279253 -0.087266
124 -0.388636 0.033666 0.002613 -0.000000 0.698132 -0.034907
125 -0.005026 0.016932 -0.001103 -0.000000 0.331613 -0.000000
126 -0.330965 -0.255596 -0.378313 -0.000001 0.383972 0.174533
127 -0.528151 0.026757 -0.004062 -0.000000 0.698132 -0.052360
128 0.024273 0.014284 -0.011323 -0.000000 0.907572 -0.000000
129 -0.408289 -0.184753 -0.644382 0.000000 0.174532 0.087266
130 -0.121908 0.010082 -0.005717 -0.000001 0.349066 0.087266
131 -0.033537 0.015894 0.000118 -0.000000 -0.000000 -0.000000
132 -0.741360 0.099289 0.621753 0.000001 -0.349066 -0.139626
133 0.328541 -0.230649 0.103850 -1.151917 0.000012 0.157085
134 -0.029675 -0.015630 -0.059524 -0.000000 -0.31416 0.000000
135 -0.343788 -0.738403 -0.140819 -0.000001 0.872664 0.034907
136 -0.167729 0.042847 -0.001650 -0.000002 0.907572 -0.104720
137 -0.031139 -0.005257 0.004258 0.000000 0.558506 0.000000
138 -0.252357 -0.444519 -0.325631 -0.000001 0.593412 0.157080
139 -0.389458 0.050965 0.001482 0.000000 1.396264 -0.087266
140 -0.010584 0.028313 0.002193 -0.000000 0.733038 -0.000000
time 1
0 0 0 0 -0.000000 -0.000000 -1.570796
1 0 0 0 0 0 0
2 0 0 0 -0.000000 -0.000000 -0.000000
3 0 0 0 -0.000000 -0.000000 -0.000000
4 0 0 0 0 0 0
5 0 0 0 -0.000000 -0.000000 -0.000000
6 0 0 0 -0.000000 -0.000000 -0.000000
7 0 0 0 -0.000000 -0.000000 -0.000000
8 0 0 0 -0.000000 -0.000000 -0.000000
9 0 0 0 0 0 0
10 0 0 0 0 0 0
11 0 0 0 0 0 0
12 0.407373 -0.457764 -0.010786 -0.000000 0.209440 0.069813
13 -2.295826 0.842869 1.538963 -0.000000 0.122173 0.087266
14 -1.218732 0.013748 -0.074034 -0.087267 -0.195480 -0.017453
15 -1.010000 0.000000 0.000000 0.104719 0.209439 -0.069815
16 0.409962 -0.456924 0.011811 -0.000000 -0.733038 0.034907
17 -1.208538 0.140741 0.096539 0.000001 -0.209438 -0.680678
18 -0.907370 -0.025658 -0.131269 0.000000 -0.11521 0.017453
19 -0.938017 0.160442 0.145687 0.104717 0.418866 -0.069812
20 -0.000000 -0.000000 -0.000000 -0.000000 -0.000000 -0.000000
21 -0.000000 -0.000000 -0.000000 -0.000000 -0.000000 -0.000000
22 0 0 0 0 0 0
23 -0.000000 -0.000000 -0.000000 -0.000000 -0.000000 -0.000000
24 -0.000000 -0.000000 -0.000000 -0.000000 -0.000000 -0.000000
25 -0.000000 -0.000000 -0.000000 -0.000000 -0.000000 -0.000000
26 -0.000000 -0.000000 -0.000000 -0.000000 -0.000000 -0.000000
27 -0.000000 -0.000000 -0.000000 -0.000000 -0.000000 -0.000000
28 -0.000000 -0.000000 -0.000000 -0.000000 -0.000000 -0.000000
29 -0.000000 -0.000000 -0.000000 -0.000000 -0.000000 -0.000000
30 -0.000000 -0.000000 -0.000000 -0.000000 -0.000000 -0.000000
31 -0.000000 -0.000000 -0.000000 -0.000000 -0.000000 -0.000000
32 -0.000000 -0.000000 -0.000000 -0.000000 -0.000000 -0.000000
33 -0.000000 -0.000000 -0.000000 -0.000000 -0.000000 -0.000000
34 -0.000000 -0.000000 -0.000000 -0.000000 -0.000000 -0.000000
35 -0.000000 -0.000000 -0.000000 -0.000000 -0.000000 -0.000000
36 -0.000000 -0.000000 -0.000000 -0.000000 -0.000000 -0.000000
37 -0.000000 -0.000000 -0.000000 -0.000000 -0.000000 -0.000000
38 -0.000000 -0.000000 -0.000000 -0.000000 -0.000000 -0.000000
39 -0.000000 -0.000000 -0.000000 -0.000000 -0.000000 -0.000000
40 -0.000000 -0.000000 -0.000000 -0.000000 -0.000000 -0.000000
41 -0.000000 -0.000000 -0.000000 -0.000000 -0.000000 -0.000000
42 -0.000000 -0.000000 -0.000000 -0.000000 -0.000000 -0.000000
43 -0.000000 -0.000000 -0.000000 -0.000000 -0.000000 -0.000000
44 -0.000000 -0.000000 -0.000000 -0.000000 -0.000000 -0.000000
45 -0.000000 -0.000000 -0.000000 -0.000000 -0.000000 -0.000000
46 -0.000000 -0.000000 -0.000000 -0.000000 -0.000000 -0.000000
47 -0.000000 -0.000000 -0.000000 -0.000000 -0.000000 -0.000000
48 -0.000000 -0.000000 -0.000000 -0.000000 -0.000000 -0.000000
49 -0.000000 -0.000000 -0.000000 -0.000000 -0.000000 -0.000000
50 -0.000000 -0.000000 -0.000000 -0.000000 -0.000000 -0.000000
51 -0.000000 -0.000000 -0.000000 -0.000000 -0.000000 -0.000000
52 -0.000000 -0.000000 -0.000000 -0.000000 -0.000000 -0.000000
53 -0.000000 -0.000000 -0.000000 -0.000000 -0.000000 -0.000000
54 -0.000000 -0.000000 -0.000000 -0.000000 -0.000000 -0.000000
55 -0.000000 -0.000000 -0.000000 -0.000000 -0.000000 -0.000000
56 -0.000000 -0.000000 -0.000000 -0.000000 -0.000000 -0.000000
57 -0.000000 -0.000000 -0.000000 -0.000000 -0.000000 -0.000000
58 -0.000000 -0.000000 -0.000000 -0.000000 -0.000000 -0.000000
59 -0.000000 -0.000000 -0.000000 -0.000000 -0.000000 -0.000000
60 -0.000000 -0.000000 -0.000000 -0.000000 -0.000000 -0.000000
61 -0.000000 -0.000000 -0.000000 -0.000000 -0.000000 -0.000000
62 -0.000000 -0.000000 -0.000000 -0.000000 -0.000000 -0.000000
63 -0.000000 -0.000000 -0.000000 -0.000000 -0.000000 -0.000000
64 -0.000000 -0.000000 -0.000000 -0.000000 -0.000000 -0.000000
65 -0.000000 -0.000000 -0.000000 -0.000000 -0.000000 -0.000000
66 -0.000000 -0.000000 -0.000000 -0.000000 -0.000000 -0.000000
67 -0.000000 -0.000000 -0.000000 -0.000000 -0.000000 -0.000000
68 -0.000000 -0.000000 -0.000000 -0.000000 -0.000000 -0.000000
69 -0.000000 -0.000000 -0.000000 -0.000000 -0.000000 -0.000000
70 -0.000000 -0.000000 -0.000000 -0.000000 -0.000000 -0.000000
71 -0.000000 -0.000000 -0.000000 -0.000000 -0.000000 -0.000000
72 -0.000000 -0.000000 -0.000000 -0.000000 -0.000000 -0.000000
73 -0.000000 -0.000000 -0.000000 -0.000000 -0.000000 -0.000000
74 -0.000000 -0.000000 -0.000000 -0.000000 -0.000000 -0.000000
75 -0.000000 -0.000000 -0.000000 -0.000000 -0.000000 -0.000000
76 -0.000000 -0.000000 -0.000000 -0.000000 -0.000000 -0.000000
77 -0.000000 -0.000000 -0.000000 -0.000000 -0.000000 -0.000000
78 -0.000000 -0.000000 -0.000000 -0.000000 -0.000000 -0.000000
79 -0.000000 -0.000000 -0.000000 -0.000000 -0.000000 -0.000000
80 -0.000000 -0.000000 -0.000000 -0.000000 -0.000000 -0.000000
81 -0.000000 -0.000000 -0.000000 -0.000000 -0.000000 -0.000000
82 -0.000000 -0.000000 -0.000000 -0.000000 -0.000000 -0.000000
83 -0.000000 -0.000000 -0.000000 -0.000000 -0.000000 -0.000000
84 -0.000000 -0.000000 -0.000000 -0.000000 -0.000000 -0.000000
85 -0.000000 -0.000000 -0.000000 -0.000000 -0.000000 -0.000000
86 -0.000000 -0.000000 -0.000000 -0.000000 -0.000000 -0.000000
87 -0.000000 -0.000000 -0.000000 -0.000000 -0.000000 -0.000000
88 -0.000000 -0.000000 -0.000000 -0.000000 -0.000000 -0.000000
89 -0.000000 -0.000000 -0.000000 -0.000000 -0.000000 -0.000000
90 -0.000000 -0.000000 -0.000000 -0.000000 -0.000000 -0.000000
91 -0.000000 -0.000000 -0.000000 -0.000000 -0.000000 -0.000000
92 -0.000000 -0.000000 -0.000000 -0.000000 -0.000000 -0.000000
93 -0.000000 -0.000000 -0.000000 -0.000000 -0.000000 -0.000000
94 -0.000000 -0.000000 -0.000000 -0.000000 -0.000000 -0.000000
95 -0.000000 -0.000000 -0.000000 -0.000000 -0.000000 -0.000000
96 -0.000000 -0.000000 -0.000000 -0.000000 -0.000000 -0.000000
97 -0.000000 -0.000000 -0.000000 -0.000000 -0.000000 -0.000000
98 -0.000000 -0.000000 -0.000000 -0.000000 -0.000000 -0.000000
99 -0.000000 -0.000000 -0.000000 -0.000000 -0.000000 -0.000000
100 -0.000000 -0.000000 -0.000000 -0.000000 -0.000000 -0.000000
101 -0.000000 -0.000000 -0.000000 -0.000000 -0.000000 -0.000000
102 -0.000000 -0.000000 -0.000000 -0.000000 -0.000000 -0.000000
103 -0.000000 -0.000000 -0.000000 -0.000000 -0.000000 -0.000000
104 -0.000000 -0.000000 -0.000000 -0.000000 -0.000000 -0.000000
105 -0.000000 -0.000000 -0.000000 -0.000000 -0.000000 -0.000000
106 -0.000000 -0.000000 -0.000000 -0.000000 -0.000000 -0.000000
107 -0.000000 -0.000000 -0.000000 -0.000000 -0.000000 -0.000000
108 -0.000000 -0.000000 -0.000000 -0.000000 -0.000000 -0.000000
109 -0.000000 -0.000000 -0.000000 -0.000000 -0.000000 -0.000000
110 -0.000000 -0.000000 -0.000000 -0.000000 -0.000000 -0.000000
111 -0.275813 -0.234108 -0.046826 0.000001 0.244346 -0.104720
112 -0.543240 0.105870 -0.013819 0.000001 0.296706 -0.034907
113 0.023460 0.018313 -0.004166 -0.000002 0.558505 -0.139626
114 -0.306818 -0.126108 0.210634 0.000000 0.122173 -0.017453
115 -0.121714 0.026169 -0.010283 0.000002 0.157080 -0.122173
116 -0.033815 0.016807 -0.011464 0.000000 0.087266 -0.000000
117 -0.752589 -0.070438 -0.478740 -0.000000 -0.017453 0.034907
118 0.467207 0.003347 -0.012453 0.000001 -0.174533 -0.087266
119 -0.014439 0.018076 0.009602 0.000000 -0.244346 0.000000
120 -0.376679 -0.733061 -0.256727 -0.000000 0.418879 -0.000000
121 -0.167528 0.035120 -0.009517 -0.000001 0.488692 0.034907
122 -0.033909 0.005245 -0.000648 0.000000 0.244346 0.000000
123 -0.224627 -0.443035 -0.106774 0.000000 0.279253 -0.087266
124 -0.388636 0.033666 0.002613 -0.000000 0.698132 -0.034907
125 -0.005026 0.016932 -0.001103 -0.000000 0.331613 -0.000000
126 -0.330965 -0.255596 -0.378313 -0.000001 0.383972 0.174533
127 -0.528151 0.026757 -0.004062 -0.000000 0.698132 -0.052360
128 0.024273 0.014284 -0.011323 -0.000000 0.907572 -0.000000
129 -0.408289 -0.184753 -0.644382 0.000000 0.174532 0.087266
130 -0.121908 0.010082 -0.005717 -0.000001 0.349066 0.087266
131 -0.033537 0.015894 0.000118 -0.000000 -0.000000 -0.000000
132 -0.741360 0.099289 0.621753 0.000001 -0.349066 -0.139626
133 0.328541 -0.230649 0.103850 -1.151917 0.000012 0.157085
134 -0.029675 -0.015630 -0.059524 -0.000000 -0.31416 0.000000
135 -0.343788 -0.738403 -0.140819 -0.000001 0.872664 0.034907
136 -0.167729 0.042847 -0.001650 -0.000002 0.907572 -0.104720
137 -0.031139 -0.005257 0.004258 0.000000 0.558506 0.000000
138 -0.252357 -0.444519 -0.325631 -0.000001 0.593412 0.157080
139 -0.389458 0.050965 0.001482 0.000000 1.396264 -0.087266
140 -0.010584 0.028313 0.002193 -0.000000 0.733038 -0.000000
end
