version 1
nodes
0 "ValveBiped.Bip01" -1
1 "ValveBiped.Bip01_Pelvis" 0
2 "ValveBiped.Bip01_L_Thigh" 1
3 "ValveBiped.Bip01_L_Calf" 2
4 "ValveBiped.Bip01_L_Foot" 3
5 "ValveBiped.Bip01_R_Thigh" 1
6 "ValveBiped.Bip01_R_Calf" 5
7 "ValveBiped.Bip01_R_Foot" 6
8 "ValveBiped.Bip01_Spine" 1
9 "ValveBiped.Bip01_Spine1" 8
10 "ValveBiped.Bip01_Spine2" 9
11 "ValveBiped.Bip01_Spine4" 10
12 "ValveBiped.Bip01_Neck1" 11
13 "ValveBiped.Bip01_Head1" 12
14 "HBN_CK01" 13
15 "HBN_CK02" 14
16 "HBN_CK03" 15
17 "HBN_CK04" 16
18 "HBN_CK05" 17
19 "HBn_LF01" 13
20 "HBn_LF02" 19
21 "HBn_LF03" 20
22 "HBn_LF04" 21
23 "HBn_LF05" 22
24 "HBN_LMA01" 13
25 "HBN_LMA02" 24
26 "HBN_LMA03" 25
27 "HBN_LMA04" 26
28 "HBN_LMA05" 27
29 "HBN_LMB01" 13
30 "HBN_LMB02" 29
31 "HBN_LMB03" 30
32 "HBN_LMB04" 31
33 "HBN_LMB05" 32
34 "HBN_LMC01" 13
35 "HBN_LMC02" 34
36 "HBN_LMC03" 35
37 "HBN_LMC04" 36
38 "HBN_LMC05" 37
39 "HBN_LMD01" 13
40 "HBN_LMD02" 39
41 "HBN_LMD03" 40
42 "HBN_LMD04" 41
43 "HBN_LMD05" 42
44 "HBN_LME01" 13
45 "HBN_LME02" 44
46 "HBN_LME03" 45
47 "HBN_LME04" 46
48 "HBN_LME05" 47
49 "HBN_LME06" 48
50 "HBN_LME07" 49
51 "HBN_LMF01" 13
52 "HBN_LMF02" 51
53 "HBN_LMF03" 52
54 "HBN_LMF04" 53
55 "HBn_RF01" 13
56 "HBn_RF02" 55
57 "HBn_RF03" 56
58 "HBn_RF04" 57
59 "HBN_RMA01" 13
60 "HBN_RMA02" 59
61 "HBN_RMA03" 60
62 "HBN_RMA04" 61
63 "HBN_RMA05" 62
64 "HBN_RMB01" 13
65 "HBN_RMB02" 64
66 "HBN_RMB03" 65
67 "HBN_RMB04" 66
68 "HBN_RMB05" 67
69 "HBN_RMB06" 68
70 "HBN_RMC01" 13
71 "HBN_RMC02" 70
72 "HBN_RMC03" 71
73 "HBN_RMC04" 72
74 "HBN_RMC05" 73
75 "HBN_RMC06" 74
76 "HBN_RMD01" 13
77 "HBN_RMD02" 76
78 "HBN_RMD03" 77
79 "HBN_RMD04" 78
80 "HBN_RMD05" 79
81 "HBN_RMD06" 80
82 "HBN_RME01" 13
83 "HBN_RME02" 82
84 "HBN_RME03" 83
85 "HBN_RME04" 84
86 "HBN_RME05" 85
87 "HBN_RMF01" 13
88 "HBN_RMF02" 87
89 "HBN_RMF03" 88
90 "HBN_RMF04" 89
91 "HBN_RMF05" 90
92 "HBn_RFF01" 13
93 "HBn_RFF02" 92
94 "HBn_RFF03" 93
95 "HBn_RFF04" 94
96 "HBn_RFF05" 95
97 "ValveBiped.Bip01_L_Clavicle" 11
98 "ValveBiped.Bip01_L_UpperArm" 97
99 "ValveBiped.Bip01_L_Forearm" 98
100 "ValveBiped.Bip01_L_Hand" 99
101 "ValveBiped.Bip01_L_Finger2" 100
102 "ValveBiped.Bip01_L_Finger21" 101
103 "ValveBiped.Bip01_L_Finger22" 102
104 "ValveBiped.Bip01_L_Finger1" 100
105 "ValveBiped.Bip01_L_Finger11" 104
106 "ValveBiped.Bip01_L_Finger12" 105
107 "ValveBiped.Bip01_L_Finger0" 100
108 "ValveBiped.Bip01_L_Finger01" 107
109 "ValveBiped.Bip01_L_Finger02" 108
110 "ValveBiped.Bip01_L_Finger4" 100
111 "ValveBiped.Bip01_L_Finger41" 110
112 "ValveBiped.Bip01_L_Finger42" 111
113 "ValveBiped.Bip01_L_Finger3" 100
114 "ValveBiped.Bip01_L_Finger31" 113
115 "ValveBiped.Bip01_L_Finger32" 114
116 "ValveBiped.Bip01_R_Clavicle" 11
117 "ValveBiped.Bip01_R_UpperArm" 116
118 "ValveBiped.Bip01_R_Forearm" 117
119 "ValveBiped.Bip01_R_Hand" 118
120 "ValveBiped.Bip01_R_Finger2" 119
121 "ValveBiped.Bip01_R_Finger21" 120
122 "ValveBiped.Bip01_R_Finger22" 121
123 "ValveBiped.Bip01_R_Finger1" 119
124 "ValveBiped.Bip01_R_Finger11" 123
125 "ValveBiped.Bip01_R_Finger12" 124
126 "ValveBiped.Bip01_R_Finger0" 119
127 "ValveBiped.Bip01_R_Finger01" 126
128 "ValveBiped.Bip01_R_Finger02" 127
129 "ValveBiped.Bip01_R_Finger4" 119
130 "ValveBiped.Bip01_R_Finger41" 129
131 "ValveBiped.Bip01_R_Finger42" 130
132 "ValveBiped.Bip01_R_Finger3" 119
133 "ValveBiped.Bip01_R_Finger31" 132
134 "ValveBiped.Bip01_R_Finger32" 133
135 "lPectoral" 10
136 "rPectoral" 10
137 "Front Cloth" 10
138 "Front Cloth.001" 137
139 "Front Cloth.002" 138
140 "Front Cloth.003" 139
141 "Front Cloth.004" 140
end
skeleton
time 0
0  -0.000005 -0.000394 5.919071  1.570862 0.000000 0.000000
1  0.002636 43.025146 0.734438  -1.354907 0.436832 0.270082
2  3.061856 -4.181011 -0.610803  -2.137908 -0.225939 -1.546273
3  18.476770 0.000157 0.000004  0.002453 -0.027526 0.366753
4  17.490084 0.000266 0.000002  0.623732 -0.069357 -0.682483
5  -3.065331 -4.183575 -0.611481  -2.102225 -0.892841 -1.547981
6  18.474857 -0.000035 -0.000007  0.006820 0.073126 0.943321
7  17.489584 0.001909 -0.000007  -0.723035 -0.700755 -0.983684
8  -0.000119 -0.048882 -0.576228  1.361211 0.022250 1.285360
9  3.224482 0.767045 0.000493  -0.342431 -0.359529 0.736764
10  3.223912 0.226402 -0.001945  0.126009 -0.183770 0.334636
11  5.187321 -1.262559 -0.001176  0.000012 0.000066 0.194111
12  6.928404 -1.935313 -0.000227  -3.098645 0.038551 0.490844
13  3.236372 1.079610 0.000057  0.028934 0.276480 -0.185749
14 0.000042 6.792187 0.000036  0.007989 0.036069 -0.011407
15 -0.000066 7.744814 0.000023  -0.017441 -0.155302 0.068154
16 0.000075 7.809700 0.000013  -0.033638 0.005024 0.006138
17 -0.000040 7.867681 0.000028  -0.073323 -0.127915 0.026380
18 3.494704 -1.749096 -3.006913  0.152560 2.070402 1.936951
19 0.000121 4.478323 0.000017  -0.194658 0.310441 -0.234991
20 0.000052 4.636125 -0.000037  0.035814 0.324601 -0.151776
21 -0.000068 5.008646 0.000019  0.075999 -0.286577 0.276091
22 0.000059 4.781158 0.000014  0.904409 -2.690891 -0.015805
23 2.253041 1.989053 -3.350107  -1.523627 1.324505 0.112411
24 0.000205 6.589466 0.000218  0.206356 -0.002120 -0.080402
25 0.000042 7.491415 0.000072  -0.333513 0.184453 -0.191163
26 0.000027 7.660305 -0.000014  -0.063168 0.127196 -0.062121
27 0.000010 7.256270 0.000021  -0.052941 -0.487829 0.313818
28 -0.791161 2.265114 -1.234655  -0.753929 1.136373 0.824636
29 -0.000341 8.572250 -0.000117  -0.222848 -0.296790 0.176519
30 -0.000090 8.117213 0.000033  0.072253 0.772525 -0.285597
31 -0.000126 8.230030 -0.000086  -0.080494 -0.347236 0.072258
32 0.000048 7.366714 0.000072  -0.015392 -0.663893 0.062745
33 0.224218 0.240126 -3.218157  -0.877416 1.468892 0.577783
34 -0.000105 7.721057 -0.000370  -0.283833 0.060493 -0.167546
35 0.000027 7.374847 -0.000001  0.007537 -0.195016 0.049531
36 0.000079 6.848106 0.000006  0.005484 0.006494 -0.033649
37 -0.000047 7.777868 0.000008  -0.186096 0.182474 -0.152845
38 -1.514467 2.104648 -1.150167  -0.029092 0.541321 1.555670
39 -0.000183 6.982347 -0.000086  -0.199706 -0.041208 0.153490
40 0.000022 8.382863 -0.000034  0.044872 0.587983 -0.257955
41 0.000021 8.697685 -0.000030  -0.102635 -0.474318 0.290940
42 0.000026 8.921805 -0.000010  -0.076261 0.581003 -0.195604
43 1.196195 2.899150 -2.353087  -0.449711 1.030106 1.287434
44 0.000142 5.476937 0.000000  0.285572 -0.099351 -0.038451
45 -0.000067 6.060433 -0.000088  -0.155021 -0.575029 0.384607
46 0.000019 5.994257 0.000029  0.033941 0.288575 -0.067727
47 -0.000008 6.100490 0.000003  -0.068405 0.299271 -0.162152
48 0.000033 6.916761 0.000016  -0.096310 0.220527 -0.107959
49 0.000193 6.435069 -0.000066  -0.037464 0.171638 -0.116580
50 1.092801 3.649510 -1.738793  -0.148590 0.876608 1.445040
51 -0.000040 6.792194 -0.000056  0.008286 0.107795 -0.048653
52 -0.000067 7.744779 0.000012  0.057141 -0.256891 0.015454
53 0.000087 9.115017 -0.000025  -0.020391 0.256253 -0.142638
54 3.494512 -1.749107 3.007062  0.118417 1.106973 1.813828
55 0.000046 4.323851 0.000091  -0.229905 -0.770940 0.449214
56 0.000028 4.872905 -0.000019  0.367240 -0.664049 -0.254030
57 0.000011 5.056651 0.000100  -0.511234 0.856582 -0.546328
58 2.292470 1.708611 3.661674  -1.762524 1.789094 -0.218920
59 -0.000251 6.589424 0.000387  -0.007111 -0.169145 0.176927
60 0.000224 7.491494 -0.000193  -0.132417 -0.107091 0.179325
61 -0.000106 8.249650 0.000144  0.041913 -0.058209 0.015809
62 0.000061 8.605231 -0.000033  0.101584 0.501824 -0.079698
63 -0.240480 2.066072 2.349267  -0.357342 2.461716 1.296057
64 0.000038 7.721107 -0.000014  -0.208231 -0.126212 -0.116512
65 -0.000116 7.374864 -0.000047  -0.111018 0.046937 -0.046465
66 -0.000039 6.848061 -0.000021  0.273529 0.247525 0.299904
67 0.000002 7.777819 -0.000029  0.072922 0.186146 -0.052682
68 -0.000075 8.178055 0.000020  -0.087031 -0.422848 -0.381356
69 1.617608 3.431405 2.399264  -0.249444 2.569524 1.508578
70 -0.000197 5.476944 -0.000057  0.057732 0.074073 0.060285
71 -0.000115 6.060502 -0.000053  -0.015210 0.015644 -0.152061
72 0.000028 5.994251 0.000010  -0.126207 -0.157652 0.153297
73 -0.000110 7.076876 -0.000092  -0.008129 0.010369 0.036413
74 0.000054 7.089870 -0.000032  0.070881 0.098597 -0.025899
75 0.361115 0.886681 3.287744  -0.576363 1.978713 0.939016
76 -0.000060 6.686643 0.000206  -0.146579 0.414162 -0.327713
77 -0.000052 7.638013 0.000057  -0.079517 -0.025947 0.130961
78 -0.000031 7.290233 -0.000021  0.025324 -0.093908 0.023963
79 -0.000036 6.530371 0.000009  -0.261847 -0.300600 0.006735
80 0.000066 7.224873 0.000006  0.036505 0.032481 -0.175826
81 1.071899 3.225791 1.570114  -0.043809 2.859978 1.526247
82 0.000398 6.748887 -0.000041  -0.062699 0.083784 0.022204
83 -0.000042 8.002645 0.000027  -0.067499 -0.117210 -0.115600
84 0.000006 8.580574 -0.000074  0.088217 -0.007187 0.334603
85 0.000160 8.689834 -0.000043  0.065323 -0.412429 -0.134516
86 -1.514536 2.104637 0.318055  -0.024895 3.094492 1.569492
87 0.000183 6.982272 0.000011  -0.107594 -0.057628 -0.215715
88 0.000005 8.382868 -0.000023  0.135038 -0.099909 0.287071
89 -0.000058 8.697675 0.000026  -0.148096 -0.510103 0.044839
90 -0.000140 8.921819 0.000121  -0.236834 -0.892636 0.098817
91 3.553612 -3.478049 2.409277  0.000816 0.762050 1.535322
92 0.000047 4.476911 0.000049  -0.150991 -0.588338 0.377243
93 0.000039 4.514131 -0.000021  -0.228869 -2.996195 0.592368
94 0.000042 4.518385 -0.000020  0.143169 2.612777 0.693387
95 0.000023 3.598317 0.000046  -0.749293 0.869854 -0.773229
96  0.000021 3.598335 0.000025  -0.749305 0.869852 -0.773234
97  4.209913 -0.440345 1.018824  -1.055497 -1.996294 -0.651141
98  4.265506 1.434229 -0.404990  -1.689554 -0.258438 0.490460
99  9.400233 0.017958 0.083198  0.042343 -0.069117 -0.924390
100  10.242420 0.033608 0.064484  1.414757 -0.284723 -0.146074
101  3.465860 -0.059694 0.016696  -0.039801 0.008836 -0.410849
102  1.655593 -0.000016 0.000023  -0.045703 -0.045566 -0.163176
103  0.960768 -0.000006 -0.000006  -0.005731 0.085716 0.051240
104  3.462029 -0.064263 0.939911  0.337320 -0.090726 -0.286196
105  1.497174 -0.000008 0.000020  -0.487526 0.047749 0.117655
106  0.793759 0.000005 0.000000  0.002518 -0.009294 -0.120007
107  0.591661 -0.460694 0.835207  -0.998976 -0.654565 -0.477405
108  1.556139 -0.000000 0.000004  -0.190375 0.081480 0.349972
109  1.135909 0.000019 0.000001  -0.017173 -0.043978 0.207756
110  3.084270 -0.668838 -1.257082  -0.570469 0.154708 -0.762362
111  1.064202 -0.000008 0.000005  0.021171 0.050157 -0.229938
112  0.640337 0.000010 -0.000004  0.000992 -0.010234 0.107074
113  3.396823 -0.242154 -0.708686  -0.321897 0.074933 -0.710872
114  1.532971 0.000007 0.000008  0.011102 0.000757 -0.156174
115  0.832975 -0.000015 -0.000002  -0.000945 0.021687 -0.163972
116  4.209939 -0.440342 -1.019279  1.219613 2.009567 -0.498852
117  4.266744 1.424937 0.424942  1.052871 1.280221 -0.558792
118  9.398566 0.011927 -0.082515  -0.016144 0.063010 -0.550804
119  10.242438 0.028198 -0.062904  -1.183661 0.174838 0.678428
120  3.465750 -0.067515 0.002267  -0.236665 0.250310 -1.664836
121  1.655561 0.000002 0.000002  -0.165761 0.184651 -1.176152
122  0.960907 0.000004 -0.000004  -0.018934 0.176617 -0.891008
123  3.466858 -0.077765 -0.920913  -0.489679 0.120594 -1.699123
124  1.497262 -0.000034 -0.000021  -0.583153 0.323339 -1.032094
125  0.793787 -0.000005 0.000005  -0.224975 0.388705 -0.772647
126  0.595083 -0.467148 -0.829179  2.469582 0.673969 -0.723576
127  1.555674 0.000020 -0.000010  0.637660 0.520252 1.171329
128  1.136811 -0.000007 -0.000003  0.578340 0.458574 1.086109
129  3.075976 -0.667958 1.277702  0.602879 0.235138 -1.369495
130  1.064594 0.000022 0.000006  0.026753 -0.117392 -0.831409
131  0.640362 -0.000019 -0.000004  -0.104291 -0.023772 -0.471513
132  3.392414 -0.245358 0.728375  0.126359 0.325415 -1.762046
133  1.532737 -0.000008 -0.000004  0.007388 0.016565 -0.812482
134  0.833147 0.000007 0.000005  -0.082766 -0.069998 -1.040852
135  3.590109 -3.090294 1.193973  1.635454 1.210566 1.548538
136  3.589557 -3.089880 -1.196372  -1.505748 1.210473 -1.592865
137  -0.436559 4.719026 -0.001075  -0.000827 -1.570733 1.692827
138  -0.000000 2.775459 -0.000236  -0.135089 0.000001 -0.000000
139  -0.000000 3.189766 0.000008  0.207820 -0.000000 0.000000
140  -0.000000 3.504649 0.000045  -0.261876 0.000000 -0.000000
141  -0.000000 2.863203 -0.000002  -0.051268 -0.000000 -0.000000
time 1
0  -0.000005 -0.000394 5.919071  1.570862 0.000000 0.000000
1  0.002636 43.025146 0.734438  -1.354907 0.436832 0.270082
2  3.061856 -4.181011 -0.610803  -2.137908 -0.225939 -1.546273
3  18.476770 0.000157 0.000004  0.002453 -0.027526 0.366753
4  17.490084 0.000266 0.000003  0.623733 -0.069357 -0.682483
5  -3.065331 -4.183575 -0.611481  -2.102225 -0.892841 -1.547981
6  18.474857 -0.000035 -0.000007  0.006820 0.073126 0.943321
7  17.489584 0.001909 -0.000007  -0.723035 -0.700755 -0.983684
8  -0.000119 -0.048882 -0.576228  1.361211 0.022250 1.285360
9  3.224482 0.767045 0.000493  -0.342431 -0.359529 0.736764
10  3.223913 0.226402 -0.001944  0.126009 -0.183770 0.334636
11  5.187322 -1.262559 -0.001177  0.000012 0.000066 0.194111
12  6.928410 -1.935312 -0.000228  -3.098645 0.038551 0.490844
13  3.236365 1.079611 0.000057  0.028934 0.276480 -0.185749
14 0.000042 6.792187 0.000036  0.007989 0.036069 -0.011407
15 -0.000066 7.744814 0.000023  -0.017441 -0.155302 0.068154
16 0.000075 7.809700 0.000013  -0.033638 0.005024 0.006138
17 -0.000040 7.867681 0.000028  -0.073323 -0.127915 0.026380
18 3.494704 -1.749096 -3.006913  0.152560 2.070402 1.936951
19 0.000121 4.478323 0.000017  -0.194658 0.310441 -0.234991
20 0.000052 4.636125 -0.000037  0.035814 0.324601 -0.151776
21 -0.000068 5.008646 0.000019  0.075999 -0.286577 0.276091
22 0.000059 4.781158 0.000014  0.904409 -2.690891 -0.015805
23 2.253041 1.989053 -3.350107  -1.523627 1.324505 0.112411
24 0.000205 6.589466 0.000218  0.206356 -0.002120 -0.080402
25 0.000042 7.491415 0.000072  -0.333513 0.184453 -0.191163
26 0.000027 7.660305 -0.000014  -0.063168 0.127196 -0.062121
27 0.000010 7.256270 0.000021  -0.052941 -0.487829 0.313818
28 -0.791161 2.265114 -1.234655  -0.753929 1.136373 0.824636
29 -0.000341 8.572250 -0.000117  -0.222848 -0.296790 0.176519
30 -0.000090 8.117213 0.000033  0.072253 0.772525 -0.285597
31 -0.000126 8.230030 -0.000086  -0.080494 -0.347236 0.072258
32 0.000048 7.366714 0.000072  -0.015392 -0.663893 0.062745
33 0.224218 0.240126 -3.218157  -0.877416 1.468892 0.577783
34 -0.000105 7.721057 -0.000370  -0.283833 0.060493 -0.167546
35 0.000027 7.374847 -0.000001  0.007537 -0.195016 0.049531
36 0.000079 6.848106 0.000006  0.005484 0.006494 -0.033649
37 -0.000047 7.777868 0.000008  -0.186096 0.182474 -0.152845
38 -1.514467 2.104648 -1.150167  -0.029092 0.541321 1.555670
39 -0.000183 6.982347 -0.000086  -0.199706 -0.041208 0.153490
40 0.000022 8.382863 -0.000034  0.044872 0.587983 -0.257955
41 0.000021 8.697685 -0.000030  -0.102635 -0.474318 0.290940
42 0.000026 8.921805 -0.000010  -0.076261 0.581003 -0.195604
43 1.196195 2.899150 -2.353087  -0.449711 1.030106 1.287434
44 0.000142 5.476937 0.000000  0.285572 -0.099351 -0.038451
45 -0.000067 6.060433 -0.000088  -0.155021 -0.575029 0.384607
46 0.000019 5.994257 0.000029  0.033941 0.288575 -0.067727
47 -0.000008 6.100490 0.000003  -0.068405 0.299271 -0.162152
48 0.000033 6.916761 0.000016  -0.096310 0.220527 -0.107959
49 0.000193 6.435069 -0.000066  -0.037464 0.171638 -0.116580
50 1.092801 3.649510 -1.738793  -0.148590 0.876608 1.445040
51 -0.000040 6.792194 -0.000056  0.008286 0.107795 -0.048653
52 -0.000067 7.744779 0.000012  0.057141 -0.256891 0.015454
53 0.000087 9.115017 -0.000025  -0.020391 0.256253 -0.142638
54 3.494512 -1.749107 3.007062  0.118417 1.106973 1.813828
55 0.000046 4.323851 0.000091  -0.229905 -0.770940 0.449214
56 0.000028 4.872905 -0.000019  0.367240 -0.664049 -0.254030
57 0.000011 5.056651 0.000100  -0.511234 0.856582 -0.546328
58 2.292470 1.708611 3.661674  -1.762524 1.789094 -0.218920
59 -0.000251 6.589424 0.000387  -0.007111 -0.169145 0.176927
60 0.000224 7.491494 -0.000193  -0.132417 -0.107091 0.179325
61 -0.000106 8.249650 0.000144  0.041913 -0.058209 0.015809
62 0.000061 8.605231 -0.000033  0.101584 0.501824 -0.079698
63 -0.240480 2.066072 2.349267  -0.357342 2.461716 1.296057
64 0.000038 7.721107 -0.000014  -0.208231 -0.126212 -0.116512
65 -0.000116 7.374864 -0.000047  -0.111018 0.046937 -0.046465
66 -0.000039 6.848061 -0.000021  0.273529 0.247525 0.299904
67 0.000002 7.777819 -0.000029  0.072922 0.186146 -0.052682
68 -0.000075 8.178055 0.000020  -0.087031 -0.422848 -0.381356
69 1.617608 3.431405 2.399264  -0.249444 2.569524 1.508578
70 -0.000197 5.476944 -0.000057  0.057732 0.074073 0.060285
71 -0.000115 6.060502 -0.000053  -0.015210 0.015644 -0.152061
72 0.000028 5.994251 0.000010  -0.126207 -0.157652 0.153297
73 -0.000110 7.076876 -0.000092  -0.008129 0.010369 0.036413
74 0.000054 7.089870 -0.000032  0.070881 0.098597 -0.025899
75 0.361115 0.886681 3.287744  -0.576363 1.978713 0.939016
76 -0.000060 6.686643 0.000206  -0.146579 0.414162 -0.327713
77 -0.000052 7.638013 0.000057  -0.079517 -0.025947 0.130961
78 -0.000031 7.290233 -0.000021  0.025324 -0.093908 0.023963
79 -0.000036 6.530371 0.000009  -0.261847 -0.300600 0.006735
80 0.000066 7.224873 0.000006  0.036505 0.032481 -0.175826
81 1.071899 3.225791 1.570114  -0.043809 2.859978 1.526247
82 0.000398 6.748887 -0.000041  -0.062699 0.083784 0.022204
83 -0.000042 8.002645 0.000027  -0.067499 -0.117210 -0.115600
84 0.000006 8.580574 -0.000074  0.088217 -0.007187 0.334603
85 0.000160 8.689834 -0.000043  0.065323 -0.412429 -0.134516
86 -1.514536 2.104637 0.318055  -0.024895 3.094492 1.569492
87 0.000183 6.982272 0.000011  -0.107594 -0.057628 -0.215715
88 0.000005 8.382868 -0.000023  0.135038 -0.099909 0.287071
89 -0.000058 8.697675 0.000026  -0.148096 -0.510103 0.044839
90 -0.000140 8.921819 0.000121  -0.236834 -0.892636 0.098817
91 3.553612 -3.478049 2.409277  0.000816 0.762050 1.535322
92 0.000047 4.476911 0.000049  -0.150991 -0.588338 0.377243
93 0.000039 4.514131 -0.000021  -0.228869 -2.996195 0.592368
94 0.000042 4.518385 -0.000020  0.143169 2.612777 0.693387
95 0.000023 3.598317 0.000046  -0.749293 0.869854 -0.773229
96  0.000023 3.598331 0.000026  -0.749304 0.869852 -0.773234
97  4.209918 -0.440345 1.018823  -1.055497 -1.996294 -0.651141
98  4.265508 1.434222 -0.404989  -1.689554 -0.258438 0.490460
99  9.400231 0.017955 0.083200  0.042343 -0.069117 -0.924390
100  10.242422 0.033607 0.064480  1.414757 -0.284722 -0.146074
101  3.465861 -0.059690 0.016695  -0.039801 0.008836 -0.410849
102  1.655598 -0.000011 0.000024  -0.045703 -0.045566 -0.163176
103  0.960768 -0.000008 -0.000006  -0.005731 0.085716 0.051240
104  3.462031 -0.064256 0.939911  0.337320 -0.090726 -0.286196
105  1.497177 -0.000000 0.000020  -0.487526 0.047750 0.117655
106  0.793765 -0.000003 -0.000001  0.002518 -0.009294 -0.120007
107  0.591663 -0.460694 0.835208  -0.998976 -0.654565 -0.477405
108  1.556139 0.000006 0.000005  -0.190375 0.081480 0.349972
109  1.135904 0.000018 0.000007  -0.017173 -0.043978 0.207756
110  3.084272 -0.668830 -1.257082  -0.570469 0.154709 -0.762362
111  1.064201 -0.000007 0.000005  0.021171 0.050157 -0.229938
112  0.640337 0.000013 -0.000005  0.000992 -0.010234 0.107074
113  3.396828 -0.242150 -0.708686  -0.321897 0.074933 -0.710872
114  1.532970 0.000003 0.000009  0.011102 0.000757 -0.156174
115  0.832976 0.000007 -0.000002  -0.000945 0.021687 -0.163972
116  4.209940 -0.440342 -1.019279  1.219613 2.009567 -0.498852
117  4.266746 1.424941 0.424944  1.052871 1.280221 -0.558792
118  9.398565 0.011926 -0.082514  -0.016144 0.063010 -0.550804
119  10.242437 0.028198 -0.062910  -1.183661 0.174838 0.678428
120  3.465751 -0.067513 0.002274  -0.236664 0.250310 -1.664837
121  1.655560 0.000001 0.000001  -0.165761 0.184651 -1.176152
122  0.960907 0.000003 -0.000005  -0.018934 0.176617 -0.891008
123  3.466858 -0.077763 -0.920906  -0.489679 0.120594 -1.699123
124  1.497263 -0.000033 -0.000021  -0.583153 0.323339 -1.032094
125  0.793787 -0.000007 0.000002  -0.224975 0.388705 -0.772647
126  0.595084 -0.467146 -0.829174  2.469582 0.673969 -0.723577
127  1.555673 0.000016 -0.000008  0.637661 0.520252 1.171329
128  1.136813 -0.000012 -0.000003  0.578340 0.458574 1.086109
129  3.075977 -0.667957 1.277708  0.602879 0.235138 -1.369495
130  1.064590 0.000019 0.000005  0.026753 -0.117392 -0.831409
131  0.640360 -0.000020 -0.000002  -0.104291 -0.023772 -0.471513
132  3.392415 -0.245352 0.728378  0.126359 0.325415 -1.762046
133  1.532738 -0.000008 -0.000001  0.007388 0.016565 -0.812482
134  0.833150 0.000006 -0.000002  -0.082766 -0.069998 -1.040852
135  3.590107 -3.090294 1.193972  1.635454 1.210566 1.548538
136  3.589559 -3.089879 -1.196372  -1.505748 1.210473 -1.592865
137  -0.436559 4.719026 -0.001076  -0.000591 -1.570733 1.692983
138  -0.000001 2.775459 -0.000235  -0.135089 0.000001 -0.000000
139  0.000000 3.189766 0.000006  0.207820 -0.000000 0.000000
140  0.000001 3.504650 0.000045  -0.261876 0.000000 -0.000000
141  0.000000 2.863204 -0.000002  -0.051268 0.000000 -0.000000
end