version 1
nodes
0 "ValveBiped.Bip01" -1
1 "ValveBiped.Bip01_Pelvis" 0
2 "ValveBiped.Bip01_L_Thigh" 1
3 "ValveBiped.Bip01_L_Calf" 2
4 "ValveBiped.Bip01_L_Foot" 3
5 "ValveBiped.Bip01_R_Thigh" 1
6 "ValveBiped.Bip01_R_Calf" 5
7 "ValveBiped.Bip01_R_Foot" 6
8 "ValveBiped.Bip01_Spine" 1
9 "ValveBiped.Bip01_Spine1" 8
10 "ValveBiped.Bip01_Spine2" 9
11 "ValveBiped.Bip01_Spine4" 10
12 "ValveBiped.Bip01_Neck1" 11
13 "ValveBiped.Bip01_Head1" 12
14 "HBN_CK01" 13
15 "HBN_CK02" 14
16 "HBN_CK03" 15
17 "HBN_CK04" 16
18 "HBN_CK05" 17
19 "HBn_LF01" 13
20 "HBn_LF02" 19
21 "HBn_LF03" 20
22 "HBn_LF04" 21
23 "HBn_LF05" 22
24 "HBN_LMA01" 13
25 "HBN_LMA02" 24
26 "HBN_LMA03" 25
27 "HBN_LMA04" 26
28 "HBN_LMA05" 27
29 "HBN_LMB01" 13
30 "HBN_LMB02" 29
31 "HBN_LMB03" 30
32 "HBN_LMB04" 31
33 "HBN_LMB05" 32
34 "HBN_LMC01" 13
35 "HBN_LMC02" 34
36 "HBN_LMC03" 35
37 "HBN_LMC04" 36
38 "HBN_LMC05" 37
39 "HBN_LMD01" 13
40 "HBN_LMD02" 39
41 "HBN_LMD03" 40
42 "HBN_LMD04" 41
43 "HBN_LMD05" 42
44 "HBN_LME01" 13
45 "HBN_LME02" 44
46 "HBN_LME03" 45
47 "HBN_LME04" 46
48 "HBN_LME05" 47
49 "HBN_LME06" 48
50 "HBN_LME07" 49
51 "HBN_LMF01" 13
52 "HBN_LMF02" 51
53 "HBN_LMF03" 52
54 "HBN_LMF04" 53
55 "HBn_RF01" 13
56 "HBn_RF02" 55
57 "HBn_RF03" 56
58 "HBn_RF04" 57
59 "HBN_RMA01" 13
60 "HBN_RMA02" 59
61 "HBN_RMA03" 60
62 "HBN_RMA04" 61
63 "HBN_RMA05" 62
64 "HBN_RMB01" 13
65 "HBN_RMB02" 64
66 "HBN_RMB03" 65
67 "HBN_RMB04" 66
68 "HBN_RMB05" 67
69 "HBN_RMB06" 68
70 "HBN_RMC01" 13
71 "HBN_RMC02" 70
72 "HBN_RMC03" 71
73 "HBN_RMC04" 72
74 "HBN_RMC05" 73
75 "HBN_RMC06" 74
76 "HBN_RMD01" 13
77 "HBN_RMD02" 76
78 "HBN_RMD03" 77
79 "HBN_RMD04" 78
80 "HBN_RMD05" 79
81 "HBN_RMD06" 80
82 "HBN_RME01" 13
83 "HBN_RME02" 82
84 "HBN_RME03" 83
85 "HBN_RME04" 84
86 "HBN_RME05" 85
87 "HBN_RMF01" 13
88 "HBN_RMF02" 87
89 "HBN_RMF03" 88
90 "HBN_RMF04" 89
91 "HBN_RMF05" 90
92 "HBn_RFF01" 13
93 "HBn_RFF02" 92
94 "HBn_RFF03" 93
95 "HBn_RFF04" 94
96 "HBn_RFF05" 95
97 "ValveBiped.Bip01_L_Clavicle" 11
98 "ValveBiped.Bip01_L_UpperArm" 97
99 "ValveBiped.Bip01_L_Forearm" 98
100 "ValveBiped.Bip01_L_Hand" 99
101 "ValveBiped.Bip01_L_Finger2" 100
102 "ValveBiped.Bip01_L_Finger21" 101
103 "ValveBiped.Bip01_L_Finger22" 102
104 "ValveBiped.Bip01_L_Finger1" 100
105 "ValveBiped.Bip01_L_Finger11" 104
106 "ValveBiped.Bip01_L_Finger12" 105
107 "ValveBiped.Bip01_L_Finger0" 100
108 "ValveBiped.Bip01_L_Finger01" 107
109 "ValveBiped.Bip01_L_Finger02" 108
110 "ValveBiped.Bip01_L_Finger4" 100
111 "ValveBiped.Bip01_L_Finger41" 110
112 "ValveBiped.Bip01_L_Finger42" 111
113 "ValveBiped.Bip01_L_Finger3" 100
114 "ValveBiped.Bip01_L_Finger31" 113
115 "ValveBiped.Bip01_L_Finger32" 114
116 "ValveBiped.Bip01_R_Clavicle" 11
117 "ValveBiped.Bip01_R_UpperArm" 116
118 "ValveBiped.Bip01_R_Forearm" 117
119 "ValveBiped.Bip01_R_Hand" 118
120 "ValveBiped.Bip01_R_Finger2" 119
121 "ValveBiped.Bip01_R_Finger21" 120
122 "ValveBiped.Bip01_R_Finger22" 121
123 "ValveBiped.Bip01_R_Finger1" 119
124 "ValveBiped.Bip01_R_Finger11" 123
125 "ValveBiped.Bip01_R_Finger12" 124
126 "ValveBiped.Bip01_R_Finger0" 119
127 "ValveBiped.Bip01_R_Finger01" 126
128 "ValveBiped.Bip01_R_Finger02" 127
129 "ValveBiped.Bip01_R_Finger4" 119
130 "ValveBiped.Bip01_R_Finger41" 129
131 "ValveBiped.Bip01_R_Finger42" 130
132 "ValveBiped.Bip01_R_Finger3" 119
133 "ValveBiped.Bip01_R_Finger31" 132
134 "ValveBiped.Bip01_R_Finger32" 133
135 "lPectoral" 10
136 "rPectoral" 10
137 "Front Cloth" 10
138 "Front Cloth.001" 137
139 "Front Cloth.002" 138
140 "Front Cloth.003" 139
141 "Front Cloth.004" 140
end
skeleton
time 0
0  -0.000005 -0.000394 5.919071  1.570862 0.000000 0.000000
1  0.002636 43.025146 0.734438  -1.354907 0.436832 0.270082
2  3.061856 -4.181011 -0.610803  -2.137908 -0.225938 -1.546273
3  18.476776 0.000161 -0.000003  0.002453 -0.027525 0.366753
4  17.490086 0.000115 0.000005  0.623733 -0.069357 -0.682483
5  -3.065331 -4.183575 -0.611481  -2.102225 -0.892841 -1.547981
6  18.474854 -0.000036 -0.000007  0.006820 0.073126 0.943321
7  17.489578 0.001918 -0.000006  -0.723035 -0.700755 -0.983684
8  -0.000119 -0.048882 -0.576228  1.361211 0.022250 1.285360
9  3.224481 0.767041 0.000495  -0.342431 -0.359529 0.736764
10  3.223908 0.226399 -0.001943  0.126009 -0.183770 0.334636
11  5.187325 -1.262559 -0.001176  0.000012 0.000066 0.194111
12  6.928412 -1.935313 -0.000227  -3.098645 0.038551 0.490844
13  3.236366 1.079613 0.000057  0.028934 0.276480 -0.185749
14  0.833754 3.805348 0.692956  -0.040491 0.554883 1.469875
15  0.000041 6.792212 0.000040  0.007991 0.036071 -0.011407
16  -0.000062 7.744816 0.000020  -0.017444 -0.155305 0.068154
17  0.000072 7.809707 0.000019  -0.033634 0.005025 0.006136
18  -0.000024 7.867675 0.000019  -0.073328 -0.127910 0.026382
19  3.494696 -1.749093 -3.006912  0.152547 2.070419 1.936946
20  0.000120 4.478319 0.000018  -0.194657 0.310431 -0.234995
21  0.000047 4.636116 -0.000030  0.035817 0.324592 -0.151770
22  -0.000042 5.008650 0.000013  0.076001 -0.286565 0.276090
23  0.000063 4.781159 0.000011  0.904404 -2.690906 -0.015801
24  2.253036 1.989058 -3.350106  -1.523626 1.324491 0.112405
25  0.000162 6.589465 0.000171  0.206348 -0.002130 -0.080384
26  0.000041 7.491416 0.000049  -0.333506 0.184455 -0.191166
27  0.000024 7.660307 -0.000056  -0.063173 0.127194 -0.062128
28  0.000007 7.256269 0.000019  -0.052945 -0.487825 0.313822
29  -0.791162 2.265115 -1.234656  -0.753899 1.136377 0.824674
30  -0.000258 8.572269 -0.000095  -0.222844 -0.296789 0.176505
31  -0.000093 8.117212 0.000044  0.072258 0.772520 -0.285587
32  -0.000082 8.230038 -0.000077  -0.080489 -0.347232 0.072250
33  0.000055 7.366729 0.000054  -0.015400 -0.663892 0.062745
34  0.224212 0.240125 -3.218158  -0.877382 1.468889 0.577827
35  -0.000101 7.721050 -0.000308  -0.283829 0.060496 -0.167554
36  -0.000031 7.374858 -0.000000  0.007538 -0.195021 0.049536
37  0.000078 6.848101 0.000008  0.005484 0.006497 -0.033652
38  -0.000050 7.777863 0.000008  -0.186098 0.182473 -0.152844
39  -1.514469 2.104649 -1.150167  -0.029095 0.541323 1.555682
40  -0.000168 6.982348 -0.000075  -0.199702 -0.041215 0.153484
41  0.000043 8.382858 -0.000073  0.044870 0.587988 -0.257954
42  0.000015 8.697697 -0.000033  -0.102636 -0.474319 0.290942
43  0.000058 8.921806 -0.000008  -0.076256 0.581004 -0.195601
44  1.196193 2.899154 -2.353086  -0.449715 1.030101 1.287435
45  0.000105 5.476936 0.000009  0.285581 -0.099350 -0.038452
46  -0.000072 6.060436 -0.000090  -0.155030 -0.575022 0.384618
47  0.000022 5.994257 0.000029  0.033944 0.288572 -0.067729
48  -0.000010 6.100485 0.000001  -0.068402 0.299270 -0.162153
49  0.000033 6.916758 0.000004  -0.096318 0.220531 -0.107965
50  0.000146 6.435060 -0.000037  -0.037456 0.171629 -0.116572
51  1.092793 3.649514 -1.738794  -0.148600 0.876612 1.445020
52  -0.000128 6.792199 -0.000106  0.008285 0.107792 -0.048643
53  -0.000086 7.744776 -0.000037  0.057137 -0.256893 0.015458
54  0.000083 9.115024 -0.000038  -0.020393 0.256253 -0.142636
55  3.494515 -1.749101 3.007064  0.118400 1.106974 1.813817
56  0.000014 4.323833 0.000087  -0.229905 -0.770943 0.449225
57  0.000028 4.872902 -0.000020  0.367242 -0.664052 -0.254037
58  0.000004 5.056647 0.000096  -0.511238 0.856586 -0.546322
59  2.292464 1.708615 3.661675  -1.762554 1.789109 -0.218965
60  -0.000172 6.589449 0.000274  -0.007136 -0.169123 0.176903
61  0.000176 7.491502 -0.000148  -0.132413 -0.107099 0.179331
62  -0.000140 8.249659 0.000144  0.041915 -0.058210 0.015816
63  0.000072 8.605237 -0.000022  0.101587 0.501825 -0.079696
64  -0.240491 2.066072 2.349267  -0.357331 2.461715 1.296080
65  -0.000090 7.721107 -0.000003  -0.208225 -0.126225 -0.116504
66  -0.000127 7.374860 -0.000049  -0.111020 0.046939 -0.046460
67  -0.000033 6.848066 -0.000025  0.273529 0.247523 0.299910
68  0.000036 7.777825 -0.000045  0.072921 0.186148 -0.052688
69  -0.000088 8.178053 0.000012  -0.087027 -0.422849 -0.381360
70  1.617598 3.431405 2.399265  -0.249453 2.569514 1.508577
71  -0.000163 5.476943 -0.000028  0.057728 0.074072 0.060280
72  -0.000091 6.060491 -0.000005  -0.015203 0.015650 -0.152059
73  0.000025 5.994251 0.000010  -0.126210 -0.157657 0.153303
74  -0.000078 7.076876 -0.000046  -0.008122 0.010384 0.036403
75  0.000005 7.089868 -0.000067  0.070875 0.098587 -0.025893
76  0.361108 0.886683 3.287746  -0.576376 1.978709 0.939011
77  -0.000067 6.686646 0.000225  -0.146570 0.414164 -0.327707
78  -0.000009 7.638021 0.000011  -0.079522 -0.025947 0.130961
79  -0.000031 7.290233 -0.000023  0.025325 -0.093909 0.023960
80  -0.000034 6.530374 0.000004  -0.261848 -0.300600 0.006733
81  0.000064 7.224875 0.000007  0.036507 0.032481 -0.175825
82  1.071895 3.225798 1.570115  -0.043809 2.859974 1.526246
83  0.000416 6.748908 -0.000067  -0.062702 0.083784 0.022197
84  -0.000053 8.002645 0.000026  -0.067496 -0.117208 -0.115602
85  0.000014 8.580574 -0.000097  0.088212 -0.007186 0.334590
86  0.000177 8.689832 -0.000041  0.065328 -0.412431 -0.134505
87  -1.514537 2.104640 0.318056  -0.024895 3.094490 1.569501
88  0.000193 6.982278 0.000012  -0.107589 -0.057624 -0.215715
89  -0.000013 8.382870 -0.000068  0.135031 -0.099915 0.287076
90  -0.000055 8.697678 0.000023  -0.148091 -0.510100 0.044838
91  -0.000133 8.921822 0.000079  -0.236825 -0.892633 0.098801
92  3.553612 -3.478047 2.409277  0.000819 0.762046 1.535307
93  0.000000 4.476901 -0.000007  -0.151008 -0.588330 0.377264
94  0.000036 4.514116 -0.000024  -0.228870 -2.996202 0.592372
95  0.000043 4.518386 -0.000023  0.143170 2.612777 0.693387
96  0.000023 3.598326 0.000025  -0.749303 0.869852 -0.773233
97  4.209921 -0.440346 1.018824  -1.055496 -1.996294 -0.651141
98  4.265505 1.434230 -0.404994  -1.689555 -0.258437 0.490460
99  9.400229 0.017943 0.083196  0.042343 -0.069117 -0.924389
100  10.242422 0.033590 0.064479  1.414756 -0.284723 -0.146074
101  3.465853 -0.059681 0.016695  -0.039800 0.008836 -0.410850
102  1.655595 -0.000025 0.000021  -0.045703 -0.045565 -0.163175
103  0.960770 0.000001 -0.000006  -0.005731 0.085716 0.051241
104  3.462026 -0.064252 0.939910  0.337322 -0.090724 -0.286195
105  1.497173 -0.000009 0.000021  -0.487528 0.047747 0.117654
106  0.793759 -0.000002 -0.000003  0.002518 -0.009294 -0.120007
107  0.591660 -0.460695 0.835207  -0.998976 -0.654565 -0.477404
108  1.556139 0.000004 -0.000001  -0.190374 0.081481 0.349972
109  1.135903 0.000018 0.000005  -0.017173 -0.043979 0.207757
110  3.084268 -0.668825 -1.257084  -0.570470 0.154710 -0.762361
111  1.064204 -0.000008 0.000002  0.021171 0.050157 -0.229939
112  0.640337 0.000009 -0.000004  0.000992 -0.010235 0.107074
113  3.396821 -0.242141 -0.708689  -0.321897 0.074932 -0.710870
114  1.532969 0.000000 0.000005  0.011102 0.000758 -0.156175
115  0.832975 -0.000006 -0.000003  -0.000945 0.021687 -0.163972
116  4.209947 -0.440343 -1.019279  1.219615 2.009567 -0.498850
117  4.266746 1.424940 0.424938  1.052870 1.280222 -0.558794
118  9.398567 0.011949 -0.082513  -0.016144 0.063009 -0.550804
119  10.242438 0.028178 -0.062914  -1.183657 0.174840 0.678428
120  3.465748 -0.067525 0.002275  -0.236666 0.250308 -1.664841
121  1.655560 0.000004 0.000004  -0.165760 0.184651 -1.176153
122  0.960908 0.000004 0.000002  -0.018934 0.176617 -0.891006
123  3.466854 -0.077778 -0.920905  -0.489680 0.120591 -1.699126
124  1.497267 -0.000034 -0.000016  -0.583152 0.323339 -1.032093
125  0.793790 -0.000007 -0.000004  -0.224977 0.388705 -0.772647
126  0.595078 -0.467150 -0.829169  2.469581 0.673967 -0.723579
127  1.555677 0.000017 -0.000002  0.637660 0.520253 1.171329
128  1.136816 -0.000010 -0.000002  0.578339 0.458574 1.086109
129  3.075973 -0.667966 1.277707  0.602877 0.235138 -1.369498
130  1.064592 0.000020 0.000006  0.026753 -0.117392 -0.831410
131  0.640363 -0.000012 -0.000001  -0.104291 -0.023772 -0.471513
132  3.392412 -0.245368 0.728382  0.126356 0.325413 -1.762051
133  1.532738 -0.000008 0.000003  0.007389 0.016566 -0.812482
134  0.833151 0.000007 -0.000002  -0.082765 -0.069998 -1.040853
135  3.590113 -3.090294 1.193972  1.635457 1.210566 1.548541
136  3.589561 -3.089879 -1.196372  -1.505736 1.210473 -1.592853
137  -0.436555 4.719026 -0.001075  -0.000827 -1.570733 1.692888
138  -0.000000 2.775455 -0.000235  -0.135089 0.000001 -0.000000
139  0.000001 3.189762 0.000006  0.207820 -0.000000 0.000000
140  -0.000000 3.504653 0.000045  -0.261876 0.000000 -0.000000
141  0.000000 2.863207 -0.000001  -0.051268 -0.000000 0.000000
time 1
0  -0.000005 -0.000394 5.919071  1.570862 0.000000 0.000000
1  0.002636 43.025146 0.734438  -1.354907 0.436832 0.270082
2  3.061856 -4.181011 -0.610803  -2.137908 -0.225938 -1.546273
3  18.476776 0.000161 -0.000003  0.002453 -0.027525 0.366753
4  17.490086 0.000115 0.000005  0.623733 -0.069357 -0.682483
5  -3.065331 -4.183575 -0.611481  -2.102225 -0.892841 -1.547981
6  18.474855 -0.000036 -0.000008  0.006820 0.073126 0.943321
7  17.489584 0.001912 -0.000005  -0.723035 -0.700755 -0.983684
8  -0.000119 -0.048882 -0.576228  1.361211 0.022250 1.285360
9  3.224481 0.767041 0.000495  -0.342431 -0.359529 0.736764
10  3.223909 0.226402 -0.001944  0.126009 -0.183770 0.334636
11  5.187325 -1.262558 -0.001177  0.000012 0.000066 0.194111
12  6.928408 -1.935314 -0.000228  -3.098645 0.038551 0.490844
13  3.236369 1.079610 0.000058  0.028934 0.276480 -0.185749
14  0.833763 3.805351 0.692956  -0.040491 0.554883 1.469875
15  0.000042 6.792204 0.000039  0.007991 0.036071 -0.011407
16  -0.000068 7.744814 0.000017  -0.017444 -0.155305 0.068154
17  0.000074 7.809705 0.000018  -0.033634 0.005025 0.006136
18  -0.000023 7.867673 0.000017  -0.073328 -0.127910 0.026381
19  3.494706 -1.749092 -3.006912  0.152547 2.070419 1.936946
20  0.000121 4.478323 0.000017  -0.194657 0.310431 -0.234995
21  0.000047 4.636108 -0.000028  0.035817 0.324592 -0.151770
22  -0.000042 5.008650 0.000013  0.076001 -0.286565 0.276090
23  0.000066 4.781162 0.000009  0.904404 -2.690906 -0.015801
24  2.253045 1.989060 -3.350106  -1.523626 1.324491 0.112405
25  0.000163 6.589459 0.000173  0.206348 -0.002130 -0.080384
26  0.000043 7.491413 0.000042  -0.333506 0.184455 -0.191166
27  0.000024 7.660305 -0.000056  -0.063172 0.127194 -0.062128
28  0.000008 7.256269 0.000019  -0.052945 -0.487825 0.313822
29  -0.791153 2.265117 -1.234655  -0.753899 1.136377 0.824674
30  -0.000259 8.572264 -0.000090  -0.222844 -0.296789 0.176505
31  -0.000098 8.117217 0.000047  0.072258 0.772520 -0.285587
32  -0.000082 8.230034 -0.000078  -0.080489 -0.347232 0.072250
33  0.000061 7.366721 0.000053  -0.015400 -0.663892 0.062745
34  0.224223 0.240126 -3.218158  -0.877382 1.468889 0.577827
35  -0.000101 7.721045 -0.000312  -0.283829 0.060496 -0.167554
36  -0.000030 7.374861 -0.000005  0.007538 -0.195021 0.049536
37  0.000076 6.848099 0.000004  0.005484 0.006497 -0.033652
38  -0.000051 7.777859 0.000012  -0.186098 0.182473 -0.152844
39  -1.514460 2.104651 -1.150167  -0.029095 0.541323 1.555682
40  -0.000167 6.982349 -0.000078  -0.199702 -0.041215 0.153484
41  0.000039 8.382866 -0.000072  0.044870 0.587988 -0.257954
42  0.000013 8.697699 -0.000025  -0.102636 -0.474319 0.290942
43  0.000053 8.921801 -0.000002  -0.076256 0.581004 -0.195601
44  1.196203 2.899156 -2.353086  -0.449715 1.030101 1.287435
45  0.000110 5.476941 0.000007  0.285581 -0.099350 -0.038452
46  -0.000074 6.060436 -0.000088  -0.155030 -0.575022 0.384618
47  0.000015 5.994258 0.000028  0.033944 0.288572 -0.067729
48  -0.000008 6.100490 0.000004  -0.068402 0.299270 -0.162153
49  0.000034 6.916758 0.000010  -0.096318 0.220531 -0.107965
50  0.000148 6.435061 -0.000043  -0.037456 0.171629 -0.116572
51  1.092802 3.649513 -1.738794  -0.148600 0.876612 1.445020
52  -0.000128 6.792201 -0.000105  0.008285 0.107792 -0.048643
53  -0.000089 7.744776 -0.000030  0.057137 -0.256893 0.015458
54  0.000089 9.115016 -0.000041  -0.020393 0.256253 -0.142636
55  3.494524 -1.749099 3.007064  0.118400 1.106974 1.813817
56  0.000015 4.323838 0.000086  -0.229905 -0.770943 0.449225
57  0.000026 4.872902 -0.000022  0.367242 -0.664052 -0.254037
58  0.000001 5.056659 0.000089  -0.511238 0.856586 -0.546322
59  2.292473 1.708617 3.661675  -1.762554 1.789109 -0.218965
60  -0.000173 6.589450 0.000274  -0.007136 -0.169123 0.176903
61  0.000173 7.491495 -0.000148  -0.132413 -0.107099 0.179331
62  -0.000140 8.249657 0.000144  0.041915 -0.058210 0.015816
63  0.000072 8.605232 -0.000024  0.101587 0.501825 -0.079696
64  -0.240481 2.066072 2.349267  -0.357331 2.461715 1.296080
65  -0.000084 7.721104 -0.000001  -0.208225 -0.126225 -0.116504
66  -0.000125 7.374859 -0.000045  -0.111020 0.046939 -0.046460
67  -0.000041 6.848062 -0.000025  0.273529 0.247523 0.299910
68  0.000037 7.777823 -0.000044  0.072921 0.186147 -0.052688
69  -0.000085 8.178055 0.000010  -0.087027 -0.422849 -0.381360
70  1.617607 3.431407 2.399265  -0.249453 2.569514 1.508577
71  -0.000163 5.476937 -0.000029  0.057728 0.074072 0.060280
72  -0.000095 6.060495 -0.000005  -0.015203 0.015650 -0.152059
73  0.000028 5.994243 0.000010  -0.126210 -0.157657 0.153303
74  -0.000077 7.076875 -0.000049  -0.008122 0.010384 0.036403
75  0.000001 7.089869 -0.000073  0.070875 0.098587 -0.025893
76  0.361118 0.886684 3.287746  -0.576376 1.978709 0.939011
77  -0.000065 6.686644 0.000221  -0.146570 0.414164 -0.327707
78  -0.000008 7.638017 0.000014  -0.079522 -0.025947 0.130961
79  -0.000031 7.290230 -0.000021  0.025325 -0.093909 0.023960
80  -0.000035 6.530368 0.000005  -0.261848 -0.300600 0.006733
81  0.000064 7.224879 0.000010  0.036507 0.032481 -0.175825
82  1.071904 3.225799 1.570115  -0.043809 2.859974 1.526246
83  0.000415 6.748905 -0.000066  -0.062702 0.083783 0.022197
84  -0.000052 8.002648 0.000027  -0.067496 -0.117208 -0.115602
85  0.000013 8.580566 -0.000097  0.088212 -0.007186 0.334590
86  0.000179 8.689835 -0.000041  0.065328 -0.412431 -0.134505
87  -1.514527 2.104641 0.318056  -0.024895 3.094490 1.569501
88  0.000193 6.982285 0.000012  -0.107589 -0.057624 -0.215715
89  -0.000009 8.382873 -0.000068  0.135031 -0.099915 0.287076
90  -0.000058 8.697668 0.000023  -0.148091 -0.510100 0.044838
91  -0.000134 8.921824 0.000077  -0.236825 -0.892633 0.098801
92  3.553618 -3.478044 2.409278  0.000819 0.762046 1.535307
93  -0.000002 4.476902 -0.000010  -0.151008 -0.588330 0.377264
94  0.000032 4.514121 -0.000025  -0.228870 -2.996202 0.592372
95  0.000044 4.518389 -0.000023  0.143170 2.612777 0.693387
96  0.000022 3.598332 0.000024  -0.749303 0.869852 -0.773233
97  4.209921 -0.440346 1.018823  -1.055496 -1.996294 -0.651142
98  4.265506 1.434227 -0.404992  -1.689555 -0.258437 0.490460
99  9.400233 0.017941 0.083200  0.042343 -0.069117 -0.924389
100  10.242423 0.033592 0.064480  1.414756 -0.284723 -0.146074
101  3.465856 -0.059674 0.016692  -0.039800 0.008836 -0.410850
102  1.655596 -0.000019 0.000022  -0.045703 -0.045565 -0.163175
103  0.960770 -0.000011 -0.000007  -0.005731 0.085716 0.051241
104  3.462030 -0.064241 0.939908  0.337322 -0.090724 -0.286195
105  1.497175 -0.000007 0.000019  -0.487528 0.047747 0.117654
106  0.793756 -0.000003 -0.000003  0.002518 -0.009294 -0.120007
107  0.591664 -0.460689 0.835205  -0.998976 -0.654565 -0.477404
108  1.556138 -0.000000 -0.000001  -0.190374 0.081481 0.349972
109  1.135903 0.000019 0.000003  -0.017173 -0.043979 0.207757
110  3.084272 -0.668814 -1.257087  -0.570470 0.154710 -0.762361
111  1.064202 -0.000009 0.000003  0.021171 0.050157 -0.229939
112  0.640334 0.000015 -0.000004  0.000992 -0.010235 0.107074
113  3.396824 -0.242134 -0.708692  -0.321897 0.074932 -0.710870
114  1.532968 0.000002 0.000006  0.011102 0.000758 -0.156175
115  0.832976 -0.000005 -0.000004  -0.000945 0.021687 -0.163972
116  4.209943 -0.440343 -1.019279  1.219615 2.009567 -0.498850
117  4.266745 1.424944 0.424937  1.052870 1.280222 -0.558794
118  9.398567 0.011951 -0.082509  -0.016144 0.063009 -0.550804
119  10.242436 0.028177 -0.062902  -1.183657 0.174840 0.678428
120  3.465749 -0.067530 0.002275  -0.236666 0.250308 -1.664841
121  1.655555 0.000009 0.000005  -0.165760 0.184651 -1.176153
122  0.960907 0.000004 -0.000001  -0.018934 0.176617 -0.891006
123  3.466856 -0.077782 -0.920905  -0.489680 0.120591 -1.699126
124  1.497263 -0.000038 -0.000014  -0.583152 0.323339 -1.032093
125  0.793792 -0.000009 -0.000001  -0.224977 0.388705 -0.772647
126  0.595079 -0.467154 -0.829169  2.469581 0.673966 -0.723579
127  1.555676 0.000014 -0.000002  0.637660 0.520253 1.171329
128  1.136810 -0.000008 -0.000002  0.578339 0.458574 1.086108
129  3.075974 -0.667967 1.277707  0.602877 0.235138 -1.369498
130  1.064593 0.000019 0.000003  0.026753 -0.117392 -0.831410
131  0.640362 -0.000014 0.000000  -0.104290 -0.023772 -0.471513
132  3.392412 -0.245368 0.728382  0.126356 0.325413 -1.762051
133  1.532737 -0.000009 0.000000  0.007389 0.016566 -0.812482
134  0.833152 0.000010 0.000003  -0.082765 -0.069998 -1.040853
135  3.590114 -3.090294 1.193972  1.635457 1.210566 1.548541
136  3.589561 -3.089878 -1.196373  -1.505736 1.210473 -1.592853
137  -0.436555 4.719028 -0.001076  -0.000591 -1.570733 1.693063
138  -0.000001 2.775459 -0.000235  -0.135089 0.000001 -0.000000
139  0.000001 3.189766 0.000007  0.207820 -0.000000 0.000000
140  -0.000000 3.504649 0.000046  -0.261876 0.000000 -0.000000
141  0.000000 2.863204 -0.000001  -0.051268 -0.000000 -0.000000
end
