version 1
nodes
0 "ValveBiped.Bip01" -1
1 "ValveBiped.Bip01_Pelvis" 0
2 "ValveBiped.Bip01_L_Thigh" 1
3 "ValveBiped.Bip01_L_Calf" 2
4 "ValveBiped.Bip01_L_Foot" 3
5 "ValveBiped.Bip01_R_Thigh" 1
6 "ValveBiped.Bip01_R_Calf" 5
7 "ValveBiped.Bip01_R_Foot" 6
8 "ValveBiped.Bip01_Spine" 1
9 "ValveBiped.Bip01_Spine1" 8
10 "ValveBiped.Bip01_Spine2" 9
11 "ValveBiped.Bip01_Spine4" 10
12 "ValveBiped.Bip01_Neck1" 11
13 "ValveBiped.Bip01_Head1" 12
14 "HBN_CK01" 13
15 "HBN_CK02" 14
16 "HBN_CK03" 15
17 "HBN_CK04" 16
18 "HBN_CK05" 17
19 "HBn_LF01" 13
20 "HBn_LF02" 19
21 "HBn_LF03" 20
22 "HBn_LF04" 21
23 "HBn_LF05" 22
24 "HBN_LMA01" 13
25 "HBN_LMA02" 24
26 "HBN_LMA03" 25
27 "HBN_LMA04" 26
28 "HBN_LMA05" 27
29 "HBN_LMB01" 13
30 "HBN_LMB02" 29
31 "HBN_LMB03" 30
32 "HBN_LMB04" 31
33 "HBN_LMB05" 32
34 "HBN_LMC01" 13
35 "HBN_LMC02" 34
36 "HBN_LMC03" 35
37 "HBN_LMC04" 36
38 "HBN_LMC05" 37
39 "HBN_LMD01" 13
40 "HBN_LMD02" 39
41 "HBN_LMD03" 40
42 "HBN_LMD04" 41
43 "HBN_LMD05" 42
44 "HBN_LME01" 13
45 "HBN_LME02" 44
46 "HBN_LME03" 45
47 "HBN_LME04" 46
48 "HBN_LME05" 47
49 "HBN_LME06" 48
50 "HBN_LME07" 49
51 "HBN_LMF01" 13
52 "HBN_LMF02" 51
53 "HBN_LMF03" 52
54 "HBN_LMF04" 53
55 "HBn_RF01" 13
56 "HBn_RF02" 55
57 "HBn_RF03" 56
58 "HBn_RF04" 57
59 "HBN_RMA01" 13
60 "HBN_RMA02" 59
61 "HBN_RMA03" 60
62 "HBN_RMA04" 61
63 "HBN_RMA05" 62
64 "HBN_RMB01" 13
65 "HBN_RMB02" 64
66 "HBN_RMB03" 65
67 "HBN_RMB04" 66
68 "HBN_RMB05" 67
69 "HBN_RMB06" 68
70 "HBN_RMC01" 13
71 "HBN_RMC02" 70
72 "HBN_RMC03" 71
73 "HBN_RMC04" 72
74 "HBN_RMC05" 73
75 "HBN_RMC06" 74
76 "HBN_RMD01" 13
77 "HBN_RMD02" 76
78 "HBN_RMD03" 77
79 "HBN_RMD04" 78
80 "HBN_RMD05" 79
81 "HBN_RMD06" 80
82 "HBN_RME01" 13
83 "HBN_RME02" 82
84 "HBN_RME03" 83
85 "HBN_RME04" 84
86 "HBN_RME05" 85
87 "HBN_RMF01" 13
88 "HBN_RMF02" 87
89 "HBN_RMF03" 88
90 "HBN_RMF04" 89
91 "HBN_RMF05" 90
92 "HBn_RFF01" 13
93 "HBn_RFF02" 92
94 "HBn_RFF03" 93
95 "HBn_RFF04" 94
96 "HBn_RFF05" 95
97 "ValveBiped.Bip01_L_Clavicle" 11
98 "ValveBiped.Bip01_L_UpperArm" 97
99 "ValveBiped.Bip01_L_Forearm" 98
100 "ValveBiped.Bip01_L_Hand" 99
101 "ValveBiped.Bip01_L_Finger2" 100
102 "ValveBiped.Bip01_L_Finger21" 101
103 "ValveBiped.Bip01_L_Finger22" 102
104 "ValveBiped.Bip01_L_Finger1" 100
105 "ValveBiped.Bip01_L_Finger11" 104
106 "ValveBiped.Bip01_L_Finger12" 105
107 "ValveBiped.Bip01_L_Finger0" 100
108 "ValveBiped.Bip01_L_Finger01" 107
109 "ValveBiped.Bip01_L_Finger02" 108
110 "ValveBiped.Bip01_L_Finger4" 100
111 "ValveBiped.Bip01_L_Finger41" 110
112 "ValveBiped.Bip01_L_Finger42" 111
113 "ValveBiped.Bip01_L_Finger3" 100
114 "ValveBiped.Bip01_L_Finger31" 113
115 "ValveBiped.Bip01_L_Finger32" 114
116 "ValveBiped.Bip01_R_Clavicle" 11
117 "ValveBiped.Bip01_R_UpperArm" 116
118 "ValveBiped.Bip01_R_Forearm" 117
119 "ValveBiped.Bip01_R_Hand" 118
120 "ValveBiped.Bip01_R_Finger2" 119
121 "ValveBiped.Bip01_R_Finger21" 120
122 "ValveBiped.Bip01_R_Finger22" 121
123 "ValveBiped.Bip01_R_Finger1" 119
124 "ValveBiped.Bip01_R_Finger11" 123
125 "ValveBiped.Bip01_R_Finger12" 124
126 "ValveBiped.Bip01_R_Finger0" 119
127 "ValveBiped.Bip01_R_Finger01" 126
128 "ValveBiped.Bip01_R_Finger02" 127
129 "ValveBiped.Bip01_R_Finger4" 119
130 "ValveBiped.Bip01_R_Finger41" 129
131 "ValveBiped.Bip01_R_Finger42" 130
132 "ValveBiped.Bip01_R_Finger3" 119
133 "ValveBiped.Bip01_R_Finger31" 132
134 "ValveBiped.Bip01_R_Finger32" 133
135 "lPectoral" 10
136 "rPectoral" 10
137 "Front Cloth" 10
138 "Front Cloth.001" 137
139 "Front Cloth.002" 138
140 "Front Cloth.003" 139
141 "Front Cloth.004" 140
end
skeleton
time 0
0  -0.000005 -0.000003 6.850014  1.570796 0.000000 0.000000
1  0.002636 43.025146 0.734438  1.491356 0.092054 -0.179620
2  3.061858 -4.181011 -0.610802  -2.873241 -0.094249 -1.080503
3  18.476774 0.000158 0.000000  0.002639 -0.038909 0.505741
4  17.490082 0.000119 0.000000  -0.035211 -0.100466 -1.011906
5  -3.065330 -4.183574 -0.611481  -0.098981 -0.384551 -2.280058
6  18.474855 -0.000033 -0.000007  0.026625 0.097397 1.329142
7  17.489584 0.001915 -0.000008  -0.333612 -0.039067 -0.984034
8  -0.000117 -0.048881 -0.576229  1.628738 0.204044 1.563472
9  3.224484 0.767047 0.000495  0.043280 -0.014331 -0.040946
10  3.223908 0.226404 -0.001944  0.108439 -0.061732 0.581466
11  5.187319 -1.262563 -0.001177  0.000012 0.000066 0.194111
12  6.928412 -1.935311 -0.000228  2.085828 0.081335 0.311367
13  3.236363 1.079612 0.000058  1.999662 -0.183971 0.323789
14  0.833763 3.805352 0.692954  -0.040494 0.554888 1.469868
15  0.000032 6.792210 0.000039  0.007991 0.036069 -0.011407
16  -0.000063 7.744816 0.000018  -0.017443 -0.155302 0.068153
17  0.000073 7.809703 0.000017  -0.033636 0.005024 0.006140
18  -0.000021 7.867674 0.000014  -0.073330 -0.127910 0.026377
19  3.494703 -1.749091 -3.006912  0.152560 2.070403 1.936951
20  0.000119 4.478323 0.000015  -0.194659 0.310437 -0.234992
21  0.000049 4.636118 -0.000025  0.035818 0.324597 -0.151769
22  -0.000042 5.008652 0.000015  0.076000 -0.286573 0.276087
23  0.000066 4.781167 0.000006  0.904411 -2.690893 -0.015800
24  2.253041 1.989059 -3.350108  -1.523648 1.324499 0.112382
25  0.000162 6.589462 0.000171  0.206353 -0.002128 -0.080394
26  0.000048 7.491416 0.000041  -0.333512 0.184453 -0.191165
27  0.000025 7.660306 -0.000056  -0.063174 0.127194 -0.062122
28  0.000011 7.256266 0.000024  -0.052940 -0.487828 0.313817
29  -0.791156 2.265118 -1.234653  -0.753911 1.136377 0.824660
30  -0.000257 8.572266 -0.000091  -0.222845 -0.296787 0.176507
31  -0.000094 8.117211 0.000048  0.072258 0.772521 -0.285588
32  -0.000084 8.230032 -0.000069  -0.080490 -0.347232 0.072254
33  0.000054 7.366717 0.000051  -0.015395 -0.663893 0.062744
34  0.224217 0.240128 -3.218161  -0.877428 1.468893 0.577779
35  -0.000094 7.721055 -0.000307  -0.283826 0.060497 -0.167555
36  -0.000031 7.374849 -0.000001  0.007536 -0.195022 0.049538
37  0.000072 6.848104 0.000009  0.005484 0.006495 -0.033649
38  -0.000049 7.777863 0.000008  -0.186096 0.182474 -0.152845
39  -1.514467 2.104649 -1.150171  -0.029092 0.541321 1.555673
40  -0.000163 6.982348 -0.000077  -0.199700 -0.041210 0.153490
41  0.000043 8.382861 -0.000071  0.044865 0.587986 -0.257961
42  0.000010 8.697703 -0.000026  -0.102637 -0.474317 0.290944
43  0.000059 8.921806 -0.000005  -0.076260 0.581004 -0.195608
44  1.196195 2.899155 -2.353086  -0.449723 1.030105 1.287423
45  0.000103 5.476941 0.000006  0.285574 -0.099353 -0.038446
46  -0.000071 6.060442 -0.000090  -0.155022 -0.575027 0.384609
47  0.000015 5.994260 0.000034  0.033942 0.288574 -0.067727
48  -0.000007 6.100488 0.000001  -0.068404 0.299271 -0.162152
49  0.000034 6.916760 0.000010  -0.096315 0.220532 -0.107967
50  0.000149 6.435060 -0.000045  -0.037460 0.171631 -0.116571
51  1.092800 3.649512 -1.738795  -0.148600 0.876612 1.445020
52  -0.000127 6.792198 -0.000102  0.008284 0.107792 -0.048643
53  -0.000082 7.744775 -0.000030  0.057137 -0.256893 0.015458
54  0.000092 9.115022 -0.000039  -0.020393 0.256253 -0.142636
55  3.494518 -1.749100 3.007060  0.118402 1.106975 1.813811
56  0.000018 4.323835 0.000086  -0.229907 -0.770938 0.449224
57  0.000028 4.872895 -0.000025  0.367244 -0.664052 -0.254034
58  0.000004 5.056649 0.000098  -0.511240 0.856585 -0.546324
59  2.292469 1.708616 3.661674  -1.762540 1.789108 -0.218951
60  -0.000175 6.589440 0.000274  -0.007130 -0.169125 0.176911
61  0.000175 7.491493 -0.000150  -0.132412 -0.107098 0.179326
62  -0.000139 8.249660 0.000143  0.041912 -0.058209 0.015814
63  0.000070 8.605236 -0.000027  0.101585 0.501824 -0.079696
64  -0.240483 2.066073 2.349267  -0.357330 2.461717 1.296080
65  -0.000087 7.721105 -0.000002  -0.208229 -0.126223 -0.116497
66  -0.000120 7.374864 -0.000047  -0.111017 0.046939 -0.046463
67  -0.000036 6.848062 -0.000023  0.273532 0.247525 0.299907
68  0.000034 7.777823 -0.000041  0.072920 0.186146 -0.052688
69  -0.000086 8.178052 0.000012  -0.087030 -0.422849 -0.381356
70  1.617605 3.431412 2.399265  -0.249454 2.569519 1.508570
71  -0.000163 5.476941 -0.000029  0.057730 0.074073 0.060284
72  -0.000093 6.060493 -0.000011  -0.015204 0.015650 -0.152065
73  0.000025 5.994251 0.000012  -0.126213 -0.157658 0.153303
74  -0.000078 7.076873 -0.000047  -0.008118 0.010385 0.036400
75  0.000003 7.089869 -0.000077  0.070875 0.098587 -0.025893
76  0.361112 0.886682 3.287746  -0.576365 1.978712 0.939018
77  -0.000071 6.686643 0.000221  -0.146568 0.414163 -0.327705
78  -0.000011 7.638021 0.000010  -0.079523 -0.025948 0.130956
79  -0.000032 7.290229 -0.000024  0.025325 -0.093908 0.023963
80  -0.000033 6.530365 0.000013  -0.261848 -0.300600 0.006734
81  0.000062 7.224879 0.000005  0.036505 0.032481 -0.175825
82  1.071900 3.225797 1.570114  -0.043806 2.859978 1.526246
83  0.000414 6.748899 -0.000061  -0.062703 0.083783 0.022202
84  -0.000046 8.002643 0.000021  -0.067496 -0.117208 -0.115599
85  0.000013 8.580570 -0.000101  0.088214 -0.007187 0.334604
86  0.000167 8.689827 -0.000048  0.065324 -0.412430 -0.134517
87  -1.514533 2.104639 0.318057  -0.024895 3.094491 1.569492
88  0.000195 6.982284 0.000004  -0.107589 -0.057623 -0.215719
89  -0.000007 8.382873 -0.000064  0.135032 -0.099913 0.287074
90  -0.000060 8.697670 0.000019  -0.148092 -0.510100 0.044840
91  -0.000137 8.921824 0.000078  -0.236827 -0.892637 0.098803
92  3.553616 -3.478045 2.409276  0.000819 0.762050 1.535307
93  0.000004 4.476903 -0.000008  -0.151004 -0.588332 0.377260
94  0.000026 4.514121 -0.000020  -0.228867 -2.996195 0.592372
95  0.000046 4.518383 -0.000021  0.143177 2.612772 0.693390
96  0.000023 3.598329 0.000025  -0.749308 0.869856 -0.773234
97  4.209919 -0.440346 1.018823  -0.356066 -2.811227 -0.699886
98  4.265508 1.434235 -0.404993  -2.931088 -0.816007 -0.113243
99  9.400235 0.017943 0.083202  0.102468 -0.046408 -1.800828
100  10.242419 0.033590 0.064478  2.048876 -0.449439 -0.267862
101  3.465856 -0.059676 0.016694  0.022681 0.059289 -0.655974
102  1.655596 -0.000023 0.000025  0.023356 -0.131464 -0.394594
103  0.960771 -0.000002 -0.000006  0.073097 0.029136 -0.210781
104  3.462028 -0.064243 0.939909  0.402237 -0.062841 -0.817926
105  1.497177 -0.000008 0.000019  -0.488360 -0.026478 -0.162819
106  0.793757 0.000004 -0.000000  -0.026154 0.027547 -0.361740
107  0.591664 -0.460689 0.835206  -1.341195 -0.633336 -0.438217
108  1.556140 0.000005 0.000000  -0.346323 0.153116 0.467883
109  1.135907 0.000016 0.000005  0.135668 -0.022218 0.450162
110  3.084269 -0.668819 -1.257084  -0.010955 0.238130 -0.282210
111  1.064203 -0.000003 0.000006  0.003605 0.094519 -0.677205
112  0.640337 0.000005 -0.000006  -0.216844 -0.024846 -0.172451
113  3.396823 -0.242137 -0.708689  0.042932 0.134558 -0.479740
114  1.532967 0.000008 0.000006  0.017536 0.000433 -0.532473
115  0.832975 -0.000003 -0.000004  -0.098809 -0.069767 -0.463960
116  4.209941 -0.440342 -1.019279  -0.154521 0.442493 -1.913979
117  4.266744 1.424941 0.424936  -2.749221 0.811766 0.316152
118  9.398565 0.011951 -0.082516  -0.066876 0.069759 -1.223230
119  10.242436 0.028177 -0.062912  -2.141406 -0.153467 -0.346290
120  3.465753 -0.067525 0.002275  -0.063470 0.047339 -0.221352
121  1.655560 0.000010 0.000004  0.005073 0.064100 -0.017632
122  0.960909 0.000004 0.000002  -0.073922 -0.038093 -0.139126
123  3.466858 -0.077778 -0.920898  -0.382717 0.215387 -0.127088
124  1.497258 -0.000035 -0.000019  -0.416730 -0.017607 -0.055965
125  0.793789 -0.000007 -0.000003  0.013905 0.007239 -0.280501
126  0.595084 -0.467148 -0.829165  2.684700 0.790127 0.237419
127  1.555674 0.000017 -0.000003  0.488875 0.066613 0.432052
128  1.136809 -0.000010 -0.000000  -0.065021 0.252489 0.368636
129  3.075981 -0.667964 1.277712  0.150347 -0.273866 -0.044564
130  1.064595 0.000021 0.000015  -0.042764 -0.038867 -0.079245
131  0.640365 -0.000016 -0.000007  0.210760 0.042338 -0.317970
132  3.392413 -0.245368 0.728384  -0.101819 -0.176455 -0.239008
133  1.532735 -0.000009 -0.000002  -0.013607 -0.006027 0.086390
134  0.833152 0.000009 0.000000  0.085068 0.082876 -0.602309
135  3.590107 -3.090302 1.193972  1.635457 1.210566 1.548541
136  3.589557 -3.089885 -1.196373  -1.505736 1.210473 -1.592853
137  -0.436563 4.719021 -0.001076  -0.000635 -1.570733 1.692959
138  -0.000000 2.775455 -0.000236  -0.135089 0.000001 0.000000
139  -0.000000 3.189767 0.000007  0.207820 -0.000000 0.000000
140  0.000000 3.504651 0.000047  -0.261876 0.000000 -0.000000
141  -0.000000 2.863200 -0.000006  -0.051268 0.000000 -0.000000
time 1
0  -0.000005 -0.000003 6.850014  1.570796 0.000000 0.000000
1  0.002636 43.025146 0.734438  1.491356 0.092054 -0.179620
2  3.061857 -4.181011 -0.610802  -2.873241 -0.094248 -1.080503
3  18.476772 0.000160 -0.000005  0.002639 -0.038909 0.505741
4  17.490082 0.000120 -0.000000  -0.035211 -0.100466 -1.011906
5  -3.065330 -4.183575 -0.611481  -0.098981 -0.384551 -2.280058
6  18.474854 -0.000033 -0.000011  0.026625 0.097397 1.329142
7  17.489582 0.001915 -0.000008  -0.333612 -0.039067 -0.984034
8  -0.000117 -0.048881 -0.576229  1.628738 0.204044 1.563472
9  3.224482 0.767047 0.000495  0.043280 -0.014331 -0.040946
10  3.223908 0.226404 -0.001945  0.108439 -0.061732 0.581466
11  5.187318 -1.262563 -0.001177  0.000012 0.000066 0.194111
12  6.928412 -1.935312 -0.000228  2.085828 0.081335 0.311367
13  3.236361 1.079611 0.000058  1.999662 -0.183971 0.323789
14  0.833763 3.805351 0.692960  -0.040494 0.554888 1.469868
15  0.000033 6.792207 0.000041  0.007991 0.036069 -0.011407
16  -0.000072 7.744815 0.000017  -0.017443 -0.155302 0.068153
17  0.000074 7.809703 0.000015  -0.033636 0.005024 0.006140
18  -0.000029 7.867671 0.000015  -0.073330 -0.127910 0.026377
19  3.494701 -1.749096 -3.006911  0.152560 2.070403 1.936951
20  0.000120 4.478322 0.000017  -0.194659 0.310437 -0.234992
21  0.000047 4.636116 -0.000027  0.035818 0.324597 -0.151769
22  -0.000043 5.008651 0.000012  0.076000 -0.286573 0.276087
23  0.000064 4.781165 0.000007  0.904411 -2.690893 -0.015800
24  2.253039 1.989057 -3.350106  -1.523648 1.324499 0.112382
25  0.000165 6.589467 0.000169  0.206353 -0.002128 -0.080394
26  0.000046 7.491413 0.000042  -0.333512 0.184453 -0.191165
27  0.000029 7.660304 -0.000049  -0.063174 0.127194 -0.062122
28  0.000012 7.256272 0.000018  -0.052940 -0.487828 0.313817
29  -0.791159 2.265117 -1.234651  -0.753911 1.136377 0.824660
30  -0.000258 8.572263 -0.000091  -0.222845 -0.296787 0.176507
31  -0.000099 8.117216 0.000048  0.072258 0.772521 -0.285588
32  -0.000083 8.230036 -0.000072  -0.080490 -0.347232 0.072254
33  0.000051 7.366714 0.000055  -0.015395 -0.663893 0.062744
34  0.224215 0.240125 -3.218155  -0.877428 1.468893 0.577779
35  -0.000099 7.721055 -0.000310  -0.283826 0.060497 -0.167555
36  -0.000030 7.374856 -0.000001  0.007536 -0.195022 0.049538
37  0.000073 6.848104 0.000010  0.005484 0.006495 -0.033649
38  -0.000045 7.777861 0.000009  -0.186096 0.182474 -0.152845
39  -1.514469 2.104647 -1.150165  -0.029092 0.541321 1.555673
40  -0.000172 6.982348 -0.000077  -0.199700 -0.041210 0.153490
41  0.000040 8.382866 -0.000069  0.044865 0.587986 -0.257961
42  0.000010 8.697703 -0.000026  -0.102637 -0.474317 0.290945
43  0.000057 8.921803 -0.000003  -0.076260 0.581004 -0.195608
44  1.196193 2.899153 -2.353085  -0.449723 1.030105 1.287423
45  0.000107 5.476941 0.000006  0.285574 -0.099353 -0.038446
46  -0.000074 6.060435 -0.000091  -0.155022 -0.575027 0.384609
47  0.000019 5.994260 0.000027  0.033942 0.288574 -0.067727
48  -0.000011 6.100486 0.000002  -0.068404 0.299271 -0.162152
49  0.000037 6.916760 0.000009  -0.096315 0.220532 -0.107967
50  0.000148 6.435061 -0.000044  -0.037460 0.171631 -0.116571
51  1.092796 3.649510 -1.738788  -0.148600 0.876612 1.445020
52  -0.000125 6.792203 -0.000101  0.008284 0.107792 -0.048643
53  -0.000085 7.744776 -0.000031  0.057137 -0.256893 0.015458
54  0.000083 9.115024 -0.000037  -0.020393 0.256253 -0.142636
55  3.494516 -1.749103 3.007064  0.118403 1.106975 1.813811
56  0.000012 4.323836 0.000086  -0.229907 -0.770938 0.449224
57  0.000029 4.872895 -0.000020  0.367244 -0.664052 -0.254034
58  0.000003 5.056652 0.000094  -0.511240 0.856585 -0.546324
59  2.292467 1.708613 3.661679  -1.762539 1.789108 -0.218951
60  -0.000167 6.589444 0.000275  -0.007130 -0.169125 0.176911
61  0.000168 7.491497 -0.000152  -0.132412 -0.107098 0.179326
62  -0.000139 8.249660 0.000143  0.041912 -0.058209 0.015814
63  0.000076 8.605236 -0.000026  0.101585 0.501824 -0.079696
64  -0.240485 2.066070 2.349271  -0.357330 2.461717 1.296080
65  -0.000086 7.721105 -0.000008  -0.208229 -0.126223 -0.116497
66  -0.000121 7.374866 -0.000051  -0.111017 0.046939 -0.046463
67  -0.000037 6.848062 -0.000032  0.273532 0.247525 0.299907
68  0.000035 7.777823 -0.000042  0.072920 0.186146 -0.052688
69  -0.000084 8.178053 0.000010  -0.087030 -0.422849 -0.381357
70  1.617602 3.431408 2.399267  -0.249454 2.569519 1.508570
71  -0.000164 5.476945 -0.000028  0.057730 0.074073 0.060284
72  -0.000093 6.060495 -0.000003  -0.015204 0.015650 -0.152065
73  0.000026 5.994249 0.000008  -0.126214 -0.157658 0.153303
74  -0.000078 7.076874 -0.000043  -0.008118 0.010385 0.036400
75  0.000004 7.089868 -0.000071  0.070875 0.098587 -0.025893
76  0.361114 0.886680 3.287750  -0.576365 1.978712 0.939018
77  -0.000068 6.686643 0.000224  -0.146568 0.414164 -0.327705
78  -0.000012 7.638016 0.000014  -0.079523 -0.025948 0.130956
79  -0.000033 7.290228 -0.000025  0.025325 -0.093908 0.023963
80  -0.000033 6.530368 0.000003  -0.261848 -0.300600 0.006734
81  0.000065 7.224881 0.000012  0.036505 0.032481 -0.175825
82  1.071896 3.225796 1.570116  -0.043806 2.859978 1.526246
83  0.000415 6.748901 -0.000067  -0.062703 0.083783 0.022202
84  -0.000044 8.002645 0.000025  -0.067496 -0.117208 -0.115599
85  0.000012 8.580572 -0.000101  0.088214 -0.007187 0.334604
86  0.000169 8.689831 -0.000041  0.065324 -0.412430 -0.134517
87  -1.514536 2.104636 0.318059  -0.024895 3.094492 1.569492
88  0.000195 6.982283 0.000005  -0.107589 -0.057623 -0.215719
89  -0.000005 8.382873 -0.000067  0.135032 -0.099913 0.287074
90  -0.000060 8.697669 0.000019  -0.148092 -0.510100 0.044840
91  -0.000136 8.921825 0.000077  -0.236827 -0.892637 0.098803
92  3.553616 -3.478047 2.409281  0.000819 0.762050 1.535307
93  0.000001 4.476904 -0.000006  -0.151004 -0.588332 0.377260
94  0.000032 4.514121 -0.000020  -0.228867 -2.996195 0.592372
95  0.000046 4.518383 -0.000020  0.143177 2.612772 0.693390
96  0.000023 3.598330 0.000025  -0.749308 0.869856 -0.773234
97  4.209920 -0.440347 1.018824  -0.356066 -2.811227 -0.699886
98  4.265505 1.434235 -0.404991  -2.931088 -0.816007 -0.113243
99  9.400234 0.017947 0.083203  0.102468 -0.046408 -1.800828
100  10.242420 0.033590 0.064479  2.048876 -0.449439 -0.267862
101  3.465856 -0.059676 0.016694  0.022681 0.059289 -0.655974
102  1.655596 -0.000021 0.000022  0.023356 -0.131464 -0.394594
103  0.960769 -0.000002 -0.000006  0.073097 0.029136 -0.210781
104  3.462029 -0.064244 0.939909  0.402237 -0.062841 -0.817926
105  1.497177 -0.000009 0.000020  -0.488360 -0.026478 -0.162819
106  0.793758 0.000004 0.000001  -0.026154 0.027547 -0.361740
107  0.591663 -0.460690 0.835205  -1.341195 -0.633336 -0.438218
108  1.556139 0.000001 0.000000  -0.346323 0.153116 0.467883
109  1.135907 0.000017 0.000004  0.135668 -0.022218 0.450162
110  3.084269 -0.668819 -1.257085  -0.010955 0.238130 -0.282210
111  1.064202 -0.000004 0.000005  0.003605 0.094519 -0.677205
112  0.640337 0.000005 -0.000008  -0.216844 -0.024846 -0.172451
113  3.396823 -0.242136 -0.708689  0.042932 0.134558 -0.479740
114  1.532966 0.000010 0.000004  0.017536 0.000433 -0.532473
115  0.832978 -0.000003 -0.000003  -0.098809 -0.069767 -0.463961
116  4.209941 -0.440342 -1.019279  -0.154521 0.442494 -1.913979
117  4.266747 1.424942 0.424938  -2.749221 0.811766 0.316152
118  9.398565 0.011951 -0.082520  -0.066876 0.069759 -1.223230
119  10.242440 0.028178 -0.062907  -2.141406 -0.153467 -0.346290
120  3.465749 -0.067527 0.002276  -0.063470 0.047339 -0.221352
121  1.655561 0.000007 0.000004  0.005073 0.064100 -0.017633
122  0.960911 0.000004 -0.000002  -0.073922 -0.038093 -0.139126
123  3.466855 -0.077780 -0.920901  -0.382717 0.215387 -0.127088
124  1.497256 -0.000035 -0.000016  -0.416730 -0.017607 -0.055965
125  0.793786 -0.000009 0.000002  0.013905 0.007239 -0.280501
126  0.595080 -0.467149 -0.829165  2.684701 0.790127 0.237419
127  1.555675 0.000014 -0.000006  0.488875 0.066613 0.432052
128  1.136812 -0.000008 -0.000004  -0.065021 0.252489 0.368636
129  3.075973 -0.667965 1.277712  0.150347 -0.273866 -0.044564
130  1.064595 0.000019 0.000012  -0.042764 -0.038867 -0.079245
131  0.640361 -0.000013 -0.000000  0.210760 0.042338 -0.317970
132  3.392413 -0.245371 0.728381  -0.101819 -0.176455 -0.239008
133  1.532737 -0.000008 -0.000001  -0.013607 -0.006027 0.086390
134  0.833152 0.000009 0.000003  0.085068 0.082876 -0.602309
135  3.590107 -3.090302 1.193972  1.635457 1.210566 1.548541
136  3.589557 -3.089885 -1.196373  -1.505736 1.210473 -1.592853
137  -0.436563 4.719021 -0.001076  -0.000561 -1.570733 1.693134
138  0.000000 2.775455 -0.000236  -0.135089 0.000001 -0.000000
139  -0.000000 3.189769 0.000007  0.207820 -0.000000 0.000000
140  -0.000000 3.504651 0.000047  -0.261876 0.000000 -0.000000
141  -0.000000 2.863201 -0.000006  -0.051268 0.000000 -0.000000
end
