version 1
nodes
0 "ValveBiped.Bip01" -1
1 "ValveBiped.Bip01_Pelvis" 0
2 "ValveBiped.Bip01_L_Thigh" 1
3 "ValveBiped.Bip01_L_Calf" 2
4 "ValveBiped.Bip01_L_Foot" 3
5 "ValveBiped.Bip01_R_Thigh" 1
6 "ValveBiped.Bip01_R_Calf" 5
7 "ValveBiped.Bip01_R_Foot" 6
8 "ValveBiped.Bip01_Spine" 1
9 "ValveBiped.Bip01_Spine1" 8
10 "ValveBiped.Bip01_Spine2" 9
11 "ValveBiped.Bip01_Spine4" 10
12 "ValveBiped.Bip01_Neck1" 11
13 "ValveBiped.Bip01_Head1" 12
14 "HBN_CK01" 13
15 "HBN_CK02" 14
16 "HBN_CK03" 15
17 "HBN_CK04" 16
18 "HBN_CK05" 17
19 "HBn_LF01" 13
20 "HBn_LF02" 19
21 "HBn_LF03" 20
22 "HBn_LF04" 21
23 "HBn_LF05" 22
24 "HBN_LMA01" 13
25 "HBN_LMA02" 24
26 "HBN_LMA03" 25
27 "HBN_LMA04" 26
28 "HBN_LMA05" 27
29 "HBN_LMB01" 13
30 "HBN_LMB02" 29
31 "HBN_LMB03" 30
32 "HBN_LMB04" 31
33 "HBN_LMB05" 32
34 "HBN_LMC01" 13
35 "HBN_LMC02" 34
36 "HBN_LMC03" 35
37 "HBN_LMC04" 36
38 "HBN_LMC05" 37
39 "HBN_LMD01" 13
40 "HBN_LMD02" 39
41 "HBN_LMD03" 40
42 "HBN_LMD04" 41
43 "HBN_LMD05" 42
44 "HBN_LME01" 13
45 "HBN_LME02" 44
46 "HBN_LME03" 45
47 "HBN_LME04" 46
48 "HBN_LME05" 47
49 "HBN_LME06" 48
50 "HBN_LME07" 49
51 "HBN_LMF01" 13
52 "HBN_LMF02" 51
53 "HBN_LMF03" 52
54 "HBN_LMF04" 53
55 "HBn_RF01" 13
56 "HBn_RF02" 55
57 "HBn_RF03" 56
58 "HBn_RF04" 57
59 "HBN_RMA01" 13
60 "HBN_RMA02" 59
61 "HBN_RMA03" 60
62 "HBN_RMA04" 61
63 "HBN_RMA05" 62
64 "HBN_RMB01" 13
65 "HBN_RMB02" 64
66 "HBN_RMB03" 65
67 "HBN_RMB04" 66
68 "HBN_RMB05" 67
69 "HBN_RMB06" 68
70 "HBN_RMC01" 13
71 "HBN_RMC02" 70
72 "HBN_RMC03" 71
73 "HBN_RMC04" 72
74 "HBN_RMC05" 73
75 "HBN_RMC06" 74
76 "HBN_RMD01" 13
77 "HBN_RMD02" 76
78 "HBN_RMD03" 77
79 "HBN_RMD04" 78
80 "HBN_RMD05" 79
81 "HBN_RMD06" 80
82 "HBN_RME01" 13
83 "HBN_RME02" 82
84 "HBN_RME03" 83
85 "HBN_RME04" 84
86 "HBN_RME05" 85
87 "HBN_RMF01" 13
88 "HBN_RMF02" 87
89 "HBN_RMF03" 88
90 "HBN_RMF04" 89
91 "HBN_RMF05" 90
92 "HBn_RFF01" 13
93 "HBn_RFF02" 92
94 "HBn_RFF03" 93
95 "HBn_RFF04" 94
96 "HBn_RFF05" 95
97 "ValveBiped.Bip01_L_Clavicle" 11
98 "ValveBiped.Bip01_L_UpperArm" 97
99 "ValveBiped.Bip01_L_Forearm" 98
100 "ValveBiped.Bip01_L_Hand" 99
101 "ValveBiped.Bip01_L_Finger2" 100
102 "ValveBiped.Bip01_L_Finger21" 101
103 "ValveBiped.Bip01_L_Finger22" 102
104 "ValveBiped.Bip01_L_Finger1" 100
105 "ValveBiped.Bip01_L_Finger11" 104
106 "ValveBiped.Bip01_L_Finger12" 105
107 "ValveBiped.Bip01_L_Finger0" 100
108 "ValveBiped.Bip01_L_Finger01" 107
109 "ValveBiped.Bip01_L_Finger02" 108
110 "ValveBiped.Bip01_L_Finger4" 100
111 "ValveBiped.Bip01_L_Finger41" 110
112 "ValveBiped.Bip01_L_Finger42" 111
113 "ValveBiped.Bip01_L_Finger3" 100
114 "ValveBiped.Bip01_L_Finger31" 113
115 "ValveBiped.Bip01_L_Finger32" 114
116 "ValveBiped.Bip01_R_Clavicle" 11
117 "ValveBiped.Bip01_R_UpperArm" 116
118 "ValveBiped.Bip01_R_Forearm" 117
119 "ValveBiped.Bip01_R_Hand" 118
120 "ValveBiped.Bip01_R_Finger2" 119
121 "ValveBiped.Bip01_R_Finger21" 120
122 "ValveBiped.Bip01_R_Finger22" 121
123 "ValveBiped.Bip01_R_Finger1" 119
124 "ValveBiped.Bip01_R_Finger11" 123
125 "ValveBiped.Bip01_R_Finger12" 124
126 "ValveBiped.Bip01_R_Finger0" 119
127 "ValveBiped.Bip01_R_Finger01" 126
128 "ValveBiped.Bip01_R_Finger02" 127
129 "ValveBiped.Bip01_R_Finger4" 119
130 "ValveBiped.Bip01_R_Finger41" 129
131 "ValveBiped.Bip01_R_Finger42" 130
132 "ValveBiped.Bip01_R_Finger3" 119
133 "ValveBiped.Bip01_R_Finger31" 132
134 "ValveBiped.Bip01_R_Finger32" 133
135 "lPectoral" 10
136 "rPectoral" 10
137 "Front Cloth" 10
138 "Front Cloth.001" 137
139 "Front Cloth.002" 138
140 "Front Cloth.003" 139
141 "Front Cloth.004" 140
end
skeleton
time 0
0  -0.000000 -0.002784 42.000000  1.570862 0.000000 -0.000000
1  0.002636 43.025146 0.734438  2.363932 -0.281766 0.218636
2  3.061859 -4.181012 -0.610803  1.096353 -0.945597 1.775972
3  18.476774 0.000159 -0.000001  -0.118537 -0.106148 2.526886
4  17.490088 0.000118 0.000004  0.096765 0.142601 -1.217154
5  -3.065328 -4.183578 -0.611480  -1.505256 -0.241771 -1.780156
6  18.474857 -0.000032 -0.000009  0.003935 0.002057 0.045053
7  17.489584 0.001908 -0.000007  -0.212865 -0.222395 -1.065493
8  -0.000115 -0.048881 -0.576225  1.461951 0.219392 1.547451
9  3.224488 0.767052 0.000494  -0.079238 -0.081673 0.037619
10  3.223913 0.226402 -0.001945  -0.025762 -0.030433 0.024330
11  5.187320 -1.262564 -0.001176  0.000012 0.000066 0.194111
12  6.928410 -1.935313 -0.000227  -3.097428 0.004137 0.422876
13  3.236364 1.079612 0.000056  -0.075760 0.056465 1.056435
14  0.833761 3.805355 0.692955  -0.040492 0.554884 1.469873
15  0.000042 6.792207 0.000044  0.007991 0.036070 -0.011408
16  -0.000065 7.744816 0.000017  -0.017442 -0.155305 0.068152
17  0.000073 7.809702 0.000019  -0.033636 0.005026 0.006141
18  -0.000031 7.867671 0.000019  -0.073330 -0.127909 0.026376
19  3.494700 -1.749093 -3.006912  0.152545 2.070419 1.936947
20  0.000118 4.478323 0.000017  -0.194651 0.310432 -0.234993
21  0.000048 4.636119 -0.000030  0.035820 0.324591 -0.151769
22  -0.000041 5.008652 0.000011  0.075994 -0.286563 0.276092
23  0.000063 4.781164 0.000008  0.904403 -2.690903 -0.015798
24  2.253041 1.989058 -3.350106  -1.523630 1.324498 0.112401
25  0.000162 6.589464 0.000168  0.206354 -0.002129 -0.080395
26  0.000042 7.491414 0.000040  -0.333512 0.184455 -0.191167
27  0.000024 7.660304 -0.000053  -0.063177 0.127194 -0.062117
28  0.000006 7.256270 0.000023  -0.052939 -0.487830 0.313812
29  -0.791159 2.265119 -1.234655  -0.753899 1.136377 0.824674
30  -0.000258 8.572264 -0.000090  -0.222842 -0.296789 0.176502
31  -0.000095 8.117212 0.000048  0.072255 0.772520 -0.285588
32  -0.000082 8.230034 -0.000075  -0.080491 -0.347232 0.072253
33  0.000062 7.366723 0.000056  -0.015395 -0.663893 0.062742
34  0.224219 0.240128 -3.218158  -0.877383 1.468889 0.577824
35  -0.000101 7.721051 -0.000308  -0.283828 0.060497 -0.167555
36  -0.000030 7.374854 0.000002  0.007537 -0.195021 0.049539
37  0.000077 6.848103 0.000010  0.005484 0.006496 -0.033649
38  -0.000052 7.777863 0.000009  -0.186096 0.182474 -0.152846
39  -1.514466 2.104650 -1.150167  -0.029088 0.541319 1.555678
40  -0.000165 6.982349 -0.000075  -0.199702 -0.041212 0.153490
41  0.000040 8.382863 -0.000071  0.044866 0.587987 -0.257962
42  0.000012 8.697700 -0.000025  -0.102638 -0.474318 0.290946
43  0.000058 8.921805 -0.000002  -0.076259 0.581004 -0.195606
44  1.196193 2.899156 -2.353086  -0.449716 1.030105 1.287428
45  0.000106 5.476941 0.000007  0.285574 -0.099352 -0.038446
46  -0.000076 6.060435 -0.000089  -0.155030 -0.575031 0.384612
47  0.000015 5.994261 0.000030  0.033946 0.288575 -0.067729
48  -0.000007 6.100485 0.000003  -0.068403 0.299274 -0.162151
49  0.000034 6.916758 0.000010  -0.096316 0.220533 -0.107966
50  0.000148 6.435059 -0.000047  -0.037458 0.171630 -0.116574
51  1.092797 3.649511 -1.738794  -0.148600 0.876612 1.445020
52  -0.000130 6.792200 -0.000102  0.008284 0.107792 -0.048643
53  -0.000085 7.744778 -0.000032  0.057137 -0.256893 0.015458
54  0.000087 9.115020 -0.000037  -0.020393 0.256253 -0.142636
55  3.494518 -1.749102 3.007063  0.118402 1.106974 1.813811
56  0.000016 4.323835 0.000088  -0.229905 -0.770942 0.449225
57  0.000030 4.872901 -0.000021  0.367238 -0.664053 -0.254030
58  0.000007 5.056652 0.000091  -0.511237 0.856586 -0.546324
59  2.292466 1.708614 3.661675  -1.762558 1.789111 -0.218971
60  -0.000173 6.589442 0.000276  -0.007132 -0.169123 0.176907
61  0.000174 7.491495 -0.000151  -0.132414 -0.107098 0.179329
62  -0.000138 8.249660 0.000144  0.041913 -0.058208 0.015815
63  0.000072 8.605238 -0.000024  0.101586 0.501824 -0.079696
64  -0.240486 2.066073 2.349267  -0.357331 2.461714 1.296081
65  -0.000088 7.721104 -0.000002  -0.208230 -0.126223 -0.116496
66  -0.000122 7.374865 -0.000049  -0.111018 0.046939 -0.046463
67  -0.000033 6.848062 -0.000027  0.273532 0.247522 0.299909
68  0.000034 7.777824 -0.000044  0.072921 0.186148 -0.052690
69  -0.000085 8.178057 0.000010  -0.087029 -0.422849 -0.381357
70  1.617603 3.431410 2.399265  -0.249454 2.569515 1.508572
71  -0.000163 5.476943 -0.000028  0.057730 0.074071 0.060285
72  -0.000091 6.060493 -0.000006  -0.015204 0.015650 -0.152065
73  0.000020 5.994250 0.000011  -0.126212 -0.157657 0.153303
74  -0.000079 7.076874 -0.000045  -0.008118 0.010385 0.036399
75  0.000005 7.089869 -0.000069  0.070875 0.098587 -0.025893
76  0.361111 0.886682 3.287746  -0.576374 1.978710 0.939011
77  -0.000066 6.686643 0.000219  -0.146569 0.414164 -0.327707
78  -0.000013 7.638020 0.000015  -0.079524 -0.025948 0.130955
79  -0.000034 7.290229 -0.000025  0.025325 -0.093908 0.023964
80  -0.000036 6.530367 0.000007  -0.261847 -0.300601 0.006735
81  0.000063 7.224879 0.000007  0.036505 0.032481 -0.175824
82  1.071896 3.225796 1.570115  -0.043809 2.859975 1.526248
83  0.000414 6.748901 -0.000066  -0.062702 0.083784 0.022202
84  -0.000043 8.002645 0.000028  -0.067495 -0.117209 -0.115601
85  0.000012 8.580572 -0.000095  0.088210 -0.007188 0.334605
86  0.000173 8.689833 -0.000042  0.065327 -0.412430 -0.134519
87  -1.514535 2.104637 0.318055  -0.024894 3.094490 1.569494
88  0.000191 6.982281 0.000011  -0.107590 -0.057625 -0.215719
89  -0.000010 8.382874 -0.000069  0.135033 -0.099914 0.287073
90  -0.000060 8.697671 0.000023  -0.148091 -0.510100 0.044839
91  -0.000136 8.921823 0.000079  -0.236828 -0.892636 0.098805
92  3.553615 -3.478046 2.409277  0.000819 0.762046 1.535311
93  -0.000000 4.476901 -0.000006  -0.151015 -0.588331 0.377258
94  0.000032 4.514122 -0.000023  -0.228876 -2.996207 0.592370
95  0.000042 4.518385 -0.000023  0.143175 2.612778 0.693384
96  0.000022 3.598329 0.000024  -0.749308 0.869849 -0.773235
97  4.209920 -0.440345 1.018824  -1.799567 -1.842667 0.040304
98  4.265505 1.434232 -0.404993  -2.384933 0.391673 -1.219262
99  9.400229 0.017940 0.083202  -0.016950 -0.032391 0.032390
100  10.242417 0.033591 0.064483  2.053042 -0.169223 -0.125685
101  3.465855 -0.059678 0.016696  -0.016089 0.105975 0.027194
102  1.655599 -0.000022 0.000019  0.040690 -0.198517 -0.918884
103  0.960768 -0.000007 -0.000010  0.018697 -0.077773 -0.787709
104  3.462026 -0.064246 0.939911  0.316648 -0.070174 0.031375
105  1.497180 -0.000009 0.000019  -0.465030 -0.145801 -0.359638
106  0.793758 0.000001 -0.000004  -0.023174 0.043630 -0.730043
107  0.591664 -0.460691 0.835208  -0.998976 -0.654565 -0.477416
108  1.556136 -0.000003 0.000001  -0.190373 0.081480 0.349972
109  1.135900 0.000021 0.000005  -0.017174 -0.043979 0.207747
110  3.084266 -0.668821 -1.257082  -0.570469 0.154711 -0.762372
111  1.064198 -0.000004 0.000006  -0.077902 0.129860 -1.490420
112  0.640336 0.000000 -0.000009  -0.043309 0.083917 -1.147870
113  3.396819 -0.242138 -0.708685  -0.276950 0.187593 -0.366796
114  1.532967 0.000011 0.000004  0.022485 -0.009571 -1.301201
115  0.832975 -0.000001 -0.000004  0.012311 0.002370 -1.308525
116  4.209944 -0.440341 -1.019279  2.007152 2.009826 0.221005
117  4.266747 1.424939 0.424941  2.004741 -0.413900 -1.083247
118  9.398566 0.011948 -0.082519  0.015376 0.033694 0.011023
119  10.242443 0.028175 -0.062907  -1.978007 0.157669 0.445144
120  3.465749 -0.067527 0.002268  -0.236666 0.250305 -1.664845
121  1.655560 0.000002 0.000003  -0.165763 0.184653 -1.176163
122  0.960903 0.000005 0.000000  -0.018934 0.176619 -0.890997
123  3.466860 -0.077781 -0.920910  -0.489683 0.120579 -1.699156
124  1.497261 -0.000035 -0.000025  -0.583150 0.323342 -1.032070
125  0.793782 -0.000008 0.000000  -0.224980 0.388706 -0.772652
126  0.595081 -0.467152 -0.829176  2.469572 0.673961 -0.723598
127  1.555676 0.000016 -0.000005  0.637662 0.520248 1.171332
128  1.136810 -0.000002 -0.000003  0.578349 0.458565 1.086122
129  3.075974 -0.667968 1.277701  0.602872 0.235138 -1.369519
130  1.064593 0.000018 0.000011  0.026752 -0.117391 -0.831401
131  0.640356 -0.000018 -0.000003  -0.104291 -0.023770 -0.471510
132  3.392411 -0.245369 0.728376  0.126351 0.325410 -1.762077
133  1.532739 -0.000009 -0.000001  0.007389 0.016566 -0.812465
134  0.833149 0.000011 0.000006  -0.082768 -0.069998 -1.040855
135  3.590111 -3.090297 1.193973  1.635457 1.210566 1.548541
136  3.589559 -3.089880 -1.196372  -1.505736 1.210473 -1.592853
137  -0.436560 4.719023 -0.001075  -0.000650 -1.570733 1.692975
138  -0.000000 2.775449 -0.000240  -0.135089 0.000001 -0.000000
139  0.000001 3.189771 0.000010  0.207820 -0.000000 0.000000
140  0.000000 3.504652 0.000050  -0.261876 0.000000 -0.000000
141  -0.000000 2.863203 -0.000002  -0.051268 0.000000 -0.000000
time 1
0  -0.000000 -0.002784 42.000000  1.570862 0.000000 -0.000000
1  0.002636 43.025146 0.734438  2.363932 -0.281766 0.218636
2  3.061859 -4.181012 -0.610803  1.096353 -0.945597 1.775972
3  18.476774 0.000159 -0.000001  -0.118537 -0.106148 2.526886
4  17.490088 0.000118 0.000004  0.096765 0.142601 -1.217154
5  -3.065328 -4.183578 -0.611480  -1.505256 -0.241771 -1.780156
6  18.474857 -0.000032 -0.000009  0.003935 0.002057 0.045053
7  17.489584 0.001908 -0.000007  -0.212865 -0.222395 -1.065493
8  -0.000115 -0.048881 -0.576225  1.461951 0.219392 1.547451
9  3.224488 0.767052 0.000494  -0.079238 -0.081673 0.037619
10  3.223913 0.226402 -0.001945  -0.025762 -0.030433 0.024330
11  5.187320 -1.262564 -0.001176  0.000012 0.000066 0.194111
12  6.928410 -1.935313 -0.000227  -3.097428 0.004137 0.422876
13  3.236364 1.079612 0.000056  -0.075760 0.056465 1.056435
14  0.833761 3.805355 0.692955  -0.040492 0.554884 1.469873
15  0.000042 6.792207 0.000044  0.007991 0.036070 -0.011408
16  -0.000065 7.744816 0.000017  -0.017442 -0.155305 0.068152
17  0.000073 7.809702 0.000019  -0.033636 0.005026 0.006141
18  -0.000031 7.867671 0.000019  -0.073330 -0.127909 0.026376
19  3.494700 -1.749093 -3.006912  0.152545 2.070419 1.936947
20  0.000118 4.478323 0.000017  -0.194651 0.310432 -0.234993
21  0.000048 4.636119 -0.000030  0.035820 0.324591 -0.151769
22  -0.000041 5.008652 0.000011  0.075994 -0.286563 0.276092
23  0.000063 4.781164 0.000008  0.904403 -2.690903 -0.015798
24  2.253041 1.989058 -3.350106  -1.523630 1.324498 0.112401
25  0.000162 6.589464 0.000168  0.206354 -0.002129 -0.080395
26  0.000042 7.491414 0.000040  -0.333512 0.184455 -0.191167
27  0.000024 7.660304 -0.000053  -0.063177 0.127194 -0.062117
28  0.000006 7.256270 0.000023  -0.052939 -0.487830 0.313812
29  -0.791159 2.265119 -1.234655  -0.753899 1.136377 0.824674
30  -0.000258 8.572264 -0.000090  -0.222842 -0.296789 0.176502
31  -0.000095 8.117212 0.000048  0.072255 0.772520 -0.285588
32  -0.000082 8.230034 -0.000075  -0.080491 -0.347232 0.072253
33  0.000062 7.366723 0.000056  -0.015395 -0.663893 0.062742
34  0.224219 0.240128 -3.218158  -0.877383 1.468889 0.577824
35  -0.000101 7.721051 -0.000308  -0.283828 0.060497 -0.167555
36  -0.000030 7.374854 0.000002  0.007537 -0.195021 0.049539
37  0.000077 6.848103 0.000010  0.005484 0.006496 -0.033649
38  -0.000052 7.777863 0.000009  -0.186096 0.182474 -0.152846
39  -1.514466 2.104650 -1.150167  -0.029088 0.541319 1.555678
40  -0.000165 6.982349 -0.000075  -0.199702 -0.041212 0.153490
41  0.000040 8.382863 -0.000071  0.044866 0.587987 -0.257962
42  0.000012 8.697700 -0.000025  -0.102638 -0.474318 0.290946
43  0.000058 8.921805 -0.000002  -0.076259 0.581004 -0.195606
44  1.196193 2.899156 -2.353086  -0.449716 1.030105 1.287428
45  0.000106 5.476941 0.000007  0.285574 -0.099352 -0.038446
46  -0.000076 6.060435 -0.000089  -0.155030 -0.575031 0.384612
47  0.000015 5.994261 0.000030  0.033946 0.288575 -0.067729
48  -0.000007 6.100485 0.000003  -0.068403 0.299274 -0.162151
49  0.000034 6.916758 0.000010  -0.096316 0.220533 -0.107966
50  0.000148 6.435059 -0.000047  -0.037458 0.171630 -0.116574
51  1.092797 3.649511 -1.738794  -0.148600 0.876612 1.445020
52  -0.000130 6.792200 -0.000102  0.008284 0.107792 -0.048643
53  -0.000085 7.744778 -0.000032  0.057137 -0.256893 0.015458
54  0.000087 9.115020 -0.000037  -0.020393 0.256253 -0.142636
55  3.494518 -1.749102 3.007063  0.118402 1.106974 1.813811
56  0.000016 4.323835 0.000088  -0.229905 -0.770942 0.449225
57  0.000030 4.872901 -0.000021  0.367238 -0.664053 -0.254030
58  0.000007 5.056652 0.000091  -0.511237 0.856586 -0.546324
59  2.292466 1.708614 3.661675  -1.762558 1.789111 -0.218971
60  -0.000173 6.589442 0.000276  -0.007132 -0.169123 0.176907
61  0.000174 7.491495 -0.000151  -0.132414 -0.107098 0.179329
62  -0.000138 8.249660 0.000144  0.041913 -0.058208 0.015815
63  0.000072 8.605238 -0.000024  0.101586 0.501824 -0.079696
64  -0.240486 2.066073 2.349267  -0.357331 2.461714 1.296081
65  -0.000088 7.721104 -0.000002  -0.208230 -0.126223 -0.116496
66  -0.000122 7.374865 -0.000049  -0.111018 0.046939 -0.046463
67  -0.000033 6.848062 -0.000027  0.273532 0.247522 0.299909
68  0.000034 7.777824 -0.000044  0.072921 0.186148 -0.052690
69  -0.000085 8.178057 0.000010  -0.087029 -0.422849 -0.381357
70  1.617603 3.431410 2.399265  -0.249454 2.569515 1.508572
71  -0.000163 5.476943 -0.000028  0.057730 0.074071 0.060285
72  -0.000091 6.060493 -0.000006  -0.015204 0.015650 -0.152065
73  0.000020 5.994250 0.000011  -0.126212 -0.157657 0.153303
74  -0.000079 7.076874 -0.000045  -0.008118 0.010385 0.036399
75  0.000005 7.089869 -0.000069  0.070875 0.098587 -0.025893
76  0.361111 0.886682 3.287746  -0.576374 1.978710 0.939011
77  -0.000066 6.686643 0.000219  -0.146569 0.414164 -0.327707
78  -0.000013 7.638020 0.000015  -0.079524 -0.025948 0.130955
79  -0.000034 7.290229 -0.000025  0.025325 -0.093908 0.023964
80  -0.000036 6.530367 0.000007  -0.261847 -0.300601 0.006735
81  0.000063 7.224879 0.000007  0.036505 0.032481 -0.175824
82  1.071896 3.225796 1.570115  -0.043809 2.859975 1.526248
83  0.000414 6.748901 -0.000066  -0.062702 0.083784 0.022202
84  -0.000043 8.002645 0.000028  -0.067495 -0.117209 -0.115601
85  0.000012 8.580572 -0.000095  0.088210 -0.007188 0.334605
86  0.000173 8.689833 -0.000042  0.065327 -0.412430 -0.134519
87  -1.514535 2.104637 0.318055  -0.024894 3.094490 1.569494
88  0.000191 6.982281 0.000011  -0.107590 -0.057625 -0.215719
89  -0.000010 8.382874 -0.000069  0.135033 -0.099914 0.287073
90  -0.000060 8.697671 0.000023  -0.148091 -0.510100 0.044839
91  -0.000136 8.921823 0.000079  -0.236828 -0.892636 0.098805
92  3.553615 -3.478046 2.409277  0.000819 0.762046 1.535311
93  -0.000000 4.476901 -0.000006  -0.151015 -0.588331 0.377258
94  0.000032 4.514122 -0.000023  -0.228876 -2.996207 0.592370
95  0.000042 4.518385 -0.000023  0.143175 2.612778 0.693384
96  0.000022 3.598329 0.000024  -0.749308 0.869849 -0.773235
97  4.209920 -0.440345 1.018824  -1.799567 -1.842667 0.040304
98  4.265505 1.434232 -0.404993  -2.384933 0.391673 -1.219262
99  9.400229 0.017940 0.083202  -0.016950 -0.032391 0.032390
100  10.242417 0.033591 0.064483  2.053042 -0.169223 -0.125685
101  3.465855 -0.059678 0.016696  -0.016089 0.105975 0.027194
102  1.655599 -0.000022 0.000019  0.040690 -0.198517 -0.918884
103  0.960768 -0.000007 -0.000010  0.018697 -0.077773 -0.787709
104  3.462026 -0.064246 0.939911  0.316648 -0.070174 0.031375
105  1.497180 -0.000009 0.000019  -0.465030 -0.145801 -0.359638
106  0.793758 0.000001 -0.000004  -0.023174 0.043630 -0.730043
107  0.591664 -0.460691 0.835208  -0.998976 -0.654565 -0.477416
108  1.556136 -0.000003 0.000001  -0.190373 0.081480 0.349972
109  1.135900 0.000021 0.000005  -0.017174 -0.043979 0.207747
110  3.084266 -0.668821 -1.257082  -0.570469 0.154711 -0.762372
111  1.064198 -0.000004 0.000006  -0.077902 0.129860 -1.490420
112  0.640336 0.000000 -0.000009  -0.043309 0.083917 -1.147870
113  3.396819 -0.242138 -0.708685  -0.276950 0.187593 -0.366796
114  1.532967 0.000011 0.000004  0.022485 -0.009571 -1.301201
115  0.832975 -0.000001 -0.000004  0.012311 0.002370 -1.308525
116  4.209944 -0.440341 -1.019279  2.007152 2.009826 0.221005
117  4.266747 1.424939 0.424941  2.004741 -0.413900 -1.083247
118  9.398566 0.011948 -0.082519  0.015376 0.033694 0.011023
119  10.242443 0.028175 -0.062907  -1.978007 0.157669 0.445144
120  3.465749 -0.067527 0.002268  -0.236666 0.250305 -1.664845
121  1.655560 0.000002 0.000003  -0.165763 0.184653 -1.176163
122  0.960903 0.000005 0.000000  -0.018934 0.176619 -0.890997
123  3.466860 -0.077781 -0.920910  -0.489683 0.120579 -1.699156
124  1.497261 -0.000035 -0.000025  -0.583150 0.323342 -1.032070
125  0.793782 -0.000008 0.000000  -0.224980 0.388706 -0.772652
126  0.595081 -0.467152 -0.829176  2.469572 0.673961 -0.723598
127  1.555676 0.000016 -0.000005  0.637662 0.520248 1.171332
128  1.136810 -0.000002 -0.000003  0.578349 0.458565 1.086122
129  3.075974 -0.667968 1.277701  0.602872 0.235138 -1.369519
130  1.064593 0.000018 0.000011  0.026752 -0.117391 -0.831401
131  0.640356 -0.000018 -0.000003  -0.104291 -0.023770 -0.471510
132  3.392411 -0.245369 0.728376  0.126351 0.325410 -1.762077
133  1.532739 -0.000009 -0.000001  0.007389 0.016566 -0.812465
134  0.833149 0.000011 0.000006  -0.082768 -0.069998 -1.040855
135  3.590111 -3.090297 1.193973  1.635457 1.210566 1.548541
136  3.589559 -3.089880 -1.196372  -1.505736 1.210473 -1.592853
137  -0.436560 4.719023 -0.001075  -0.000650 -1.570733 1.692975
138  -0.000000 2.775449 -0.000240  -0.135089 0.000001 -0.000000
139  0.000001 3.189771 0.000010  0.207820 -0.000000 0.000000
140  0.000000 3.504652 0.000050  -0.261876 0.000000 -0.000000
141  -0.000000 2.863203 -0.000002  -0.051268 0.000000 -0.000000
time 2
0  -0.000000 -0.002784 42.000000  1.570862 0.000000 -0.000000
1  0.002636 43.025146 0.734438  2.363932 -0.281766 0.218636
2  3.061859 -4.181012 -0.610803  1.096353 -0.945597 1.775972
3  18.476774 0.000159 -0.000001  -0.118537 -0.106148 2.526886
4  17.490088 0.000118 0.000004  0.096765 0.142601 -1.217154
5  -3.065328 -4.183578 -0.611480  -1.505256 -0.241771 -1.780156
6  18.474857 -0.000032 -0.000009  0.003935 0.002057 0.045053
7  17.489584 0.001908 -0.000007  -0.212865 -0.222395 -1.065493
8  -0.000115 -0.048881 -0.576225  1.461951 0.219392 1.547451
9  3.224488 0.767052 0.000494  -0.079238 -0.081673 0.037619
10  3.223913 0.226402 -0.001945  -0.025762 -0.030433 0.024330
11  5.187320 -1.262564 -0.001177  0.000012 0.000066 0.194111
12  6.928410 -1.935313 -0.000227  -3.097428 0.004137 0.422876
13  3.236364 1.079612 0.000057  -0.075760 0.056465 1.056435
14  0.833761 3.805355 0.692956  -0.040492 0.554884 1.469873
15  0.000041 6.792207 0.000044  0.007991 0.036070 -0.011408
16  -0.000065 7.744816 0.000019  -0.017442 -0.155305 0.068152
17  0.000073 7.809702 0.000017  -0.033636 0.005026 0.006141
18  -0.000032 7.867671 0.000019  -0.073330 -0.127909 0.026376
19  3.494700 -1.749093 -3.006912  0.152545 2.070419 1.936947
20  0.000119 4.478323 0.000017  -0.194651 0.310432 -0.234993
21  0.000048 4.636119 -0.000030  0.035820 0.324591 -0.151769
22  -0.000041 5.008652 0.000011  0.075994 -0.286563 0.276092
23  0.000063 4.781164 0.000008  0.904403 -2.690903 -0.015798
24  2.253041 1.989058 -3.350106  -1.523630 1.324498 0.112401
25  0.000162 6.589464 0.000168  0.206354 -0.002129 -0.080395
26  0.000043 7.491415 0.000040  -0.333512 0.184455 -0.191167
27  0.000025 7.660305 -0.000057  -0.063177 0.127194 -0.062117
28  0.000005 7.256270 0.000024  -0.052939 -0.487830 0.313813
29  -0.791159 2.265119 -1.234655  -0.753899 1.136377 0.824674
30  -0.000258 8.572264 -0.000092  -0.222842 -0.296789 0.176502
31  -0.000094 8.117212 0.000048  0.072255 0.772520 -0.285588
32  -0.000082 8.230032 -0.000071  -0.080491 -0.347232 0.072253
33  0.000062 7.366724 0.000060  -0.015395 -0.663893 0.062742
34  0.224219 0.240128 -3.218157  -0.877383 1.468889 0.577824
35  -0.000101 7.721051 -0.000308  -0.283828 0.060497 -0.167555
36  -0.000030 7.374854 0.000002  0.007537 -0.195021 0.049539
37  0.000076 6.848104 0.000010  0.005484 0.006496 -0.033649
38  -0.000052 7.777863 0.000009  -0.186096 0.182474 -0.152846
39  -1.514466 2.104650 -1.150167  -0.029088 0.541319 1.555678
40  -0.000167 6.982347 -0.000075  -0.199702 -0.041212 0.153490
41  0.000039 8.382863 -0.000071  0.044866 0.587987 -0.257962
42  0.000012 8.697700 -0.000027  -0.102638 -0.474318 0.290946
43  0.000058 8.921805 -0.000003  -0.076259 0.581004 -0.195606
44  1.196193 2.899156 -2.353086  -0.449716 1.030105 1.287428
45  0.000106 5.476941 0.000006  0.285574 -0.099352 -0.038446
46  -0.000076 6.060435 -0.000089  -0.155030 -0.575031 0.384612
47  0.000015 5.994261 0.000030  0.033946 0.288575 -0.067729
48  -0.000007 6.100485 0.000003  -0.068403 0.299274 -0.162151
49  0.000034 6.916758 0.000010  -0.096316 0.220533 -0.107966
50  0.000148 6.435059 -0.000047  -0.037458 0.171630 -0.116574
51  1.092797 3.649511 -1.738794  -0.148600 0.876612 1.445020
52  -0.000130 6.792200 -0.000103  0.008284 0.107792 -0.048643
53  -0.000085 7.744778 -0.000032  0.057137 -0.256893 0.015458
54  0.000087 9.115020 -0.000035  -0.020393 0.256253 -0.142636
55  3.494518 -1.749102 3.007064  0.118402 1.106974 1.813811
56  0.000017 4.323835 0.000086  -0.229905 -0.770942 0.449225
57  0.000030 4.872901 -0.000020  0.367238 -0.664053 -0.254030
58  0.000004 5.056652 0.000091  -0.511237 0.856586 -0.546324
59  2.292466 1.708614 3.661675  -1.762558 1.789111 -0.218971
60  -0.000173 6.589442 0.000276  -0.007132 -0.169123 0.176907
61  0.000174 7.491495 -0.000151  -0.132414 -0.107098 0.179329
62  -0.000138 8.249660 0.000144  0.041913 -0.058208 0.015815
63  0.000072 8.605238 -0.000024  0.101586 0.501824 -0.079696
64  -0.240486 2.066073 2.349267  -0.357331 2.461714 1.296081
65  -0.000088 7.721104 -0.000001  -0.208230 -0.126223 -0.116496
66  -0.000123 7.374865 -0.000048  -0.111018 0.046939 -0.046463
67  -0.000033 6.848063 -0.000029  0.273532 0.247522 0.299909
68  0.000034 7.777824 -0.000044  0.072921 0.186148 -0.052690
69  -0.000085 8.178057 0.000010  -0.087029 -0.422849 -0.381357
70  1.617603 3.431410 2.399265  -0.249454 2.569515 1.508572
71  -0.000163 5.476943 -0.000030  0.057730 0.074071 0.060285
72  -0.000091 6.060493 -0.000005  -0.015204 0.015650 -0.152065
73  0.000020 5.994250 0.000011  -0.126212 -0.157657 0.153303
74  -0.000078 7.076873 -0.000044  -0.008118 0.010385 0.036399
75  0.000005 7.089868 -0.000069  0.070875 0.098587 -0.025893
76  0.361111 0.886682 3.287746  -0.576374 1.978710 0.939011
77  -0.000065 6.686643 0.000219  -0.146569 0.414164 -0.327707
78  -0.000013 7.638020 0.000015  -0.079523 -0.025948 0.130955
79  -0.000034 7.290229 -0.000025  0.025325 -0.093908 0.023964
80  -0.000036 6.530367 0.000007  -0.261847 -0.300601 0.006735
81  0.000063 7.224879 0.000006  0.036505 0.032481 -0.175824
82  1.071896 3.225796 1.570115  -0.043809 2.859975 1.526248
83  0.000414 6.748902 -0.000065  -0.062702 0.083784 0.022202
84  -0.000047 8.002646 0.000028  -0.067495 -0.117209 -0.115601
85  0.000012 8.580572 -0.000095  0.088210 -0.007188 0.334605
86  0.000173 8.689833 -0.000042  0.065327 -0.412430 -0.134519
87  -1.514535 2.104637 0.318056  -0.024894 3.094490 1.569494
88  0.000191 6.982281 0.000011  -0.107590 -0.057625 -0.215719
89  -0.000010 8.382874 -0.000069  0.135033 -0.099914 0.287073
90  -0.000060 8.697672 0.000024  -0.148091 -0.510100 0.044839
91  -0.000136 8.921823 0.000077  -0.236828 -0.892636 0.098805
92  3.553615 -3.478046 2.409277  0.000819 0.762046 1.535311
93  0.000002 4.476902 -0.000005  -0.151015 -0.588331 0.377258
94  0.000030 4.514123 -0.000023  -0.228877 -2.996207 0.592370
95  0.000042 4.518385 -0.000023  0.143175 2.612778 0.693384
96  0.000022 3.598329 0.000023  -0.749308 0.869849 -0.773235
97  4.209920 -0.440345 1.018824  -1.799567 -1.842667 0.040304
98  4.265506 1.434232 -0.404993  -2.384933 0.391673 -1.219262
99  9.400229 0.017940 0.083204  -0.016950 -0.032391 0.032390
100  10.242417 0.033591 0.064482  2.053042 -0.169223 -0.125685
101  3.465854 -0.059678 0.016695  -0.016089 0.105975 0.027194
102  1.655599 -0.000022 0.000021  0.040690 -0.198517 -0.918884
103  0.960767 -0.000004 -0.000005  0.018697 -0.077773 -0.787709
104  3.462025 -0.064245 0.939911  0.316648 -0.070174 0.031375
105  1.497183 -0.000008 0.000017  -0.465030 -0.145801 -0.359638
106  0.793758 0.000002 -0.000001  -0.023174 0.043630 -0.730043
107  0.591664 -0.460690 0.835205  -0.998976 -0.654565 -0.477416
108  1.556140 0.000001 0.000001  -0.190373 0.081480 0.349972
109  1.135904 0.000021 0.000004  -0.017174 -0.043979 0.207747
110  3.084266 -0.668820 -1.257082  -0.570469 0.154711 -0.762372
111  1.064202 0.000004 0.000006  -0.077902 0.129860 -1.490420
112  0.640337 0.000001 -0.000009  -0.043309 0.083917 -1.147870
113  3.396819 -0.242137 -0.708688  -0.276950 0.187592 -0.366796
114  1.532971 0.000010 0.000005  0.022485 -0.009571 -1.301201
115  0.832973 -0.000001 -0.000003  0.012311 0.002370 -1.308525
116  4.209944 -0.440341 -1.019279  2.007152 2.009826 0.221005
117  4.266747 1.424940 0.424941  2.004741 -0.413900 -1.083247
118  9.398567 0.011950 -0.082517  0.015376 0.033694 0.011023
119  10.242439 0.028176 -0.062906  -1.978007 0.157669 0.445144
120  3.465749 -0.067527 0.002268  -0.236666 0.250305 -1.664845
121  1.655558 0.000006 0.000004  -0.165763 0.184653 -1.176162
122  0.960906 0.000005 -0.000000  -0.018934 0.176619 -0.890997
123  3.466860 -0.077781 -0.920909  -0.489683 0.120579 -1.699156
124  1.497260 -0.000035 -0.000025  -0.583150 0.323342 -1.032070
125  0.793789 -0.000007 -0.000001  -0.224980 0.388706 -0.772652
126  0.595081 -0.467151 -0.829176  2.469572 0.673961 -0.723598
127  1.555674 0.000015 -0.000005  0.637662 0.520248 1.171332
128  1.136811 -0.000006 -0.000003  0.578349 0.458565 1.086122
129  3.075974 -0.667967 1.277701  0.602872 0.235138 -1.369519
130  1.064592 0.000022 0.000010  0.026752 -0.117391 -0.831400
131  0.640363 -0.000015 -0.000000  -0.104291 -0.023770 -0.471510
132  3.392411 -0.245369 0.728376  0.126351 0.325410 -1.762077
133  1.532737 -0.000005 -0.000001  0.007389 0.016566 -0.812465
134  0.833145 0.000011 0.000005  -0.082768 -0.069998 -1.040855
135  3.590111 -3.090297 1.193972  1.635457 1.210566 1.548541
136  3.589559 -3.089880 -1.196373  -1.505736 1.210473 -1.592853
137  -0.436560 4.719023 -0.001076  -0.000591 -1.570733 1.692975
138  -0.000000 2.775449 -0.000240  -0.135089 0.000001 -0.000000
139  0.000001 3.189771 0.000010  0.207820 -0.000000 0.000000
140  0.000001 3.504652 0.000050  -0.261876 0.000000 -0.000000
141  0.000000 2.863203 -0.000002  -0.051268 0.000000 -0.000000
time 3
0  -0.000000 -0.002784 42.000000  1.570862 0.000000 -0.000000
1  0.002636 43.025146 0.734438  2.363932 -0.281766 0.218636
2  3.061859 -4.181012 -0.610803  1.096353 -0.945597 1.775972
3  18.476774 0.000159 -0.000001  -0.118537 -0.106148 2.526886
4  17.490088 0.000118 0.000004  0.096765 0.142601 -1.217154
5  -3.065328 -4.183578 -0.611480  -1.505256 -0.241771 -1.780156
6  18.474857 -0.000032 -0.000009  0.003935 0.002057 0.045053
7  17.489584 0.001908 -0.000007  -0.212865 -0.222395 -1.065493
8  -0.000115 -0.048881 -0.576225  1.461951 0.219392 1.547451
9  3.224488 0.767052 0.000494  -0.079238 -0.081673 0.037619
10  3.223912 0.226402 -0.001945  -0.025762 -0.030433 0.024330
11  5.187321 -1.262564 -0.001177  0.000012 0.000066 0.194111
12  6.928409 -1.935313 -0.000227  -3.097428 0.004137 0.422876
13  3.236363 1.079613 0.000057  -0.075760 0.056465 1.056435
14  0.833762 3.805353 0.692956  -0.040492 0.554884 1.469873
15  0.000042 6.792208 0.000040  0.007991 0.036070 -0.011408
16  -0.000064 7.744815 0.000019  -0.017442 -0.155305 0.068152
17  0.000073 7.809702 0.000018  -0.033636 0.005026 0.006141
18  -0.000032 7.867671 0.000019  -0.073330 -0.127909 0.026376
19  3.494702 -1.749095 -3.006912  0.152545 2.070419 1.936947
20  0.000119 4.478323 0.000018  -0.194651 0.310432 -0.234993
21  0.000049 4.636117 -0.000031  0.035820 0.324591 -0.151769
22  -0.000042 5.008652 0.000011  0.075994 -0.286563 0.276092
23  0.000063 4.781164 0.000012  0.904403 -2.690903 -0.015798
24  2.253040 1.989057 -3.350106  -1.523630 1.324498 0.112401
25  0.000162 6.589463 0.000165  0.206354 -0.002129 -0.080395
26  0.000041 7.491413 0.000041  -0.333512 0.184455 -0.191167
27  0.000026 7.660305 -0.000057  -0.063177 0.127194 -0.062117
28  0.000005 7.256271 0.000023  -0.052939 -0.487830 0.313813
29  -0.791158 2.265117 -1.234655  -0.753899 1.136377 0.824673
30  -0.000258 8.572263 -0.000091  -0.222842 -0.296789 0.176502
31  -0.000093 8.117212 0.000049  0.072255 0.772520 -0.285588
32  -0.000082 8.230033 -0.000072  -0.080491 -0.347232 0.072253
33  0.000062 7.366724 0.000054  -0.015395 -0.663893 0.062742
34  0.224218 0.240124 -3.218157  -0.877383 1.468889 0.577824
35  -0.000102 7.721050 -0.000309  -0.283828 0.060497 -0.167555
36  -0.000030 7.374854 0.000003  0.007537 -0.195021 0.049539
37  0.000076 6.848103 0.000009  0.005484 0.006496 -0.033649
38  -0.000051 7.777864 0.000011  -0.186096 0.182474 -0.152846
39  -1.514466 2.104648 -1.150167  -0.029088 0.541319 1.555678
40  -0.000169 6.982348 -0.000077  -0.199702 -0.041212 0.153490
41  0.000037 8.382862 -0.000073  0.044866 0.587987 -0.257962
42  0.000012 8.697700 -0.000025  -0.102637 -0.474318 0.290946
43  0.000057 8.921805 -0.000003  -0.076259 0.581004 -0.195606
44  1.196192 2.899154 -2.353085  -0.449716 1.030105 1.287428
45  0.000107 5.476941 0.000004  0.285574 -0.099352 -0.038446
46  -0.000073 6.060436 -0.000092  -0.155030 -0.575031 0.384612
47  0.000015 5.994262 0.000029  0.033946 0.288574 -0.067729
48  -0.000005 6.100485 0.000004  -0.068403 0.299274 -0.162151
49  0.000034 6.916759 0.000008  -0.096316 0.220533 -0.107966
50  0.000147 6.435061 -0.000044  -0.037458 0.171630 -0.116574
51  1.092798 3.649509 -1.738794  -0.148600 0.876612 1.445020
52  -0.000128 6.792201 -0.000102  0.008284 0.107792 -0.048643
53  -0.000086 7.744777 -0.000032  0.057137 -0.256893 0.015458
54  0.000085 9.115020 -0.000035  -0.020393 0.256253 -0.142636
55  3.494520 -1.749104 3.007064  0.118402 1.106974 1.813811
56  0.000016 4.323835 0.000090  -0.229905 -0.770942 0.449225
57  0.000029 4.872902 -0.000022  0.367238 -0.664053 -0.254030
58  0.000004 5.056652 0.000092  -0.511237 0.856586 -0.546324
59  2.292465 1.708613 3.661676  -1.762558 1.789111 -0.218971
60  -0.000173 6.589441 0.000277  -0.007132 -0.169123 0.176907
61  0.000174 7.491495 -0.000150  -0.132414 -0.107098 0.179329
62  -0.000140 8.249660 0.000148  0.041913 -0.058208 0.015815
63  0.000071 8.605236 -0.000024  0.101586 0.501824 -0.079697
64  -0.240486 2.066071 2.349267  -0.357331 2.461714 1.296081
65  -0.000091 7.721105 -0.000005  -0.208230 -0.126223 -0.116496
66  -0.000120 7.374863 -0.000048  -0.111018 0.046939 -0.046463
67  -0.000031 6.848062 -0.000024  0.273532 0.247522 0.299909
68  0.000038 7.777822 -0.000044  0.072921 0.186148 -0.052690
69  -0.000083 8.178058 0.000010  -0.087029 -0.422849 -0.381357
70  1.617604 3.431408 2.399266  -0.249454 2.569515 1.508572
71  -0.000164 5.476943 -0.000029  0.057730 0.074071 0.060285
72  -0.000091 6.060493 -0.000005  -0.015204 0.015650 -0.152065
73  0.000020 5.994250 0.000011  -0.126212 -0.157657 0.153303
74  -0.000078 7.076874 -0.000045  -0.008118 0.010385 0.036399
75  0.000006 7.089868 -0.000070  0.070875 0.098587 -0.025893
76  0.361111 0.886681 3.287746  -0.576374 1.978710 0.939011
77  -0.000066 6.686641 0.000220  -0.146569 0.414164 -0.327707
78  -0.000010 7.638018 0.000018  -0.079523 -0.025948 0.130955
79  -0.000036 7.290229 -0.000023  0.025325 -0.093908 0.023964
80  -0.000035 6.530365 0.000008  -0.261847 -0.300601 0.006735
81  0.000064 7.224879 0.000009  0.036505 0.032481 -0.175824
82  1.071897 3.225794 1.570116  -0.043809 2.859975 1.526248
83  0.000414 6.748900 -0.000067  -0.062702 0.083784 0.022202
84  -0.000055 8.002647 0.000028  -0.067495 -0.117209 -0.115601
85  0.000012 8.580571 -0.000096  0.088210 -0.007188 0.334605
86  0.000167 8.689833 -0.000040  0.065327 -0.412430 -0.134519
87  -1.514534 2.104635 0.318056  -0.024894 3.094490 1.569494
88  0.000190 6.982280 0.000011  -0.107590 -0.057625 -0.215719
89  -0.000010 8.382873 -0.000068  0.135033 -0.099914 0.287073
90  -0.000055 8.697670 0.000023  -0.148091 -0.510100 0.044839
91  -0.000137 8.921824 0.000076  -0.236828 -0.892636 0.098805
92  3.553616 -3.478047 2.409277  0.000819 0.762046 1.535311
93  -0.000001 4.476903 -0.000007  -0.151015 -0.588331 0.377258
94  0.000033 4.514121 -0.000023  -0.228876 -2.996207 0.592369
95  0.000043 4.518384 -0.000024  0.143175 2.612778 0.693384
96  0.000023 3.598330 0.000023  -0.749308 0.869849 -0.773236
97  4.209920 -0.440345 1.018824  -1.799567 -1.842667 0.040304
98  4.265506 1.434229 -0.404991  -2.384933 0.391673 -1.219262
99  9.400231 0.017941 0.083203  -0.016950 -0.032391 0.032390
100  10.242425 0.033590 0.064480  2.053042 -0.169223 -0.125685
101  3.465854 -0.059679 0.016695  -0.016089 0.105975 0.027194
102  1.655595 -0.000023 0.000021  0.040690 -0.198517 -0.918884
103  0.960768 -0.000001 -0.000011  0.018697 -0.077773 -0.787709
104  3.462025 -0.064247 0.939911  0.316648 -0.070174 0.031375
105  1.497179 -0.000008 0.000017  -0.465030 -0.145801 -0.359638
106  0.793758 0.000002 -0.000002  -0.023174 0.043630 -0.730043
107  0.591660 -0.460692 0.835209  -0.998976 -0.654565 -0.477416
108  1.556141 0.000004 -0.000000  -0.190373 0.081480 0.349972
109  1.135899 0.000017 0.000005  -0.017174 -0.043979 0.207747
110  3.084266 -0.668822 -1.257083  -0.570469 0.154711 -0.762372
111  1.064202 -0.000000 0.000008  -0.077902 0.129860 -1.490420
112  0.640337 0.000008 -0.000009  -0.043309 0.083917 -1.147870
113  3.396819 -0.242139 -0.708686  -0.276950 0.187592 -0.366796
114  1.532971 0.000010 0.000004  0.022485 -0.009571 -1.301201
115  0.832973 0.000007 -0.000003  0.012311 0.002370 -1.308525
116  4.209944 -0.440341 -1.019279  2.007152 2.009826 0.221005
117  4.266746 1.424941 0.424935  2.004741 -0.413900 -1.083247
118  9.398567 0.011949 -0.082517  0.015376 0.033694 0.011023
119  10.242436 0.028174 -0.062908  -1.978007 0.157669 0.445144
120  3.465746 -0.067527 0.002267  -0.236666 0.250305 -1.664845
121  1.655559 -0.000001 0.000007  -0.165763 0.184653 -1.176162
122  0.960906 0.000008 -0.000000  -0.018934 0.176619 -0.890997
123  3.466856 -0.077781 -0.920910  -0.489683 0.120579 -1.699156
124  1.497260 -0.000039 -0.000025  -0.583150 0.323342 -1.032070
125  0.793786 -0.000008 -0.000002  -0.224980 0.388706 -0.772652
126  0.595077 -0.467151 -0.829176  2.469572 0.673961 -0.723598
127  1.555674 0.000018 -0.000001  0.637662 0.520248 1.171332
128  1.136810 -0.000005 -0.000001  0.578349 0.458565 1.086122
129  3.075974 -0.667968 1.277700  0.602872 0.235138 -1.369519
130  1.064594 0.000018 0.000011  0.026752 -0.117391 -0.831401
131  0.640363 -0.000018 -0.000003  -0.104291 -0.023770 -0.471510
132  3.392407 -0.245369 0.728375  0.126351 0.325410 -1.762077
133  1.532737 -0.000012 -0.000000  0.007389 0.016566 -0.812465
134  0.833146 0.000010 0.000007  -0.082768 -0.069998 -1.040855
135  3.590111 -3.090297 1.193972  1.635457 1.210566 1.548541
136  3.589561 -3.089880 -1.196373  -1.505736 1.210473 -1.592853
137  -0.436558 4.719023 -0.001076  -0.000650 -1.570733 1.692975
138  -0.000000 2.775451 -0.000240  -0.135089 0.000001 -0.000000
139  0.000001 3.189769 0.000010  0.207820 -0.000000 0.000000
140  0.000000 3.504652 0.000050  -0.261876 0.000000 -0.000000
141  0.000000 2.863203 -0.000002  -0.051268 0.000000 -0.000000
time 4
0  -0.000000 -0.002784 42.000000  1.570862 0.000000 -0.000000
1  0.002636 43.025146 0.734438  2.363932 -0.281766 0.218636
2  3.061859 -4.181012 -0.610803  1.096353 -0.945597 1.775972
3  18.476774 0.000159 -0.000001  -0.118537 -0.106148 2.526886
4  17.490088 0.000118 0.000004  0.096765 0.142601 -1.217154
5  -3.065328 -4.183578 -0.611480  -1.505256 -0.241771 -1.780156
6  18.474857 -0.000032 -0.000009  0.003935 0.002057 0.045053
7  17.489584 0.001908 -0.000007  -0.212865 -0.222395 -1.065493
8  -0.000115 -0.048881 -0.576225  1.461951 0.219392 1.547451
9  3.224488 0.767052 0.000494  -0.079238 -0.081673 0.037619
10  3.223912 0.226402 -0.001945  -0.025762 -0.030433 0.024330
11  5.187321 -1.262564 -0.001176  0.000012 0.000066 0.194111
12  6.928407 -1.935313 -0.000227  -3.097428 0.004137 0.422876
13  3.236363 1.079613 0.000058  -0.075760 0.056465 1.056435
14  0.833763 3.805353 0.692956  -0.040492 0.554884 1.469873
15  0.000042 6.792207 0.000041  0.007991 0.036070 -0.011408
16  -0.000064 7.744815 0.000019  -0.017442 -0.155305 0.068152
17  0.000073 7.809702 0.000018  -0.033636 0.005026 0.006141
18  -0.000032 7.867671 0.000019  -0.073330 -0.127909 0.026376
19  3.494702 -1.749095 -3.006912  0.152545 2.070419 1.936947
20  0.000119 4.478323 0.000019  -0.194651 0.310432 -0.234993
21  0.000049 4.636116 -0.000033  0.035820 0.324591 -0.151769
22  -0.000042 5.008652 0.000011  0.075994 -0.286563 0.276092
23  0.000063 4.781164 0.000012  0.904403 -2.690903 -0.015798
24  2.253041 1.989057 -3.350106  -1.523630 1.324498 0.112401
25  0.000162 6.589462 0.000165  0.206354 -0.002129 -0.080395
26  0.000042 7.491413 0.000040  -0.333512 0.184455 -0.191167
27  0.000026 7.660305 -0.000053  -0.063177 0.127194 -0.062117
28  0.000004 7.256270 0.000019  -0.052939 -0.487830 0.313813
29  -0.791159 2.265117 -1.234655  -0.753899 1.136377 0.824673
30  -0.000260 8.572262 -0.000091  -0.222842 -0.296789 0.176502
31  -0.000094 8.117212 0.000047  0.072255 0.772520 -0.285588
32  -0.000082 8.230034 -0.000072  -0.080491 -0.347232 0.072253
33  0.000061 7.366724 0.000055  -0.015395 -0.663893 0.062742
34  0.224217 0.240124 -3.218157  -0.877383 1.468889 0.577824
35  -0.000102 7.721050 -0.000309  -0.283828 0.060497 -0.167555
36  -0.000030 7.374854 0.000003  0.007537 -0.195021 0.049539
37  0.000075 6.848103 0.000010  0.005484 0.006496 -0.033649
38  -0.000052 7.777864 0.000011  -0.186096 0.182474 -0.152846
39  -1.514466 2.104648 -1.150166  -0.029088 0.541319 1.555678
40  -0.000168 6.982348 -0.000077  -0.199702 -0.041212 0.153490
41  0.000037 8.382863 -0.000073  0.044866 0.587987 -0.257962
42  0.000010 8.697701 -0.000028  -0.102637 -0.474318 0.290946
43  0.000057 8.921806 -0.000003  -0.076259 0.581004 -0.195606
44  1.196193 2.899154 -2.353086  -0.449716 1.030105 1.287428
45  0.000107 5.476941 0.000008  0.285574 -0.099352 -0.038446
46  -0.000073 6.060436 -0.000092  -0.155030 -0.575031 0.384612
47  0.000015 5.994261 0.000029  0.033946 0.288574 -0.067729
48  -0.000003 6.100486 0.000004  -0.068403 0.299274 -0.162151
49  0.000036 6.916759 0.000010  -0.096316 0.220533 -0.107966
50  0.000152 6.435061 -0.000044  -0.037458 0.171630 -0.116574
51  1.092798 3.649509 -1.738794  -0.148600 0.876612 1.445020
52  -0.000133 6.792201 -0.000101  0.008284 0.107792 -0.048643
53  -0.000088 7.744778 -0.000030  0.057137 -0.256893 0.015458
54  0.000085 9.115021 -0.000035  -0.020393 0.256253 -0.142636
55  3.494520 -1.749104 3.007064  0.118402 1.106974 1.813811
56  0.000016 4.323833 0.000087  -0.229905 -0.770942 0.449225
57  0.000031 4.872901 -0.000021  0.367238 -0.664053 -0.254030
58  0.000008 5.056651 0.000091  -0.511237 0.856586 -0.546324
59  2.292468 1.708613 3.661676  -1.762558 1.789111 -0.218971
60  -0.000173 6.589441 0.000277  -0.007132 -0.169123 0.176907
61  0.000174 7.491494 -0.000150  -0.132414 -0.107098 0.179329
62  -0.000140 8.249660 0.000143  0.041913 -0.058208 0.015815
63  0.000070 8.605236 -0.000025  0.101586 0.501824 -0.079696
64  -0.240486 2.066071 2.349267  -0.357331 2.461714 1.296081
65  -0.000091 7.721105 -0.000003  -0.208230 -0.126223 -0.116496
66  -0.000121 7.374865 -0.000048  -0.111018 0.046939 -0.046463
67  -0.000033 6.848062 -0.000025  0.273532 0.247522 0.299909
68  0.000037 7.777823 -0.000047  0.072921 0.186148 -0.052690
69  -0.000080 8.178051 0.000011  -0.087029 -0.422849 -0.381357
70  1.617604 3.431408 2.399266  -0.249454 2.569515 1.508572
71  -0.000165 5.476944 -0.000033  0.057730 0.074071 0.060285
72  -0.000092 6.060493 -0.000005  -0.015204 0.015650 -0.152065
73  0.000020 5.994250 0.000011  -0.126212 -0.157657 0.153303
74  -0.000078 7.076874 -0.000045  -0.008118 0.010385 0.036399
75  0.000006 7.089867 -0.000070  0.070875 0.098587 -0.025893
76  0.361111 0.886681 3.287746  -0.576374 1.978710 0.939011
77  -0.000066 6.686641 0.000220  -0.146569 0.414164 -0.327707
78  -0.000012 7.638018 0.000016  -0.079523 -0.025948 0.130955
79  -0.000037 7.290230 -0.000024  0.025325 -0.093908 0.023964
80  -0.000035 6.530367 0.000008  -0.261847 -0.300601 0.006735
81  0.000063 7.224880 0.000008  0.036505 0.032481 -0.175824
82  1.071898 3.225794 1.570116  -0.043809 2.859975 1.526248
83  0.000414 6.748900 -0.000066  -0.062702 0.083784 0.022202
84  -0.000055 8.002646 0.000028  -0.067495 -0.117209 -0.115601
85  0.000012 8.580571 -0.000096  0.088210 -0.007188 0.334605
86  0.000167 8.689831 -0.000041  0.065327 -0.412430 -0.134519
87  -1.514534 2.104635 0.318056  -0.024894 3.094490 1.569494
88  0.000194 6.982282 0.000010  -0.107590 -0.057625 -0.215719
89  -0.000010 8.382873 -0.000068  0.135033 -0.099914 0.287073
90  -0.000055 8.697670 0.000023  -0.148091 -0.510100 0.044839
91  -0.000137 8.921824 0.000076  -0.236828 -0.892636 0.098805
92  3.553616 -3.478045 2.409277  0.000819 0.762046 1.535311
93  0.000002 4.476902 -0.000008  -0.151015 -0.588331 0.377258
94  0.000033 4.514122 -0.000023  -0.228876 -2.996207 0.592369
95  0.000044 4.518384 -0.000024  0.143175 2.612778 0.693384
96  0.000023 3.598330 0.000024  -0.749308 0.869849 -0.773236
97  4.209918 -0.440345 1.018824  -1.799567 -1.842667 0.040304
98  4.265505 1.434229 -0.404994  -2.384933 0.391673 -1.219262
99  9.400235 0.017941 0.083202  -0.016950 -0.032391 0.032390
100  10.242425 0.033591 0.064479  2.053042 -0.169223 -0.125685
101  3.465858 -0.059678 0.016693  -0.016089 0.105975 0.027194
102  1.655591 -0.000023 0.000021  0.040690 -0.198517 -0.918884
103  0.960767 -0.000004 -0.000009  0.018697 -0.077773 -0.787709
104  3.462029 -0.064245 0.939909  0.316648 -0.070174 0.031375
105  1.497182 -0.000008 0.000017  -0.465030 -0.145801 -0.359638
106  0.793760 0.000000 -0.000003  -0.023174 0.043630 -0.730043
107  0.591663 -0.460691 0.835207  -0.998976 -0.654565 -0.477416
108  1.556138 0.000001 0.000000  -0.190373 0.081480 0.349973
109  1.135906 0.000014 0.000004  -0.017174 -0.043979 0.207747
110  3.084270 -0.668820 -1.257084  -0.570469 0.154711 -0.762372
111  1.064198 -0.000003 0.000005  -0.077902 0.129860 -1.490420
112  0.640336 0.000004 -0.000009  -0.043309 0.083917 -1.147870
113  3.396822 -0.242137 -0.708688  -0.276950 0.187593 -0.366796
114  1.532967 0.000010 0.000005  0.022485 -0.009571 -1.301201
115  0.832976 -0.000001 -0.000002  0.012311 0.002370 -1.308525
116  4.209942 -0.440341 -1.019279  2.007152 2.009826 0.221005
117  4.266747 1.424939 0.424938  2.004741 -0.413900 -1.083247
118  9.398566 0.011946 -0.082517  0.015376 0.033694 0.011023
119  10.242439 0.028177 -0.062910  -1.978007 0.157669 0.445144
120  3.465745 -0.067527 0.002268  -0.236666 0.250305 -1.664845
121  1.655558 0.000006 0.000005  -0.165763 0.184653 -1.176162
122  0.960906 0.000006 0.000000  -0.018934 0.176619 -0.890997
123  3.466856 -0.077780 -0.920909  -0.489683 0.120579 -1.699156
124  1.497260 -0.000036 -0.000022  -0.583150 0.323342 -1.032070
125  0.793785 -0.000007 0.000001  -0.224980 0.388706 -0.772652
126  0.595077 -0.467150 -0.829176  2.469572 0.673961 -0.723598
127  1.555673 0.000014 -0.000002  0.637662 0.520248 1.171332
128  1.136809 -0.000001 -0.000001  0.578349 0.458565 1.086122
129  3.075970 -0.667967 1.277701  0.602872 0.235138 -1.369519
130  1.064592 0.000019 0.000011  0.026752 -0.117391 -0.831400
131  0.640362 -0.000016 -0.000002  -0.104291 -0.023770 -0.471510
132  3.392407 -0.245368 0.728377  0.126351 0.325410 -1.762077
133  1.532738 -0.000009 -0.000002  0.007389 0.016566 -0.812465
134  0.833145 0.000010 0.000005  -0.082768 -0.069998 -1.040855
135  3.590111 -3.090297 1.193973  1.635457 1.210566 1.548541
136  3.589561 -3.089880 -1.196372  -1.505736 1.210473 -1.592853
137  -0.436558 4.719023 -0.001075  -0.000591 -1.570733 1.692931
138  -0.000001 2.775451 -0.000238  -0.135089 0.000001 -0.000000
139  -0.000000 3.189771 0.000010  0.207820 -0.000000 0.000000
140  0.000000 3.504652 0.000048  -0.261876 0.000000 -0.000000
141  -0.000001 2.863205 -0.000002  -0.051268 -0.000000 -0.000000
time 5
0  -0.000000 -0.002784 42.000000  1.570862 0.000000 -0.000000
1  0.002636 43.025146 0.734438  2.363932 -0.281766 0.218636
2  3.061859 -4.181012 -0.610803  1.096353 -0.945597 1.775972
3  18.476774 0.000159 -0.000001  -0.118537 -0.106148 2.526886
4  17.490088 0.000118 0.000004  0.096765 0.142601 -1.217154
5  -3.065328 -4.183578 -0.611480  -1.505256 -0.241771 -1.780156
6  18.474857 -0.000032 -0.000009  0.003935 0.002057 0.045053
7  17.489584 0.001908 -0.000007  -0.212865 -0.222395 -1.065493
8  -0.000115 -0.048881 -0.576225  1.461951 0.219392 1.547451
9  3.224488 0.767052 0.000494  -0.079238 -0.081673 0.037619
10  3.223912 0.226402 -0.001944  -0.025762 -0.030433 0.024330
11  5.187321 -1.262563 -0.001177  0.000012 0.000066 0.194111
12  6.928407 -1.935313 -0.000228  -3.097428 0.004137 0.422876
13  3.236363 1.079613 0.000057  -0.075760 0.056465 1.056435
14  0.833763 3.805353 0.692956  -0.040492 0.554884 1.469873
15  0.000042 6.792207 0.000040  0.007991 0.036070 -0.011408
16  -0.000064 7.744815 0.000019  -0.017442 -0.155305 0.068152
17  0.000073 7.809702 0.000018  -0.033636 0.005026 0.006141
18  -0.000032 7.867671 0.000020  -0.073330 -0.127909 0.026376
19  3.494702 -1.749095 -3.006912  0.152545 2.070419 1.936947
20  0.000119 4.478323 0.000019  -0.194651 0.310432 -0.234993
21  0.000050 4.636116 -0.000033  0.035820 0.324591 -0.151769
22  -0.000042 5.008652 0.000011  0.075994 -0.286563 0.276092
23  0.000063 4.781164 0.000012  0.904403 -2.690903 -0.015798
24  2.253041 1.989057 -3.350106  -1.523630 1.324498 0.112401
25  0.000162 6.589463 0.000165  0.206354 -0.002129 -0.080395
26  0.000042 7.491413 0.000040  -0.333512 0.184455 -0.191167
27  0.000025 7.660305 -0.000057  -0.063177 0.127194 -0.062117
28  0.000004 7.256270 0.000019  -0.052939 -0.487830 0.313813
29  -0.791159 2.265117 -1.234655  -0.753899 1.136377 0.824673
30  -0.000256 8.572263 -0.000092  -0.222842 -0.296789 0.176502
31  -0.000093 8.117212 0.000049  0.072255 0.772520 -0.285588
32  -0.000082 8.230032 -0.000072  -0.080491 -0.347232 0.072253
33  0.000061 7.366724 0.000054  -0.015395 -0.663893 0.062742
34  0.224217 0.240124 -3.218158  -0.877383 1.468889 0.577824
35  -0.000101 7.721050 -0.000309  -0.283828 0.060497 -0.167555
36  -0.000030 7.374855 0.000002  0.007537 -0.195021 0.049539
37  0.000076 6.848103 0.000009  0.005484 0.006496 -0.033649
38  -0.000050 7.777864 0.000011  -0.186096 0.182474 -0.152846
39  -1.514466 2.104648 -1.150167  -0.029088 0.541319 1.555678
40  -0.000168 6.982348 -0.000077  -0.199702 -0.041212 0.153490
41  0.000037 8.382863 -0.000073  0.044866 0.587987 -0.257962
42  0.000010 8.697701 -0.000028  -0.102637 -0.474318 0.290946
43  0.000057 8.921805 -0.000003  -0.076259 0.581004 -0.195606
44  1.196193 2.899154 -2.353086  -0.449716 1.030105 1.287428
45  0.000108 5.476941 0.000004  0.285574 -0.099352 -0.038446
46  -0.000075 6.060435 -0.000090  -0.155030 -0.575031 0.384612
47  0.000015 5.994261 0.000028  0.033946 0.288574 -0.067729
48  -0.000005 6.100486 0.000004  -0.068403 0.299274 -0.162151
49  0.000036 6.916759 0.000010  -0.096316 0.220533 -0.107966
50  0.000148 6.435059 -0.000048  -0.037458 0.171630 -0.116574
51  1.092798 3.649509 -1.738794  -0.148600 0.876612 1.445020
52  -0.000133 6.792201 -0.000101  0.008284 0.107792 -0.048643
53  -0.000088 7.744778 -0.000030  0.057137 -0.256893 0.015458
54  0.000085 9.115021 -0.000035  -0.020393 0.256253 -0.142636
55  3.494520 -1.749104 3.007064  0.118402 1.106974 1.813811
56  0.000017 4.323835 0.000090  -0.229905 -0.770942 0.449225
57  0.000029 4.872903 -0.000021  0.367238 -0.664053 -0.254030
58  0.000004 5.056652 0.000091  -0.511237 0.856586 -0.546324
59  2.292468 1.708613 3.661675  -1.762558 1.789111 -0.218971
60  -0.000173 6.589441 0.000278  -0.007132 -0.169123 0.176907
61  0.000173 7.491495 -0.000150  -0.132414 -0.107098 0.179329
62  -0.000139 8.249660 0.000144  0.041913 -0.058208 0.015815
63  0.000070 8.605235 -0.000024  0.101586 0.501824 -0.079696
64  -0.240486 2.066071 2.349267  -0.357331 2.461714 1.296081
65  -0.000091 7.721105 -0.000004  -0.208230 -0.126223 -0.116496
66  -0.000122 7.374865 -0.000048  -0.111018 0.046939 -0.046463
67  -0.000033 6.848062 -0.000024  0.273532 0.247522 0.299909
68  0.000036 7.777823 -0.000046  0.072921 0.186148 -0.052690
69  -0.000084 8.178053 0.000011  -0.087029 -0.422849 -0.381357
70  1.617604 3.431408 2.399265  -0.249454 2.569515 1.508572
71  -0.000164 5.476943 -0.000029  0.057730 0.074071 0.060285
72  -0.000092 6.060493 -0.000005  -0.015204 0.015650 -0.152065
73  0.000020 5.994250 0.000011  -0.126212 -0.157657 0.153303
74  -0.000078 7.076874 -0.000044  -0.008118 0.010385 0.036399
75  0.000006 7.089867 -0.000069  0.070875 0.098587 -0.025893
76  0.361111 0.886681 3.287746  -0.576374 1.978710 0.939011
77  -0.000067 6.686642 0.000220  -0.146569 0.414164 -0.327707
78  -0.000009 7.638018 0.000018  -0.079523 -0.025948 0.130955
79  -0.000035 7.290229 -0.000023  0.025325 -0.093908 0.023964
80  -0.000035 6.530365 0.000007  -0.261847 -0.300601 0.006735
81  0.000064 7.224879 0.000005  0.036505 0.032481 -0.175824
82  1.071898 3.225794 1.570115  -0.043809 2.859975 1.526248
83  0.000414 6.748901 -0.000066  -0.062702 0.083784 0.022202
84  -0.000055 8.002646 0.000027  -0.067495 -0.117209 -0.115601
85  0.000012 8.580571 -0.000096  0.088210 -0.007188 0.334605
86  0.000167 8.689831 -0.000041  0.065327 -0.412430 -0.134519
87  -1.514534 2.104635 0.318056  -0.024894 3.094490 1.569494
88  0.000190 6.982280 0.000011  -0.107590 -0.057625 -0.215719
89  -0.000010 8.382872 -0.000068  0.135033 -0.099914 0.287073
90  -0.000055 8.697670 0.000022  -0.148091 -0.510100 0.044839
91  -0.000137 8.921824 0.000076  -0.236828 -0.892636 0.098805
92  3.553617 -3.478047 2.409277  0.000819 0.762046 1.535311
93  0.000001 4.476901 -0.000008  -0.151015 -0.588331 0.377258
94  0.000033 4.514122 -0.000023  -0.228876 -2.996207 0.592369
95  0.000042 4.518385 -0.000024  0.143175 2.612778 0.693384
96  0.000023 3.598330 0.000024  -0.749308 0.869849 -0.773236
97  4.209918 -0.440345 1.018823  -1.799567 -1.842667 0.040304
98  4.265504 1.434229 -0.404991  -2.384933 0.391673 -1.219262
99  9.400233 0.017940 0.083202  -0.016950 -0.032391 0.032390
100  10.242425 0.033592 0.064479  2.053042 -0.169223 -0.125685
101  3.465858 -0.059678 0.016689  -0.016089 0.105975 0.027194
102  1.655591 -0.000023 0.000021  0.040690 -0.198517 -0.918884
103  0.960767 -0.000003 -0.000007  0.018696 -0.077773 -0.787709
104  3.462029 -0.064246 0.939905  0.316648 -0.070174 0.031375
105  1.497182 -0.000008 0.000016  -0.465030 -0.145801 -0.359638
106  0.793764 0.000001 -0.000003  -0.023174 0.043630 -0.730043
107  0.591667 -0.460691 0.835201  -0.998976 -0.654565 -0.477416
108  1.556136 -0.000002 0.000001  -0.190373 0.081480 0.349973
109  1.135902 0.000018 0.000004  -0.017174 -0.043979 0.207747
110  3.084270 -0.668821 -1.257088  -0.570469 0.154711 -0.762372
111  1.064198 -0.000006 0.000006  -0.077902 0.129860 -1.490420
112  0.640339 0.000004 -0.000009  -0.043309 0.083917 -1.147870
113  3.396819 -0.242138 -0.708692  -0.276950 0.187593 -0.366796
114  1.532967 0.000010 0.000005  0.022485 -0.009571 -1.301201
115  0.832974 -0.000005 -0.000002  0.012311 0.002370 -1.308525
116  4.209942 -0.440341 -1.019279  2.007152 2.009826 0.221005
117  4.266746 1.424941 0.424935  2.004741 -0.413900 -1.083247
118  9.398566 0.011950 -0.082516  0.015376 0.033694 0.011023
119  10.242435 0.028175 -0.062909  -1.978007 0.157669 0.445144
120  3.465745 -0.067527 0.002268  -0.236666 0.250305 -1.664845
121  1.655558 0.000003 0.000006  -0.165763 0.184653 -1.176162
122  0.960906 0.000005 0.000001  -0.018934 0.176619 -0.890997
123  3.466856 -0.077781 -0.920909  -0.489683 0.120579 -1.699156
124  1.497261 -0.000036 -0.000022  -0.583150 0.323342 -1.032070
125  0.793785 -0.000007 -0.000001  -0.224980 0.388706 -0.772652
126  0.595077 -0.467151 -0.829176  2.469572 0.673961 -0.723598
127  1.555675 0.000016 -0.000006  0.637662 0.520248 1.171332
128  1.136811 -0.000009 -0.000001  0.578349 0.458565 1.086122
129  3.075970 -0.667967 1.277701  0.602872 0.235138 -1.369519
130  1.064593 0.000019 0.000011  0.026752 -0.117391 -0.831400
131  0.640358 -0.000012 -0.000004  -0.104291 -0.023770 -0.471510
132  3.392407 -0.245368 0.728377  0.126351 0.325410 -1.762077
133  1.532738 -0.000005 -0.000002  0.007389 0.016566 -0.812465
134  0.833141 0.000010 0.000005  -0.082768 -0.069998 -1.040855
135  3.590111 -3.090297 1.193972  1.635457 1.210566 1.548541
136  3.589561 -3.089880 -1.196373  -1.505736 1.210473 -1.592853
137  -0.436558 4.719023 -0.001076  -0.000532 -1.570733 1.692916
138  0.000000 2.775451 -0.000240  -0.135089 0.000001 -0.000000
139  -0.000000 3.189771 0.000010  0.207820 -0.000000 0.000000
140  0.000001 3.504652 0.000048  -0.261876 0.000000 -0.000000
141  -0.000000 2.863205 -0.000002  -0.051268 -0.000000 -0.000000
time 6
0  -0.000000 -0.002784 42.000000  1.570862 0.000000 -0.000000
1  0.002636 43.025146 0.734438  2.363932 -0.281766 0.218636
2  3.061859 -4.181012 -0.610803  1.096353 -0.945597 1.775972
3  18.476774 0.000159 -0.000001  -0.118537 -0.106148 2.526886
4  17.490088 0.000118 0.000004  0.096765 0.142601 -1.217154
5  -3.065328 -4.183578 -0.611480  -1.505256 -0.241771 -1.780156
6  18.474857 -0.000032 -0.000009  0.003935 0.002057 0.045053
7  17.489584 0.001908 -0.000007  -0.212865 -0.222395 -1.065493
8  -0.000115 -0.048881 -0.576225  1.461951 0.219392 1.547451
9  3.224488 0.767052 0.000494  -0.079238 -0.081673 0.037619
10  3.223912 0.226402 -0.001944  -0.025762 -0.030433 0.024330
11  5.187321 -1.262563 -0.001177  0.000012 0.000066 0.194111
12  6.928407 -1.935313 -0.000228  -3.097428 0.004137 0.422876
13  3.236363 1.079613 0.000057  -0.075760 0.056465 1.056435
14  0.833763 3.805353 0.692956  -0.040492 0.554884 1.469873
15  0.000042 6.792207 0.000040  0.007991 0.036070 -0.011408
16  -0.000064 7.744815 0.000019  -0.017442 -0.155305 0.068152
17  0.000073 7.809702 0.000018  -0.033636 0.005026 0.006141
18  -0.000032 7.867671 0.000020  -0.073330 -0.127909 0.026376
19  3.494702 -1.749095 -3.006912  0.152545 2.070419 1.936947
20  0.000119 4.478323 0.000019  -0.194651 0.310432 -0.234993
21  0.000050 4.636117 -0.000033  0.035820 0.324591 -0.151769
22  -0.000042 5.008652 0.000011  0.075994 -0.286563 0.276092
23  0.000063 4.781164 0.000012  0.904403 -2.690903 -0.015798
24  2.253041 1.989057 -3.350106  -1.523630 1.324498 0.112401
25  0.000162 6.589464 0.000165  0.206354 -0.002129 -0.080395
26  0.000042 7.491413 0.000040  -0.333512 0.184455 -0.191167
27  0.000025 7.660305 -0.000057  -0.063177 0.127194 -0.062117
28  0.000005 7.256271 0.000023  -0.052939 -0.487830 0.313813
29  -0.791157 2.265117 -1.234655  -0.753899 1.136377 0.824673
30  -0.000257 8.572262 -0.000091  -0.222842 -0.296789 0.176502
31  -0.000092 8.117211 0.000046  0.072255 0.772520 -0.285588
32  -0.000083 8.230032 -0.000072  -0.080491 -0.347232 0.072253
33  0.000061 7.366723 0.000058  -0.015395 -0.663893 0.062742
34  0.224217 0.240124 -3.218158  -0.877383 1.468889 0.577824
35  -0.000101 7.721050 -0.000309  -0.283828 0.060497 -0.167555
36  -0.000030 7.374855 0.000002  0.007537 -0.195021 0.049539
37  0.000076 6.848103 0.000009  0.005484 0.006496 -0.033649
38  -0.000050 7.777864 0.000011  -0.186096 0.182474 -0.152846
39  -1.514466 2.104648 -1.150167  -0.029088 0.541319 1.555678
40  -0.000168 6.982349 -0.000077  -0.199702 -0.041212 0.153490
41  0.000037 8.382862 -0.000073  0.044866 0.587987 -0.257962
42  0.000010 8.697701 -0.000028  -0.102637 -0.474318 0.290946
43  0.000057 8.921804 -0.000003  -0.076259 0.581004 -0.195606
44  1.196193 2.899154 -2.353086  -0.449716 1.030105 1.287428
45  0.000108 5.476941 0.000004  0.285574 -0.099352 -0.038446
46  -0.000075 6.060436 -0.000090  -0.155030 -0.575031 0.384612
47  0.000015 5.994260 0.000028  0.033946 0.288574 -0.067729
48  -0.000005 6.100486 0.000004  -0.068403 0.299274 -0.162151
49  0.000036 6.916758 0.000010  -0.096316 0.220533 -0.107966
50  0.000151 6.435059 -0.000044  -0.037458 0.171630 -0.116574
51  1.092798 3.649509 -1.738794  -0.148600 0.876612 1.445020
52  -0.000133 6.792200 -0.000101  0.008284 0.107792 -0.048643
53  -0.000088 7.744778 -0.000030  0.057137 -0.256893 0.015458
54  0.000085 9.115021 -0.000035  -0.020393 0.256253 -0.142636
55  3.494520 -1.749104 3.007064  0.118402 1.106974 1.813811
56  0.000017 4.323835 0.000090  -0.229905 -0.770942 0.449225
57  0.000029 4.872903 -0.000021  0.367238 -0.664053 -0.254030
58  0.000004 5.056652 0.000091  -0.511237 0.856586 -0.546324
59  2.292468 1.708613 3.661675  -1.762558 1.789111 -0.218971
60  -0.000173 6.589441 0.000278  -0.007132 -0.169123 0.176907
61  0.000173 7.491495 -0.000150  -0.132414 -0.107098 0.179329
62  -0.000139 8.249660 0.000144  0.041913 -0.058208 0.015815
63  0.000070 8.605235 -0.000024  0.101586 0.501824 -0.079696
64  -0.240486 2.066071 2.349267  -0.357331 2.461714 1.296081
65  -0.000091 7.721105 -0.000004  -0.208230 -0.126223 -0.116496
66  -0.000122 7.374865 -0.000048  -0.111018 0.046939 -0.046463
67  -0.000033 6.848062 -0.000024  0.273532 0.247522 0.299909
68  0.000036 7.777823 -0.000046  0.072921 0.186148 -0.052690
69  -0.000084 8.178053 0.000011  -0.087029 -0.422849 -0.381357
70  1.617605 3.431408 2.399265  -0.249454 2.569515 1.508572
71  -0.000164 5.476943 -0.000029  0.057730 0.074071 0.060285
72  -0.000091 6.060493 -0.000005  -0.015204 0.015650 -0.152065
73  0.000020 5.994250 0.000011  -0.126212 -0.157657 0.153303
74  -0.000078 7.076873 -0.000044  -0.008118 0.010385 0.036400
75  0.000006 7.089866 -0.000069  0.070875 0.098587 -0.025893
76  0.361111 0.886681 3.287746  -0.576374 1.978710 0.939011
77  -0.000067 6.686642 0.000220  -0.146569 0.414164 -0.327707
78  -0.000009 7.638018 0.000018  -0.079523 -0.025948 0.130955
79  -0.000035 7.290229 -0.000023  0.025325 -0.093908 0.023964
80  -0.000035 6.530365 0.000007  -0.261847 -0.300601 0.006735
81  0.000064 7.224879 0.000005  0.036505 0.032481 -0.175824
82  1.071898 3.225794 1.570115  -0.043809 2.859975 1.526248
83  0.000414 6.748900 -0.000066  -0.062702 0.083784 0.022202
84  -0.000055 8.002646 0.000027  -0.067495 -0.117209 -0.115601
85  0.000012 8.580571 -0.000096  0.088210 -0.007188 0.334605
86  0.000167 8.689831 -0.000041  0.065327 -0.412430 -0.134519
87  -1.514534 2.104635 0.318056  -0.024894 3.094490 1.569494
88  0.000190 6.982280 0.000011  -0.107590 -0.057625 -0.215719
89  -0.000010 8.382872 -0.000068  0.135033 -0.099914 0.287073
90  -0.000055 8.697670 0.000022  -0.148091 -0.510100 0.044839
91  -0.000137 8.921824 0.000076  -0.236828 -0.892636 0.098805
92  3.553617 -3.478047 2.409277  0.000819 0.762046 1.535311
93  0.000001 4.476901 -0.000008  -0.151015 -0.588331 0.377258
94  0.000033 4.514122 -0.000023  -0.228876 -2.996207 0.592369
95  0.000042 4.518385 -0.000024  0.143175 2.612778 0.693384
96  0.000023 3.598330 0.000024  -0.749308 0.869849 -0.773236
97  4.209918 -0.440345 1.018823  -1.799567 -1.842667 0.040304
98  4.265504 1.434229 -0.404991  -2.384933 0.391673 -1.219262
99  9.400233 0.017940 0.083202  -0.016950 -0.032391 0.032390
100  10.242425 0.033592 0.064479  2.053042 -0.169223 -0.125685
101  3.465858 -0.059678 0.016689  -0.016089 0.105975 0.027194
102  1.655591 -0.000023 0.000021  0.040690 -0.198517 -0.918884
103  0.960767 -0.000003 -0.000007  0.018696 -0.077773 -0.787709
104  3.462029 -0.064246 0.939905  0.316648 -0.070174 0.031375
105  1.497182 -0.000008 0.000016  -0.465030 -0.145801 -0.359638
106  0.793764 0.000001 -0.000003  -0.023174 0.043630 -0.730043
107  0.591667 -0.460691 0.835201  -0.998976 -0.654565 -0.477416
108  1.556136 -0.000002 0.000001  -0.190373 0.081480 0.349973
109  1.135902 0.000018 0.000004  -0.017174 -0.043979 0.207747
110  3.084270 -0.668821 -1.257088  -0.570469 0.154711 -0.762372
111  1.064198 -0.000006 0.000006  -0.077902 0.129860 -1.490420
112  0.640339 0.000004 -0.000009  -0.043309 0.083917 -1.147870
113  3.396819 -0.242138 -0.708692  -0.276950 0.187593 -0.366796
114  1.532967 0.000010 0.000005  0.022485 -0.009571 -1.301201
115  0.832974 -0.000005 -0.000002  0.012311 0.002370 -1.308525
116  4.209942 -0.440341 -1.019279  2.007152 2.009826 0.221005
117  4.266746 1.424941 0.424935  2.004741 -0.413900 -1.083247
118  9.398566 0.011950 -0.082516  0.015376 0.033694 0.011023
119  10.242435 0.028175 -0.062909  -1.978007 0.157669 0.445144
120  3.465745 -0.067527 0.002268  -0.236666 0.250305 -1.664845
121  1.655558 0.000003 0.000006  -0.165763 0.184653 -1.176162
122  0.960906 0.000005 0.000001  -0.018934 0.176619 -0.890997
123  3.466856 -0.077781 -0.920909  -0.489683 0.120579 -1.699156
124  1.497261 -0.000036 -0.000022  -0.583150 0.323342 -1.032070
125  0.793785 -0.000007 -0.000001  -0.224980 0.388706 -0.772652
126  0.595077 -0.467151 -0.829176  2.469572 0.673961 -0.723598
127  1.555675 0.000016 -0.000006  0.637662 0.520248 1.171332
128  1.136811 -0.000009 -0.000001  0.578349 0.458565 1.086122
129  3.075970 -0.667967 1.277701  0.602872 0.235138 -1.369519
130  1.064593 0.000019 0.000011  0.026752 -0.117391 -0.831400
131  0.640358 -0.000012 -0.000004  -0.104291 -0.023770 -0.471510
132  3.392407 -0.245368 0.728377  0.126351 0.325410 -1.762077
133  1.532738 -0.000005 -0.000002  0.007389 0.016566 -0.812465
134  0.833141 0.000010 0.000005  -0.082768 -0.069998 -1.040855
135  3.590111 -3.090297 1.193972  1.635457 1.210566 1.548541
136  3.589561 -3.089880 -1.196373  -1.505736 1.210473 -1.592853
137  -0.436558 4.719023 -0.001076  -0.000532 -1.570733 1.692982
138  0.000000 2.775451 -0.000240  -0.135089 0.000001 -0.000000
139  0.000000 3.189769 0.000010  0.207820 -0.000000 0.000000
140  0.000001 3.504652 0.000048  -0.261876 0.000000 -0.000000
141  -0.000000 2.863205 -0.000002  -0.051268 -0.000000 -0.000000
end
