version 1
nodes
0 "ValveBiped.Bip01" -1
1 "ValveBiped.Bip01_Pelvis" 0
2 "ValveBiped.Bip01_L_Thigh" 1
3 "ValveBiped.Bip01_L_Calf" 2
4 "ValveBiped.Bip01_L_Foot" 3
5 "ValveBiped.Bip01_R_Thigh" 1
6 "ValveBiped.Bip01_R_Calf" 5
7 "ValveBiped.Bip01_R_Foot" 6
8 "ValveBiped.Bip01_Spine" 1
9 "ValveBiped.Bip01_Spine1" 8
10 "ValveBiped.Bip01_Spine2" 9
11 "ValveBiped.Bip01_Spine4" 10
12 "ValveBiped.Bip01_Neck1" 11
13 "ValveBiped.Bip01_Head1" 12
14 "HBN_CK01" 13
15 "HBN_CK02" 14
16 "HBN_CK03" 15
17 "HBN_CK04" 16
18 "HBN_CK05" 17
19 "HBn_LF01" 13
20 "HBn_LF02" 19
21 "HBn_LF03" 20
22 "HBn_LF04" 21
23 "HBn_LF05" 22
24 "HBN_LMA01" 13
25 "HBN_LMA02" 24
26 "HBN_LMA03" 25
27 "HBN_LMA04" 26
28 "HBN_LMA05" 27
29 "HBN_LMB01" 13
30 "HBN_LMB02" 29
31 "HBN_LMB03" 30
32 "HBN_LMB04" 31
33 "HBN_LMB05" 32
34 "HBN_LMC01" 13
35 "HBN_LMC02" 34
36 "HBN_LMC03" 35
37 "HBN_LMC04" 36
38 "HBN_LMC05" 37
39 "HBN_LMD01" 13
40 "HBN_LMD02" 39
41 "HBN_LMD03" 40
42 "HBN_LMD04" 41
43 "HBN_LMD05" 42
44 "HBN_LME01" 13
45 "HBN_LME02" 44
46 "HBN_LME03" 45
47 "HBN_LME04" 46
48 "HBN_LME05" 47
49 "HBN_LME06" 48
50 "HBN_LME07" 49
51 "HBN_LMF01" 13
52 "HBN_LMF02" 51
53 "HBN_LMF03" 52
54 "HBN_LMF04" 53
55 "HBn_RF01" 13
56 "HBn_RF02" 55
57 "HBn_RF03" 56
58 "HBn_RF04" 57
59 "HBN_RMA01" 13
60 "HBN_RMA02" 59
61 "HBN_RMA03" 60
62 "HBN_RMA04" 61
63 "HBN_RMA05" 62
64 "HBN_RMB01" 13
65 "HBN_RMB02" 64
66 "HBN_RMB03" 65
67 "HBN_RMB04" 66
68 "HBN_RMB05" 67
69 "HBN_RMB06" 68
70 "HBN_RMC01" 13
71 "HBN_RMC02" 70
72 "HBN_RMC03" 71
73 "HBN_RMC04" 72
74 "HBN_RMC05" 73
75 "HBN_RMC06" 74
76 "HBN_RMD01" 13
77 "HBN_RMD02" 76
78 "HBN_RMD03" 77
79 "HBN_RMD04" 78
80 "HBN_RMD05" 79
81 "HBN_RMD06" 80
82 "HBN_RME01" 13
83 "HBN_RME02" 82
84 "HBN_RME03" 83
85 "HBN_RME04" 84
86 "HBN_RME05" 85
87 "HBN_RMF01" 13
88 "HBN_RMF02" 87
89 "HBN_RMF03" 88
90 "HBN_RMF04" 89
91 "HBN_RMF05" 90
92 "HBn_RFF01" 13
93 "HBn_RFF02" 92
94 "HBn_RFF03" 93
95 "HBn_RFF04" 94
96 "HBn_RFF05" 95
97 "ValveBiped.Bip01_L_Clavicle" 11
98 "ValveBiped.Bip01_L_UpperArm" 97
99 "ValveBiped.Bip01_L_Forearm" 98
100 "ValveBiped.Bip01_L_Hand" 99
101 "ValveBiped.Bip01_L_Finger2" 100
102 "ValveBiped.Bip01_L_Finger21" 101
103 "ValveBiped.Bip01_L_Finger22" 102
104 "ValveBiped.Bip01_L_Finger1" 100
105 "ValveBiped.Bip01_L_Finger11" 104
106 "ValveBiped.Bip01_L_Finger12" 105
107 "ValveBiped.Bip01_L_Finger0" 100
108 "ValveBiped.Bip01_L_Finger01" 107
109 "ValveBiped.Bip01_L_Finger02" 108
110 "ValveBiped.Bip01_L_Finger4" 100
111 "ValveBiped.Bip01_L_Finger41" 110
112 "ValveBiped.Bip01_L_Finger42" 111
113 "ValveBiped.Bip01_L_Finger3" 100
114 "ValveBiped.Bip01_L_Finger31" 113
115 "ValveBiped.Bip01_L_Finger32" 114
116 "ValveBiped.Bip01_R_Clavicle" 11
117 "ValveBiped.Bip01_R_UpperArm" 116
118 "ValveBiped.Bip01_R_Forearm" 117
119 "ValveBiped.Bip01_R_Hand" 118
120 "ValveBiped.Bip01_R_Finger2" 119
121 "ValveBiped.Bip01_R_Finger21" 120
122 "ValveBiped.Bip01_R_Finger22" 121
123 "ValveBiped.Bip01_R_Finger1" 119
124 "ValveBiped.Bip01_R_Finger11" 123
125 "ValveBiped.Bip01_R_Finger12" 124
126 "ValveBiped.Bip01_R_Finger0" 119
127 "ValveBiped.Bip01_R_Finger01" 126
128 "ValveBiped.Bip01_R_Finger02" 127
129 "ValveBiped.Bip01_R_Finger4" 119
130 "ValveBiped.Bip01_R_Finger41" 129
131 "ValveBiped.Bip01_R_Finger42" 130
132 "ValveBiped.Bip01_R_Finger3" 119
133 "ValveBiped.Bip01_R_Finger31" 132
134 "ValveBiped.Bip01_R_Finger32" 133
135 "lPectoral" 10
136 "rPectoral" 10
137 "Front Cloth" 10
138 "Front Cloth.001" 137
139 "Front Cloth.002" 138
140 "Front Cloth.003" 139
141 "Front Cloth.004" 140
end
skeleton
time 0
0  -0.939396 -1.460412 33.246418  1.570862 0.000000 -0.000000
1  0.002636 43.025146 0.734438  0.481875 0.051360 0.009010
2  3.061857 -4.181016 -0.610802  -1.412078 0.181068 -1.591622
3  18.476772 0.000159 -0.000001  -0.003919 -0.002156 0.046361
4  17.490086 0.000115 0.000004  0.122009 0.036710 -0.699219
5  -3.065330 -4.183579 -0.611477  -1.218383 -1.669971 -1.694178
6  18.474855 -0.000029 -0.000007  0.124450 0.102552 2.613962
7  17.489586 0.001917 -0.000006  0.098399 -0.001159 -1.226238
8  -0.000117 -0.048886 -0.576226  1.476451 0.140548 1.562735
9  3.224480 0.767046 0.000496  0.067224 -0.048412 0.103362
10  3.223912 0.226398 -0.001944  -0.048228 0.041464 0.226472
11  5.187319 -1.262556 -0.001177  0.000012 0.000066 0.194111
12  6.928409 -1.935314 -0.000228  3.110429 0.052229 0.422685
13  3.236368 1.079610 0.000057  0.137851 0.011191 0.797439
14  0.833757 3.805354 0.692955  -0.040491 0.554884 1.469876
15  0.000039 6.792212 0.000038  0.007990 0.036071 -0.011408
16  -0.000067 7.744817 0.000016  -0.017441 -0.155305 0.068151
17  0.000074 7.809693 0.000019  -0.033636 0.005026 0.006140
18  -0.000026 7.867671 0.000018  -0.073330 -0.127910 0.026378
19  3.494696 -1.749092 -3.006912  0.152548 2.070419 1.936949
20  0.000119 4.478324 0.000018  -0.194660 0.310432 -0.234995
21  0.000048 4.636121 -0.000030  0.035821 0.324592 -0.151767
22  -0.000041 5.008647 0.000012  0.075999 -0.286565 0.276090
23  0.000063 4.781160 0.000010  0.904399 -2.690903 -0.015798
24  2.253033 1.989056 -3.350106  -1.523630 1.324498 0.112404
25  0.000162 6.589465 0.000168  0.206355 -0.002129 -0.080396
26  0.000042 7.491414 0.000039  -0.333512 0.184454 -0.191167
27  0.000025 7.660305 -0.000054  -0.063177 0.127194 -0.062117
28  0.000005 7.256269 0.000017  -0.052938 -0.487830 0.313812
29  -0.791164 2.265120 -1.234656  -0.753899 1.136376 0.824673
30  -0.000256 8.572262 -0.000095  -0.222844 -0.296789 0.176505
31  -0.000095 8.117217 0.000048  0.072256 0.772520 -0.285588
32  -0.000082 8.230037 -0.000069  -0.080490 -0.347232 0.072252
33  0.000058 7.366727 0.000053  -0.015397 -0.663892 0.062746
34  0.224216 0.240128 -3.218158  -0.877378 1.468889 0.577831
35  -0.000101 7.721050 -0.000311  -0.283828 0.060496 -0.167554
36  -0.000031 7.374850 -0.000003  0.007536 -0.195021 0.049538
37  0.000076 6.848097 0.000008  0.005484 0.006497 -0.033649
38  -0.000050 7.777863 0.000009  -0.186096 0.182474 -0.152847
39  -1.514469 2.104651 -1.150167  -0.029092 0.541320 1.555679
40  -0.000169 6.982354 -0.000079  -0.199699 -0.041213 0.153490
41  0.000039 8.382864 -0.000072  0.044865 0.587987 -0.257961
42  0.000013 8.697701 -0.000028  -0.102638 -0.474318 0.290946
43  0.000058 8.921803 -0.000003  -0.076257 0.581004 -0.195606
44  1.196189 2.899155 -2.353086  -0.449720 1.030104 1.287429
45  0.000107 5.476948 0.000007  0.285575 -0.099352 -0.038446
46  -0.000072 6.060431 -0.000090  -0.155022 -0.575031 0.384612
47  0.000017 5.994266 0.000030  0.033939 0.288573 -0.067731
48  -0.000006 6.100491 0.000003  -0.068405 0.299274 -0.162152
49  0.000034 6.916759 0.000010  -0.096318 0.220533 -0.107964
50  0.000149 6.435058 -0.000044  -0.037458 0.171631 -0.116573
51  1.092793 3.649515 -1.738794  -0.148600 0.876612 1.445020
52  -0.000123 6.792197 -0.000101  0.008284 0.107792 -0.048643
53  -0.000092 7.744777 -0.000031  0.057137 -0.256893 0.015458
54  0.000086 9.115023 -0.000037  -0.020393 0.256253 -0.142636
55  3.494514 -1.749102 3.007064  0.118400 1.106974 1.813813
56  0.000016 4.323837 0.000088  -0.229907 -0.770943 0.449223
57  0.000029 4.872897 -0.000021  0.367243 -0.664052 -0.254033
58  0.000005 5.056646 0.000092  -0.511236 0.856586 -0.546323
59  2.292466 1.708619 3.661675  -1.762559 1.789109 -0.218971
60  -0.000172 6.589443 0.000272  -0.007133 -0.169122 0.176910
61  0.000172 7.491488 -0.000149  -0.132414 -0.107097 0.179328
62  -0.000139 8.249662 0.000143  0.041916 -0.058209 0.015816
63  0.000066 8.605236 -0.000028  0.101581 0.501824 -0.079700
64  -0.240490 2.066074 2.349267  -0.357331 2.461714 1.296084
65  -0.000082 7.721107 -0.000003  -0.208229 -0.126223 -0.116493
66  -0.000122 7.374863 -0.000047  -0.111018 0.046939 -0.046466
67  -0.000036 6.848066 -0.000026  0.273531 0.247523 0.299907
68  0.000034 7.777824 -0.000043  0.072921 0.186147 -0.052687
69  -0.000087 8.178051 0.000009  -0.087029 -0.422849 -0.381357
70  1.617602 3.431410 2.399266  -0.249456 2.569515 1.508574
71  -0.000163 5.476943 -0.000029  0.057730 0.074072 0.060285
72  -0.000095 6.060492 -0.000007  -0.015204 0.015650 -0.152064
73  0.000027 5.994250 0.000011  -0.126213 -0.157657 0.153301
74  -0.000080 7.076861 -0.000047  -0.008117 0.010385 0.036399
75  0.000005 7.089868 -0.000069  0.070875 0.098587 -0.025893
76  0.361110 0.886683 3.287746  -0.576372 1.978709 0.939015
77  -0.000067 6.686642 0.000224  -0.146570 0.414164 -0.327708
78  -0.000011 7.638017 0.000013  -0.079523 -0.025948 0.130956
79  -0.000031 7.290227 -0.000021  0.025326 -0.093909 0.023962
80  -0.000035 6.530370 0.000003  -0.261848 -0.300601 0.006735
81  0.000064 7.224881 0.000009  0.036506 0.032481 -0.175823
82  1.071898 3.225801 1.570115  -0.043806 2.859975 1.526252
83  0.000415 6.748899 -0.000066  -0.062701 0.083783 0.022205
84  -0.000048 8.002640 0.000026  -0.067496 -0.117208 -0.115601
85  0.000012 8.580569 -0.000097  0.088212 -0.007187 0.334605
86  0.000169 8.689833 -0.000042  0.065327 -0.412429 -0.134518
87  -1.514535 2.104641 0.318055  -0.024895 3.094490 1.569502
88  0.000193 6.982283 0.000012  -0.107589 -0.057625 -0.215714
89  -0.000007 8.382871 -0.000067  0.135032 -0.099914 0.287071
90  -0.000060 8.697677 0.000023  -0.148090 -0.510100 0.044841
91  -0.000134 8.921824 0.000079  -0.236827 -0.892635 0.098805
92  3.553612 -3.478045 2.409277  0.000819 0.762046 1.535313
93  -0.000002 4.476902 -0.000009  -0.151002 -0.588331 0.377258
94  0.000033 4.514118 -0.000023  -0.228866 -2.996200 0.592370
95  0.000045 4.518379 -0.000022  0.143171 2.612778 0.693386
96  0.000021 3.598329 0.000027  -0.749301 0.869853 -0.773231
97  4.209919 -0.440342 1.018824  -1.816265 -1.840118 0.056386
98  4.265506 1.434230 -0.404993  -2.337414 0.282393 -0.628543
99  9.400235 0.017941 0.083201  -0.011244 -0.040658 -0.100170
100  10.242419 0.033591 0.064485  1.509763 -0.637506 0.289981
101  3.465858 -0.059682 0.016693  -0.019951 -0.100296 -0.303800
102  1.655594 -0.000019 0.000022  -0.043196 -0.060735 -0.230874
103  0.960770 0.000002 -0.000006  0.007467 0.144513 0.264194
104  3.462029 -0.064253 0.939910  0.335981 0.023792 -0.372355
105  1.497178 -0.000004 0.000022  -0.485638 0.063554 0.156562
106  0.793759 0.000009 -0.000002  0.003538 -0.026335 0.054296
107  0.591664 -0.460694 0.835207  -1.060269 -0.704806 -0.239932
108  1.556139 -0.000002 0.000003  -0.188719 0.087841 0.363648
109  1.135904 0.000020 0.000005  -0.024642 -0.087756 0.085502
110  3.084272 -0.668823 -1.257084  -0.536807 0.095314 -0.901934
111  1.064203 -0.000005 0.000009  0.021559 0.041297 -0.150253
112  0.640335 0.000008 -0.000010  -0.008124 -0.030225 0.178042
113  3.396824 -0.242139 -0.708689  -0.266362 -0.065097 -0.743576
114  1.532969 0.000008 0.000005  0.008556 0.003377 0.029851
115  0.832975 -0.000005 -0.000001  -0.003907 0.015946 -0.057184
116  4.209942 -0.440344 -1.019279  1.516975 1.879209 -0.232348
117  4.266745 1.424943 0.424941  2.637532 -0.181962 -0.424962
118  9.398569 0.011950 -0.082512  0.013639 0.036456 -0.030975
119  10.242441 0.028177 -0.062910  -1.503886 0.639094 0.285100
120  3.465749 -0.067530 0.002266  0.025773 0.096581 -0.303310
121  1.655562 0.000005 0.000005  0.040813 0.060953 -0.230276
122  0.960907 0.000006 0.000001  -0.010815 -0.142845 0.265281
123  3.466855 -0.077783 -0.920913  -0.333600 -0.028946 -0.372603
124  1.497258 -0.000033 -0.000021  -0.420036 -0.062696 0.157995
125  0.793789 -0.000007 -0.000002  0.028898 -0.217422 -0.037980
126  0.595079 -0.467155 -0.829178  2.362397 0.682119 -0.020695
127  1.555673 0.000017 -0.000011  0.303614 0.018000 0.374589
128  1.136810 -0.000008 -0.000000  -0.103123 -0.221945 0.194806
129  3.075973 -0.667972 1.277698  0.542378 -0.101757 -0.900817
130  1.064592 0.000018 0.000006  -0.034820 -0.047355 -0.148992
131  0.640366 -0.000018 -0.000005  0.009238 0.025665 0.178235
132  3.392412 -0.245375 0.728375  0.262453 0.056106 -0.744360
133  1.532735 -0.000010 0.000000  -0.005676 -0.003723 0.029993
134  0.833153 0.000009 0.000007  0.004176 -0.018298 -0.057140
135  3.590108 -3.090290 1.193972  1.635457 1.210566 1.548541
136  3.589558 -3.089874 -1.196373  -1.505736 1.210473 -1.592853
137  -0.436562 4.719028 -0.001076  -0.000561 -1.570733 1.692999
138  -0.000000 2.775452 -0.000234  -0.135089 0.000001 -0.000000
139  0.000000 3.189768 0.000005  0.207820 -0.000000 0.000000
140  0.000000 3.504655 0.000043  -0.261876 0.000000 -0.000000
141  -0.000000 2.863199 -0.000003  -0.051268 0.000000 -0.000000
time 1
0  -0.000000 0.000000 0.000000  1.570862 0.000000 -0.000000
1  0.002636 43.025146 0.734438  0.481875 0.051360 0.009010
2  3.061858 -4.181016 -0.610802  -1.412078 0.181068 -1.591622
3  18.476772 0.000159 -0.000001  -0.003919 -0.002156 0.046361
4  17.490086 0.000119 0.000004  0.122009 0.036710 -0.699219
5  -3.065330 -4.183580 -0.611479  -1.218383 -1.669971 -1.694178
6  18.474854 -0.000032 -0.000007  0.124450 0.102552 2.613962
7  17.489584 0.001914 -0.000006  0.098399 -0.001159 -1.226238
8  -0.000117 -0.048886 -0.576226  1.476451 0.140548 1.562735
9  3.224481 0.767046 0.000496  0.067224 -0.048412 0.103362
10  3.223916 0.226400 -0.001944  -0.048228 0.041464 0.226472
11  5.187316 -1.262560 -0.001177  0.000012 0.000066 0.194111
12  6.928411 -1.935314 -0.000228  3.110429 0.052229 0.422685
13  3.236368 1.079610 0.000057  0.137851 0.011191 0.797439
14  0.833760 3.805353 0.692955  -0.040491 0.554884 1.469876
15  0.000041 6.792209 0.000038  0.007990 0.036071 -0.011408
16  -0.000069 7.744816 0.000015  -0.017441 -0.155305 0.068151
17  0.000073 7.809698 0.000018  -0.033636 0.005026 0.006140
18  -0.000025 7.867675 0.000018  -0.073330 -0.127910 0.026377
19  3.494700 -1.749092 -3.006912  0.152548 2.070419 1.936949
20  0.000120 4.478316 0.000016  -0.194660 0.310432 -0.234995
21  0.000046 4.636117 -0.000029  0.035821 0.324592 -0.151767
22  -0.000043 5.008651 0.000014  0.075998 -0.286564 0.276090
23  0.000063 4.781165 0.000010  0.904399 -2.690903 -0.015798
24  2.253036 1.989056 -3.350106  -1.523630 1.324498 0.112403
25  0.000161 6.589463 0.000169  0.206355 -0.002129 -0.080396
26  0.000042 7.491414 0.000044  -0.333512 0.184454 -0.191167
27  0.000026 7.660305 -0.000058  -0.063177 0.127194 -0.062117
28  0.000007 7.256266 0.000017  -0.052938 -0.487830 0.313812
29  -0.791157 2.265120 -1.234655  -0.753899 1.136376 0.824673
30  -0.000259 8.572264 -0.000089  -0.222844 -0.296789 0.176505
31  -0.000093 8.117216 0.000048  0.072256 0.772520 -0.285588
32  -0.000083 8.230034 -0.000071  -0.080490 -0.347232 0.072252
33  0.000059 7.366720 0.000055  -0.015397 -0.663892 0.062746
34  0.224220 0.240128 -3.218157  -0.877378 1.468889 0.577831
35  -0.000101 7.721052 -0.000312  -0.283828 0.060496 -0.167554
36  -0.000032 7.374853 0.000001  0.007536 -0.195021 0.049538
37  0.000077 6.848101 0.000008  0.005484 0.006497 -0.033649
38  -0.000051 7.777864 0.000008  -0.186096 0.182474 -0.152847
39  -1.514465 2.104648 -1.150167  -0.029092 0.541319 1.555679
40  -0.000171 6.982345 -0.000079  -0.199699 -0.041213 0.153490
41  0.000040 8.382867 -0.000072  0.044865 0.587986 -0.257961
42  0.000014 8.697694 -0.000024  -0.102638 -0.474318 0.290946
43  0.000057 8.921808 -0.000003  -0.076257 0.581004 -0.195606
44  1.196196 2.899156 -2.353086  -0.449720 1.030104 1.287429
45  0.000108 5.476943 0.000007  0.285575 -0.099352 -0.038446
46  -0.000072 6.060431 -0.000091  -0.155022 -0.575031 0.384612
47  0.000020 5.994262 0.000029  0.033939 0.288573 -0.067731
48  -0.000008 6.100489 0.000002  -0.068405 0.299274 -0.162152
49  0.000034 6.916755 0.000010  -0.096318 0.220533 -0.107964
50  0.000149 6.435056 -0.000043  -0.037458 0.171631 -0.116573
51  1.092797 3.649513 -1.738794  -0.148600 0.876612 1.445020
52  -0.000125 6.792199 -0.000099  0.008285 0.107792 -0.048643
53  -0.000086 7.744776 -0.000030  0.057137 -0.256893 0.015458
54  0.000086 9.115025 -0.000039  -0.020393 0.256253 -0.142636
55  3.494519 -1.749102 3.007064  0.118400 1.106974 1.813813
56  0.000016 4.323837 0.000086  -0.229907 -0.770943 0.449223
57  0.000029 4.872893 -0.000022  0.367243 -0.664052 -0.254033
58  0.000007 5.056646 0.000092  -0.511236 0.856586 -0.546323
59  2.292470 1.708617 3.661675  -1.762559 1.789109 -0.218971
60  -0.000174 6.589436 0.000274  -0.007133 -0.169122 0.176910
61  0.000172 7.491490 -0.000147  -0.132414 -0.107097 0.179328
62  -0.000142 8.249659 0.000144  0.041916 -0.058209 0.015815
63  0.000069 8.605239 -0.000027  0.101581 0.501824 -0.079700
64  -0.240487 2.066074 2.349267  -0.357331 2.461714 1.296084
65  -0.000087 7.721100 -0.000005  -0.208229 -0.126223 -0.116493
66  -0.000123 7.374865 -0.000048  -0.111018 0.046939 -0.046466
67  -0.000036 6.848058 -0.000027  0.273531 0.247523 0.299907
68  0.000036 7.777824 -0.000044  0.072921 0.186147 -0.052687
69  -0.000084 8.178054 0.000011  -0.087029 -0.422849 -0.381357
70  1.617605 3.431409 2.399265  -0.249456 2.569515 1.508574
71  -0.000163 5.476947 -0.000030  0.057730 0.074072 0.060285
72  -0.000091 6.060490 -0.000007  -0.015204 0.015650 -0.152064
73  0.000023 5.994249 0.000011  -0.126213 -0.157657 0.153301
74  -0.000084 7.076869 -0.000046  -0.008117 0.010385 0.036399
75  0.000002 7.089866 -0.000069  0.070875 0.098587 -0.025893
76  0.361113 0.886684 3.287746  -0.576372 1.978709 0.939015
77  -0.000067 6.686633 0.000219  -0.146570 0.414164 -0.327708
78  -0.000013 7.638021 0.000011  -0.079523 -0.025948 0.130956
79  -0.000033 7.290229 -0.000022  0.025326 -0.093909 0.023962
80  -0.000037 6.530365 0.000005  -0.261848 -0.300601 0.006735
81  0.000066 7.224882 0.000009  0.036506 0.032481 -0.175823
82  1.071901 3.225799 1.570115  -0.043806 2.859975 1.526252
83  0.000414 6.748904 -0.000067  -0.062702 0.083783 0.022205
84  -0.000048 8.002644 0.000026  -0.067496 -0.117208 -0.115601
85  0.000011 8.580570 -0.000097  0.088213 -0.007187 0.334605
86  0.000171 8.689833 -0.000041  0.065327 -0.412429 -0.134518
87  -1.514532 2.104641 0.318055  -0.024895 3.094490 1.569502
88  0.000196 6.982281 0.000012  -0.107589 -0.057625 -0.215714
89  -0.000006 8.382870 -0.000067  0.135032 -0.099914 0.287071
90  -0.000065 8.697667 0.000024  -0.148090 -0.510100 0.044841
91  -0.000137 8.921824 0.000079  -0.236827 -0.892635 0.098805
92  3.553615 -3.478044 2.409277  0.000819 0.762046 1.535313
93  -0.000003 4.476911 -0.000009  -0.151002 -0.588331 0.377258
94  0.000032 4.514120 -0.000023  -0.228866 -2.996200 0.592370
95  0.000044 4.518384 -0.000025  0.143171 2.612778 0.693387
96  0.000022 3.598338 0.000024  -0.749301 0.869853 -0.773231
97  4.209920 -0.440342 1.018823  -1.816265 -1.840118 0.056386
98  4.265504 1.434240 -0.404994  -2.337414 0.282393 -0.628543
99  9.400236 0.017941 0.083197  -0.011244 -0.040658 -0.100170
100  10.242421 0.033590 0.064476  1.509763 -0.637506 0.289981
101  3.465857 -0.059683 0.016693  -0.019951 -0.100296 -0.303800
102  1.655593 -0.000023 0.000020  -0.043196 -0.060735 -0.230874
103  0.960769 -0.000005 -0.000005  0.007467 0.144513 0.264194
104  3.462030 -0.064250 0.939909  0.335981 0.023792 -0.372355
105  1.497179 -0.000004 0.000022  -0.485638 0.063554 0.156562
106  0.793760 -0.000004 -0.000001  0.003538 -0.026335 0.054296
107  0.591664 -0.460695 0.835207  -1.060269 -0.704806 -0.239932
108  1.556140 0.000003 0.000003  -0.188719 0.087841 0.363648
109  1.135906 0.000018 0.000003  -0.024642 -0.087756 0.085502
110  3.084271 -0.668823 -1.257084  -0.536807 0.095314 -0.901934
111  1.064201 -0.000005 0.000006  0.021559 0.041297 -0.150253
112  0.640337 0.000007 -0.000010  -0.008124 -0.030225 0.178042
113  3.396825 -0.242140 -0.708689  -0.266362 -0.065097 -0.743576
114  1.532970 0.000011 0.000004  0.008556 0.003377 0.029851
115  0.832978 -0.000010 -0.000003  -0.003907 0.015946 -0.057184
116  4.209943 -0.440344 -1.019279  1.516975 1.879209 -0.232348
117  4.266746 1.424940 0.424942  2.637532 -0.181962 -0.424962
118  9.398566 0.011945 -0.082520  0.013639 0.036456 -0.030975
119  10.242438 0.028177 -0.062914  -1.503886 0.639094 0.285099
120  3.465750 -0.067534 0.002267  0.025773 0.096581 -0.303310
121  1.655560 0.000006 0.000006  0.040813 0.060953 -0.230276
122  0.960905 0.000003 0.000001  -0.010815 -0.142845 0.265281
123  3.466857 -0.077786 -0.920910  -0.333600 -0.028946 -0.372603
124  1.497260 -0.000032 -0.000021  -0.420036 -0.062696 0.157995
125  0.793789 -0.000008 0.000002  0.028898 -0.217422 -0.037980
126  0.595081 -0.467157 -0.829176  2.362397 0.682119 -0.020695
127  1.555675 0.000011 -0.000001  0.303614 0.018000 0.374589
128  1.136814 -0.000008 -0.000000  -0.103124 -0.221946 0.194806
129  3.075974 -0.667975 1.277701  0.542378 -0.101758 -0.900817
130  1.064592 0.000019 0.000009  -0.034820 -0.047355 -0.148992
131  0.640366 -0.000015 -0.000004  0.009238 0.025665 0.178235
132  3.392413 -0.245378 0.728378  0.262453 0.056106 -0.744360
133  1.532738 -0.000009 0.000000  -0.005676 -0.003723 0.029993
134  0.833152 -0.000002 0.000010  0.004176 -0.018298 -0.057140
135  3.590105 -3.090294 1.193972  1.635457 1.210566 1.548541
136  3.589555 -3.089879 -1.196372  -1.505736 1.210473 -1.592853
137  -0.436565 4.719026 -0.001076  -0.000665 -1.570733 1.692940
138  -0.000000 2.775450 -0.000234  -0.135089 0.000001 -0.000000
139  -0.000000 3.189764 0.000008  0.207820 -0.000000 0.000000
140  -0.000000 3.504650 0.000045  -0.261876 0.000000 -0.000000
141  -0.000000 2.863198 -0.000002  -0.051268 0.000000 -0.000000
end
