version 1
nodes
0 "ValveBiped.Bip01" -1
1 "ValveBiped.Bip01_Pelvis" 0
2 "ValveBiped.Bip01_L_Thigh" 1
3 "ValveBiped.Bip01_L_Calf" 2
4 "ValveBiped.Bip01_L_Foot" 3
5 "ValveBiped.Bip01_R_Thigh" 1
6 "ValveBiped.Bip01_R_Calf" 5
7 "ValveBiped.Bip01_R_Foot" 6
8 "ValveBiped.Bip01_Spine" 1
9 "ValveBiped.Bip01_Spine1" 8
10 "ValveBiped.Bip01_Spine2" 9
11 "ValveBiped.Bip01_Spine4" 10
12 "ValveBiped.Bip01_Neck1" 11
13 "ValveBiped.Bip01_Head1" 12
14 "HBN_CK01" 13
15 "HBN_CK02" 14
16 "HBN_CK03" 15
17 "HBN_CK04" 16
18 "HBN_CK05" 17
19 "HBn_LF01" 13
20 "HBn_LF02" 19
21 "HBn_LF03" 20
22 "HBn_LF04" 21
23 "HBn_LF05" 22
24 "HBN_LMA01" 13
25 "HBN_LMA02" 24
26 "HBN_LMA03" 25
27 "HBN_LMA04" 26
28 "HBN_LMA05" 27
29 "HBN_LMB01" 13
30 "HBN_LMB02" 29
31 "HBN_LMB03" 30
32 "HBN_LMB04" 31
33 "HBN_LMB05" 32
34 "HBN_LMC01" 13
35 "HBN_LMC02" 34
36 "HBN_LMC03" 35
37 "HBN_LMC04" 36
38 "HBN_LMC05" 37
39 "HBN_LMD01" 13
40 "HBN_LMD02" 39
41 "HBN_LMD03" 40
42 "HBN_LMD04" 41
43 "HBN_LMD05" 42
44 "HBN_LME01" 13
45 "HBN_LME02" 44
46 "HBN_LME03" 45
47 "HBN_LME04" 46
48 "HBN_LME05" 47
49 "HBN_LME06" 48
50 "HBN_LME07" 49
51 "HBN_LMF01" 13
52 "HBN_LMF02" 51
53 "HBN_LMF03" 52
54 "HBN_LMF04" 53
55 "HBn_RF01" 13
56 "HBn_RF02" 55
57 "HBn_RF03" 56
58 "HBn_RF04" 57
59 "HBN_RMA01" 13
60 "HBN_RMA02" 59
61 "HBN_RMA03" 60
62 "HBN_RMA04" 61
63 "HBN_RMA05" 62
64 "HBN_RMB01" 13
65 "HBN_RMB02" 64
66 "HBN_RMB03" 65
67 "HBN_RMB04" 66
68 "HBN_RMB05" 67
69 "HBN_RMB06" 68
70 "HBN_RMC01" 13
71 "HBN_RMC02" 70
72 "HBN_RMC03" 71
73 "HBN_RMC04" 72
74 "HBN_RMC05" 73
75 "HBN_RMC06" 74
76 "HBN_RMD01" 13
77 "HBN_RMD02" 76
78 "HBN_RMD03" 77
79 "HBN_RMD04" 78
80 "HBN_RMD05" 79
81 "HBN_RMD06" 80
82 "HBN_RME01" 13
83 "HBN_RME02" 82
84 "HBN_RME03" 83
85 "HBN_RME04" 84
86 "HBN_RME05" 85
87 "HBN_RMF01" 13
88 "HBN_RMF02" 87
89 "HBN_RMF03" 88
90 "HBN_RMF04" 89
91 "HBN_RMF05" 90
92 "HBn_RFF01" 13
93 "HBn_RFF02" 92
94 "HBn_RFF03" 93
95 "HBn_RFF04" 94
96 "HBn_RFF05" 95
97 "ValveBiped.Bip01_L_Clavicle" 11
98 "ValveBiped.Bip01_L_UpperArm" 97
99 "ValveBiped.Bip01_L_Forearm" 98
100 "ValveBiped.Bip01_L_Hand" 99
101 "ValveBiped.Bip01_L_Finger2" 100
102 "ValveBiped.Bip01_L_Finger21" 101
103 "ValveBiped.Bip01_L_Finger22" 102
104 "ValveBiped.Bip01_L_Finger1" 100
105 "ValveBiped.Bip01_L_Finger11" 104
106 "ValveBiped.Bip01_L_Finger12" 105
107 "ValveBiped.Bip01_L_Finger0" 100
108 "ValveBiped.Bip01_L_Finger01" 107
109 "ValveBiped.Bip01_L_Finger02" 108
110 "ValveBiped.Bip01_L_Finger4" 100
111 "ValveBiped.Bip01_L_Finger41" 110
112 "ValveBiped.Bip01_L_Finger42" 111
113 "ValveBiped.Bip01_L_Finger3" 100
114 "ValveBiped.Bip01_L_Finger31" 113
115 "ValveBiped.Bip01_L_Finger32" 114
116 "ValveBiped.Bip01_R_Clavicle" 11
117 "ValveBiped.Bip01_R_UpperArm" 116
118 "ValveBiped.Bip01_R_Forearm" 117
119 "ValveBiped.Bip01_R_Hand" 118
120 "ValveBiped.Bip01_R_Finger2" 119
121 "ValveBiped.Bip01_R_Finger21" 120
122 "ValveBiped.Bip01_R_Finger22" 121
123 "ValveBiped.Bip01_R_Finger1" 119
124 "ValveBiped.Bip01_R_Finger11" 123
125 "ValveBiped.Bip01_R_Finger12" 124
126 "ValveBiped.Bip01_R_Finger0" 119
127 "ValveBiped.Bip01_R_Finger01" 126
128 "ValveBiped.Bip01_R_Finger02" 127
129 "ValveBiped.Bip01_R_Finger4" 119
130 "ValveBiped.Bip01_R_Finger41" 129
131 "ValveBiped.Bip01_R_Finger42" 130
132 "ValveBiped.Bip01_R_Finger3" 119
133 "ValveBiped.Bip01_R_Finger31" 132
134 "ValveBiped.Bip01_R_Finger32" 133
135 "lPectoral" 10
136 "rPectoral" 10
137 "Front Cloth" 10
138 "Front Cloth.001" 137
139 "Front Cloth.002" 138
140 "Front Cloth.003" 139
141 "Front Cloth.004" 140
end
skeleton
time 0
0  -0.939396 -1.460405 33.246418  1.570862 0.000000 -0.000000
1  0.002636 43.025146 0.734438  0.481875 0.051360 0.009010
2  3.061857 -4.181016 -0.610802  -1.412079 0.181066 -1.591622
3  18.476776 0.000162 -0.000001  -0.003919 -0.002156 0.046363
4  17.490084 0.000119 0.000003  0.122009 0.036710 -0.699218
5  -3.065330 -4.183579 -0.611477  -1.218388 -1.669973 -1.694171
6  18.474855 -0.000030 -0.000007  0.124453 0.102552 2.613964
7  17.489584 0.001916 -0.000006  0.098398 -0.001160 -1.226238
8  -0.000117 -0.048886 -0.576226  1.476451 0.140548 1.562735
9  3.224480 0.767046 0.000496  0.067224 -0.048412 0.103362
10  3.223915 0.226398 -0.001944  -0.048228 0.041464 0.226471
11  5.187319 -1.262559 -0.001177  0.000012 0.000066 0.194111
12  6.928406 -1.935310 -0.000228  3.110429 0.052229 0.422686
13  3.236367 1.079610 0.000057  0.137851 0.011191 0.797439
14  0.833764 3.805352 0.692955  -0.040491 0.554884 1.469876
15  0.000039 6.792209 0.000041  0.007993 0.036071 -0.011411
16  -0.000064 7.744817 0.000016  -0.017445 -0.155305 0.068157
17  0.000073 7.809702 0.000019  -0.033636 0.005026 0.006140
18  -0.000027 7.867678 0.000017  -0.073329 -0.127910 0.026375
19  3.494702 -1.749093 -3.006912  0.152546 2.070419 1.936948
20  0.000121 4.478329 0.000018  -0.194659 0.310432 -0.234995
21  0.000048 4.636119 -0.000030  0.035821 0.324592 -0.151767
22  -0.000042 5.008651 0.000013  0.075999 -0.286565 0.276092
23  0.000064 4.781165 0.000010  0.904400 -2.690904 -0.015800
24  2.253039 1.989056 -3.350106  -1.523631 1.324497 0.112404
25  0.000161 6.589467 0.000171  0.206356 -0.002129 -0.080395
26  0.000042 7.491414 0.000040  -0.333513 0.184455 -0.191165
27  0.000028 7.660312 -0.000059  -0.063176 0.127195 -0.062119
28  0.000006 7.256266 0.000018  -0.052938 -0.487830 0.313812
29  -0.791157 2.265118 -1.234655  -0.753899 1.136377 0.824675
30  -0.000257 8.572266 -0.000095  -0.222844 -0.296789 0.176503
31  -0.000097 8.117218 0.000047  0.072258 0.772520 -0.285588
32  -0.000083 8.230037 -0.000070  -0.080493 -0.347232 0.072254
33  0.000056 7.366724 0.000053  -0.015394 -0.663892 0.062742
34  0.224222 0.240127 -3.218157  -0.877378 1.468889 0.577831
35  -0.000101 7.721047 -0.000309  -0.283830 0.060497 -0.167554
36  -0.000031 7.374853 -0.000003  0.007539 -0.195021 0.049538
37  0.000076 6.848097 0.000007  0.005484 0.006496 -0.033650
38  -0.000050 7.777858 0.000009  -0.186096 0.182474 -0.152845
39  -1.514462 2.104649 -1.150167  -0.029092 0.541320 1.555679
40  -0.000166 6.982346 -0.000079  -0.199700 -0.041213 0.153490
41  0.000036 8.382866 -0.000072  0.044866 0.587987 -0.257961
42  0.000011 8.697703 -0.000023  -0.102637 -0.474319 0.290944
43  0.000057 8.921806 -0.000003  -0.076258 0.581004 -0.195605
44  1.196192 2.899154 -2.353086  -0.449721 1.030104 1.287426
45  0.000108 5.476939 0.000006  0.285572 -0.099353 -0.038443
46  -0.000076 6.060436 -0.000088  -0.155020 -0.575032 0.384608
47  0.000019 5.994261 0.000029  0.033939 0.288573 -0.067729
48  -0.000008 6.100484 0.000000  -0.068405 0.299274 -0.162151
49  0.000035 6.916756 0.000007  -0.096316 0.220533 -0.107967
50  0.000150 6.435059 -0.000045  -0.037459 0.171630 -0.116573
51  1.092796 3.649513 -1.738794  -0.148600 0.876612 1.445020
52  -0.000127 6.792198 -0.000098  0.008284 0.107792 -0.048643
53  -0.000089 7.744774 -0.000030  0.057137 -0.256893 0.015458
54  0.000087 9.115020 -0.000040  -0.020393 0.256253 -0.142636
55  3.494520 -1.749102 3.007064  0.118400 1.106974 1.813814
56  0.000016 4.323832 0.000087  -0.229906 -0.770943 0.449222
57  0.000028 4.872899 -0.000020  0.367242 -0.664052 -0.254032
58  0.000003 5.056648 0.000092  -0.511236 0.856586 -0.546325
59  2.292473 1.708617 3.661675  -1.762560 1.789110 -0.218970
60  -0.000172 6.589439 0.000277  -0.007132 -0.169123 0.176909
61  0.000170 7.491494 -0.000151  -0.132413 -0.107097 0.179327
62  -0.000140 8.249660 0.000143  0.041914 -0.058209 0.015815
63  0.000075 8.605236 -0.000026  0.101584 0.501824 -0.079699
64  -0.240483 2.066073 2.349267  -0.357330 2.461714 1.296085
65  -0.000084 7.721109 -0.000003  -0.208230 -0.126223 -0.116493
66  -0.000120 7.374860 -0.000047  -0.111016 0.046939 -0.046464
67  -0.000038 6.848055 -0.000026  0.273530 0.247523 0.299908
68  0.000035 7.777823 -0.000045  0.072922 0.186147 -0.052689
69  -0.000085 8.178053 0.000012  -0.087029 -0.422849 -0.381359
70  1.617608 3.431409 2.399265  -0.249455 2.569515 1.508572
71  -0.000161 5.476939 -0.000029  0.057729 0.074072 0.060285
72  -0.000093 6.060493 -0.000005  -0.015204 0.015650 -0.152068
73  0.000024 5.994247 0.000011  -0.126212 -0.157657 0.153304
74  -0.000079 7.076872 -0.000046  -0.008118 0.010385 0.036399
75  0.000003 7.089865 -0.000069  0.070875 0.098587 -0.025893
76  0.361116 0.886681 3.287746  -0.576372 1.978709 0.939015
77  -0.000066 6.686642 0.000220  -0.146568 0.414164 -0.327706
78  -0.000010 7.638019 0.000013  -0.079524 -0.025948 0.130954
79  -0.000036 7.290226 -0.000022  0.025325 -0.093909 0.023964
80  -0.000033 6.530368 0.000005  -0.261846 -0.300601 0.006734
81  0.000064 7.224880 0.000009  0.036506 0.032481 -0.175823
82  1.071901 3.225797 1.570115  -0.043807 2.859975 1.526250
83  0.000418 6.748901 -0.000067  -0.062702 0.083783 0.022201
84  -0.000045 8.002642 0.000026  -0.067495 -0.117208 -0.115599
85  0.000013 8.580565 -0.000098  0.088213 -0.007187 0.334605
86  0.000171 8.689835 -0.000042  0.065326 -0.412429 -0.134518
87  -1.514529 2.104640 0.318055  -0.024895 3.094490 1.569499
88  0.000193 6.982281 0.000011  -0.107588 -0.057625 -0.215717
89  -0.000009 8.382877 -0.000068  0.135031 -0.099913 0.287070
90  -0.000062 8.697668 0.000023  -0.148089 -0.510100 0.044843
91  -0.000135 8.921824 0.000078  -0.236826 -0.892638 0.098804
92  3.553618 -3.478046 2.409277  0.000820 0.762046 1.535312
93  -0.000000 4.476904 -0.000009  -0.151003 -0.588330 0.377258
94  0.000034 4.514121 -0.000023  -0.228866 -2.996200 0.592370
95  0.000048 4.518380 -0.000021  0.143172 2.612778 0.693387
96  0.000022 3.598330 0.000021  -0.749301 0.869853 -0.773230
97  4.209916 -0.440337 1.018824  -1.816265 -1.840119 0.056387
98  4.265506 1.434234 -0.404994  -2.337415 0.282394 -0.628545
99  9.400238 0.017938 0.083201  -0.011244 -0.040659 -0.100172
100  10.242420 0.033591 0.064476  1.509763 -0.637499 0.289980
101  3.465855 -0.059681 0.016692  -0.019951 -0.100296 -0.303798
102  1.655591 -0.000021 0.000023  -0.043196 -0.060734 -0.230870
103  0.960768 0.000003 -0.000005  0.007467 0.144513 0.264194
104  3.462027 -0.064251 0.939908  0.335980 0.023793 -0.372353
105  1.497179 -0.000007 0.000024  -0.485638 0.063552 0.156563
106  0.793759 0.000003 -0.000003  0.003539 -0.026335 0.054300
107  0.591662 -0.460693 0.835205  -1.060269 -0.704804 -0.239925
108  1.556139 -0.000001 0.000008  -0.188719 0.087841 0.363646
109  1.135898 0.000021 0.000005  -0.024642 -0.087756 0.085502
110  3.084269 -0.668821 -1.257086  -0.536806 0.095314 -0.901928
111  1.064201 0.000004 0.000005  0.021559 0.041297 -0.150253
112  0.640339 0.000009 -0.000011  -0.008125 -0.030224 0.178044
113  3.396822 -0.242138 -0.708692  -0.266362 -0.065096 -0.743565
114  1.532969 0.000007 0.000008  0.008556 0.003377 0.029847
115  0.832974 0.000001 -0.000001  -0.003907 0.015945 -0.057185
116  4.209941 -0.440339 -1.019279  1.516974 1.879207 -0.232347
117  4.266746 1.424939 0.424944  2.637534 -0.181961 -0.424964
118  9.398561 0.011947 -0.082518  0.013638 0.036457 -0.030975
119  10.242440 0.028179 -0.062907  -1.503886 0.639098 0.285099
120  3.465749 -0.067528 0.002267  0.025773 0.096581 -0.303315
121  1.655559 0.000008 0.000004  0.040814 0.060953 -0.230277
122  0.960905 0.000009 0.000004  -0.010815 -0.142845 0.265282
123  3.466857 -0.077781 -0.920913  -0.333600 -0.028945 -0.372603
124  1.497258 -0.000035 -0.000023  -0.420036 -0.062696 0.157991
125  0.793790 -0.000011 -0.000003  0.028900 -0.217422 -0.037980
126  0.595080 -0.467154 -0.829178  2.362397 0.682119 -0.020699
127  1.555673 0.000019 0.000002  0.303613 0.018001 0.374589
128  1.136811 -0.000012 -0.000002  -0.103122 -0.221946 0.194805
129  3.075974 -0.667970 1.277700  0.542378 -0.101758 -0.900821
130  1.064592 0.000019 0.000012  -0.034820 -0.047355 -0.148991
131  0.640363 -0.000018 -0.000003  0.009239 0.025665 0.178238
132  3.392414 -0.245369 0.728376  0.262452 0.056105 -0.744364
133  1.532738 -0.000009 0.000003  -0.005676 -0.003723 0.029994
134  0.833153 0.000009 0.000011  0.004177 -0.018298 -0.057141
135  3.590107 -3.090291 1.193972  1.635457 1.210566 1.548541
136  3.589556 -3.089876 -1.196372  -1.505736 1.210473 -1.592853
137  -0.436561 4.719028 -0.001076  -0.000635 -1.570733 1.692960
138  0.000000 2.775455 -0.000238  -0.135089 0.000001 -0.000000
139  -0.000000 3.189770 0.000007  0.207820 -0.000000 0.000000
140  -0.000000 3.504649 0.000045  -0.261876 0.000000 -0.000000
141  -0.000000 2.863202 -0.000002  -0.051268 0.000000 -0.000000
time 1
0  -0.939396 -1.460405 33.246418  1.570862 0.000000 -0.000000
1  0.002636 43.025146 0.734438  0.481875 0.051360 0.009010
2  3.061858 -4.181016 -0.610802  -1.412079 0.181066 -1.591622
3  18.476776 0.000162 -0.000001  -0.003919 -0.002156 0.046363
4  17.490088 0.000117 0.000003  0.122009 0.036710 -0.699218
5  -3.065330 -4.183580 -0.611479  -1.218388 -1.669973 -1.694171
6  18.474855 -0.000027 -0.000008  0.124452 0.102552 2.613964
7  17.489584 0.001918 -0.000006  0.098398 -0.001160 -1.226238
8  -0.000117 -0.048886 -0.576226  1.476451 0.140548 1.562735
9  3.224481 0.767046 0.000496  0.067224 -0.048412 0.103362
10  3.223916 0.226398 -0.001945  -0.048228 0.041464 0.226471
11  5.187316 -1.262560 -0.001177  0.000012 0.000066 0.194111
12  6.928404 -1.935311 -0.000227  3.110429 0.052229 0.422686
13  3.236365 1.079611 0.000056  0.137851 0.011191 0.797440
14  0.833757 3.805351 0.692955  -0.040491 0.554884 1.469876
15  0.000037 6.792208 0.000039  0.007993 0.036071 -0.011411
16  -0.000066 7.744812 0.000017  -0.017445 -0.155305 0.068157
17  0.000073 7.809702 0.000017  -0.033636 0.005026 0.006140
18  -0.000027 7.867678 0.000016  -0.073329 -0.127910 0.026375
19  3.494700 -1.749092 -3.006912  0.152546 2.070419 1.936948
20  0.000120 4.478323 0.000017  -0.194659 0.310432 -0.234995
21  0.000047 4.636117 -0.000028  0.035821 0.324592 -0.151767
22  -0.000041 5.008646 0.000012  0.075999 -0.286565 0.276092
23  0.000064 4.781163 0.000010  0.904400 -2.690903 -0.015800
24  2.253041 1.989058 -3.350106  -1.523631 1.324497 0.112404
25  0.000161 6.589469 0.000169  0.206356 -0.002129 -0.080395
26  0.000041 7.491417 0.000041  -0.333513 0.184455 -0.191165
27  0.000025 7.660308 -0.000058  -0.063176 0.127195 -0.062119
28  0.000006 7.256270 0.000019  -0.052938 -0.487829 0.313812
29  -0.791160 2.265119 -1.234655  -0.753899 1.136377 0.824675
30  -0.000257 8.572262 -0.000093  -0.222844 -0.296789 0.176503
31  -0.000094 8.117214 0.000048  0.072258 0.772520 -0.285588
32  -0.000084 8.230038 -0.000071  -0.080493 -0.347232 0.072253
33  0.000060 7.366724 0.000054  -0.015394 -0.663892 0.062742
34  0.224220 0.240127 -3.218157  -0.877378 1.468889 0.577831
35  -0.000102 7.721051 -0.000312  -0.283830 0.060497 -0.167554
36  -0.000030 7.374856 -0.000002  0.007539 -0.195021 0.049538
37  0.000076 6.848104 0.000006  0.005484 0.006496 -0.033650
38  -0.000052 7.777858 0.000009  -0.186096 0.182474 -0.152845
39  -1.514465 2.104650 -1.150167  -0.029092 0.541320 1.555679
40  -0.000167 6.982350 -0.000077  -0.199699 -0.041213 0.153490
41  0.000038 8.382862 -0.000072  0.044866 0.587987 -0.257961
42  0.000012 8.697704 -0.000024  -0.102637 -0.474318 0.290944
43  0.000057 8.921805 -0.000003  -0.076258 0.581004 -0.195605
44  1.196193 2.899156 -2.353086  -0.449721 1.030104 1.287426
45  0.000110 5.476938 0.000006  0.285572 -0.099353 -0.038443
46  -0.000072 6.060431 -0.000087  -0.155020 -0.575032 0.384608
47  0.000019 5.994260 0.000029  0.033939 0.288573 -0.067729
48  -0.000008 6.100488 0.000002  -0.068405 0.299274 -0.162151
49  0.000037 6.916756 0.000007  -0.096316 0.220533 -0.107967
50  0.000148 6.435058 -0.000045  -0.037459 0.171630 -0.116573
51  1.092797 3.649515 -1.738794  -0.148600 0.876612 1.445020
52  -0.000127 6.792193 -0.000101  0.008284 0.107792 -0.048643
53  -0.000091 7.744778 -0.000030  0.057137 -0.256893 0.015458
54  0.000087 9.115021 -0.000038  -0.020393 0.256253 -0.142636
55  3.494519 -1.749102 3.007064  0.118400 1.106974 1.813814
56  0.000015 4.323838 0.000089  -0.229906 -0.770943 0.449222
57  0.000030 4.872897 -0.000021  0.367242 -0.664052 -0.254032
58  0.000006 5.056654 0.000092  -0.511236 0.856586 -0.546325
59  2.292466 1.708616 3.661675  -1.762560 1.789110 -0.218970
60  -0.000172 6.589446 0.000275  -0.007132 -0.169123 0.176909
61  0.000175 7.491493 -0.000145  -0.132414 -0.107097 0.179327
62  -0.000140 8.249657 0.000141  0.041914 -0.058209 0.015815
63  0.000074 8.605242 -0.000026  0.101584 0.501824 -0.079698
64  -0.240486 2.066073 2.349267  -0.357330 2.461714 1.296085
65  -0.000088 7.721105 -0.000003  -0.208230 -0.126223 -0.116493
66  -0.000124 7.374860 -0.000046  -0.111016 0.046939 -0.046464
67  -0.000038 6.848059 -0.000027  0.273530 0.247523 0.299908
68  0.000033 7.777823 -0.000044  0.072922 0.186147 -0.052689
69  -0.000084 8.178051 0.000011  -0.087029 -0.422849 -0.381359
70  1.617601 3.431408 2.399265  -0.249455 2.569515 1.508572
71  -0.000162 5.476943 -0.000029  0.057729 0.074072 0.060285
72  -0.000094 6.060490 -0.000005  -0.015204 0.015650 -0.152068
73  0.000026 5.994255 0.000011  -0.126212 -0.157657 0.153304
74  -0.000078 7.076865 -0.000047  -0.008118 0.010385 0.036399
75  0.000005 7.089866 -0.000069  0.070875 0.098587 -0.025893
76  0.361114 0.886684 3.287746  -0.576372 1.978709 0.939015
77  -0.000067 6.686637 0.000226  -0.146568 0.414164 -0.327706
78  -0.000012 7.638019 0.000014  -0.079524 -0.025948 0.130954
79  -0.000031 7.290230 -0.000022  0.025325 -0.093909 0.023964
80  -0.000034 6.530368 0.000005  -0.261846 -0.300601 0.006734
81  0.000064 7.224882 0.000009  0.036506 0.032480 -0.175823
82  1.071898 3.225797 1.570115  -0.043807 2.859975 1.526250
83  0.000418 6.748905 -0.000067  -0.062702 0.083783 0.022201
84  -0.000044 8.002646 0.000027  -0.067495 -0.117208 -0.115599
85  0.000012 8.580573 -0.000098  0.088213 -0.007187 0.334605
86  0.000168 8.689831 -0.000041  0.065327 -0.412429 -0.134518
87  -1.514532 2.104641 0.318056  -0.024895 3.094490 1.569499
88  0.000190 6.982280 0.000011  -0.107588 -0.057625 -0.215717
89  -0.000009 8.382870 -0.000068  0.135031 -0.099913 0.287070
90  -0.000063 8.697668 0.000023  -0.148089 -0.510100 0.044843
91  -0.000136 8.921831 0.000079  -0.236826 -0.892638 0.098804
92  3.553615 -3.478044 2.409277  0.000820 0.762046 1.535312
93  0.000000 4.476906 -0.000008  -0.151003 -0.588330 0.377259
94  0.000032 4.514119 -0.000024  -0.228866 -2.996200 0.592370
95  0.000044 4.518381 -0.000025  0.143172 2.612778 0.693387
96  0.000023 3.598332 0.000026  -0.749301 0.869853 -0.773229
97  4.209913 -0.440342 1.018824  -1.816265 -1.840119 0.056387
98  4.265506 1.434230 -0.404990  -2.337415 0.282394 -0.628545
99  9.400236 0.017941 0.083199  -0.011244 -0.040659 -0.100172
100  10.242418 0.033592 0.064477  1.509763 -0.637499 0.289980
101  3.465856 -0.059679 0.016693  -0.019951 -0.100296 -0.303798
102  1.655593 -0.000019 0.000020  -0.043196 -0.060734 -0.230870
103  0.960767 -0.000002 -0.000006  0.007467 0.144513 0.264194
104  3.462028 -0.064245 0.939910  0.335981 0.023793 -0.372353
105  1.497176 -0.000004 0.000025  -0.485638 0.063552 0.156563
106  0.793759 0.000001 -0.000001  0.003539 -0.026335 0.054300
107  0.591663 -0.460691 0.835206  -1.060269 -0.704804 -0.239925
108  1.556140 0.000006 -0.000001  -0.188719 0.087841 0.363646
109  1.135901 0.000019 0.000006  -0.024642 -0.087756 0.085502
110  3.084270 -0.668819 -1.257084  -0.536806 0.095314 -0.901928
111  1.064201 0.000001 0.000005  0.021559 0.041297 -0.150253
112  0.640333 -0.000001 -0.000008  -0.008125 -0.030224 0.178044
113  3.396823 -0.242136 -0.708690  -0.266362 -0.065096 -0.743565
114  1.532972 0.000011 0.000007  0.008556 0.003377 0.029847
115  0.832974 0.000002 -0.000002  -0.003906 0.015945 -0.057185
116  4.209935 -0.440344 -1.019279  1.516974 1.879207 -0.232347
117  4.266745 1.424941 0.424936  2.637534 -0.181961 -0.424964
118  9.398565 0.011948 -0.082518  0.013638 0.036457 -0.030974
119  10.242439 0.028179 -0.062906  -1.503886 0.639097 0.285099
120  3.465749 -0.067527 0.002269  0.025773 0.096581 -0.303315
121  1.655561 0.000007 0.000003  0.040814 0.060953 -0.230277
122  0.960906 0.000000 0.000002  -0.010814 -0.142845 0.265282
123  3.466857 -0.077779 -0.920910  -0.333600 -0.028945 -0.372604
124  1.497262 -0.000029 -0.000023  -0.420036 -0.062696 0.157991
125  0.793787 -0.000013 -0.000003  0.028900 -0.217422 -0.037980
126  0.595079 -0.467152 -0.829176  2.362397 0.682119 -0.020699
127  1.555675 0.000015 0.000000  0.303613 0.018001 0.374589
128  1.136809 -0.000007 -0.000003  -0.103122 -0.221946 0.194805
129  3.075974 -0.667964 1.277703  0.542378 -0.101758 -0.900821
130  1.064589 0.000022 0.000007  -0.034820 -0.047355 -0.148991
131  0.640363 -0.000019 -0.000002  0.009238 0.025665 0.178238
132  3.392413 -0.245368 0.728379  0.262452 0.056105 -0.744364
133  1.532737 -0.000011 -0.000001  -0.005676 -0.003723 0.029994
134  0.833150 0.000008 0.000006  0.004177 -0.018298 -0.057141
135  3.590103 -3.090291 1.193972  1.635457 1.210566 1.548541
136  3.589553 -3.089876 -1.196372  -1.505736 1.210473 -1.592853
137  -0.436564 4.719027 -0.001076  -0.000606 -1.570733 1.693008
138  0.000000 2.775453 -0.000235  -0.135089 0.000001 -0.000000
139  0.000000 3.189766 0.000007  0.207820 -0.000000 0.000000
140  0.000000 3.504654 0.000046  -0.261876 0.000000 -0.000000
141  0.000000 2.863201 -0.000003  -0.051268 0.000000 -0.000000
end
