version 1
nodes
0 "ValveBiped.Bip01" -1
1 "ValveBiped.Bip01_Pelvis" 0
2 "ValveBiped.Bip01_L_Thigh" 1
3 "ValveBiped.Bip01_L_Calf" 2
4 "ValveBiped.Bip01_L_Foot" 3
5 "ValveBiped.Bip01_R_Thigh" 1
6 "ValveBiped.Bip01_R_Calf" 5
7 "ValveBiped.Bip01_R_Foot" 6
8 "ValveBiped.Bip01_Spine" 1
9 "ValveBiped.Bip01_Spine1" 8
10 "ValveBiped.Bip01_Spine2" 9
11 "ValveBiped.Bip01_Spine4" 10
12 "ValveBiped.Bip01_Neck1" 11
13 "ValveBiped.Bip01_Head1" 12
14 "HBN_CK01" 13
15 "HBN_CK02" 14
16 "HBN_CK03" 15
17 "HBN_CK04" 16
18 "HBN_CK05" 17
19 "HBn_LF01" 13
20 "HBn_LF02" 19
21 "HBn_LF03" 20
22 "HBn_LF04" 21
23 "HBn_LF05" 22
24 "HBN_LMA01" 13
25 "HBN_LMA02" 24
26 "HBN_LMA03" 25
27 "HBN_LMA04" 26
28 "HBN_LMA05" 27
29 "HBN_LMB01" 13
30 "HBN_LMB02" 29
31 "HBN_LMB03" 30
32 "HBN_LMB04" 31
33 "HBN_LMB05" 32
34 "HBN_LMC01" 13
35 "HBN_LMC02" 34
36 "HBN_LMC03" 35
37 "HBN_LMC04" 36
38 "HBN_LMC05" 37
39 "HBN_LMD01" 13
40 "HBN_LMD02" 39
41 "HBN_LMD03" 40
42 "HBN_LMD04" 41
43 "HBN_LMD05" 42
44 "HBN_LME01" 13
45 "HBN_LME02" 44
46 "HBN_LME03" 45
47 "HBN_LME04" 46
48 "HBN_LME05" 47
49 "HBN_LME06" 48
50 "HBN_LME07" 49
51 "HBN_LMF01" 13
52 "HBN_LMF02" 51
53 "HBN_LMF03" 52
54 "HBN_LMF04" 53
55 "HBn_RF01" 13
56 "HBn_RF02" 55
57 "HBn_RF03" 56
58 "HBn_RF04" 57
59 "HBN_RMA01" 13
60 "HBN_RMA02" 59
61 "HBN_RMA03" 60
62 "HBN_RMA04" 61
63 "HBN_RMA05" 62
64 "HBN_RMB01" 13
65 "HBN_RMB02" 64
66 "HBN_RMB03" 65
67 "HBN_RMB04" 66
68 "HBN_RMB05" 67
69 "HBN_RMB06" 68
70 "HBN_RMC01" 13
71 "HBN_RMC02" 70
72 "HBN_RMC03" 71
73 "HBN_RMC04" 72
74 "HBN_RMC05" 73
75 "HBN_RMC06" 74
76 "HBN_RMD01" 13
77 "HBN_RMD02" 76
78 "HBN_RMD03" 77
79 "HBN_RMD04" 78
80 "HBN_RMD05" 79
81 "HBN_RMD06" 80
82 "HBN_RME01" 13
83 "HBN_RME02" 82
84 "HBN_RME03" 83
85 "HBN_RME04" 84
86 "HBN_RME05" 85
87 "HBN_RMF01" 13
88 "HBN_RMF02" 87
89 "HBN_RMF03" 88
90 "HBN_RMF04" 89
91 "HBN_RMF05" 90
92 "HBn_RFF01" 13
93 "HBn_RFF02" 92
94 "HBn_RFF03" 93
95 "HBn_RFF04" 94
96 "HBn_RFF05" 95
97 "ValveBiped.Bip01_L_Clavicle" 11
98 "ValveBiped.Bip01_L_UpperArm" 97
99 "ValveBiped.Bip01_L_Forearm" 98
100 "ValveBiped.Bip01_L_Hand" 99
101 "ValveBiped.Bip01_L_Finger2" 100
102 "ValveBiped.Bip01_L_Finger21" 101
103 "ValveBiped.Bip01_L_Finger22" 102
104 "ValveBiped.Bip01_L_Finger1" 100
105 "ValveBiped.Bip01_L_Finger11" 104
106 "ValveBiped.Bip01_L_Finger12" 105
107 "ValveBiped.Bip01_L_Finger0" 100
108 "ValveBiped.Bip01_L_Finger01" 107
109 "ValveBiped.Bip01_L_Finger02" 108
110 "ValveBiped.Bip01_L_Finger4" 100
111 "ValveBiped.Bip01_L_Finger41" 110
112 "ValveBiped.Bip01_L_Finger42" 111
113 "ValveBiped.Bip01_L_Finger3" 100
114 "ValveBiped.Bip01_L_Finger31" 113
115 "ValveBiped.Bip01_L_Finger32" 114
116 "ValveBiped.Bip01_R_Clavicle" 11
117 "ValveBiped.Bip01_R_UpperArm" 116
118 "ValveBiped.Bip01_R_Forearm" 117
119 "ValveBiped.Bip01_R_Hand" 118
120 "ValveBiped.Bip01_R_Finger2" 119
121 "ValveBiped.Bip01_R_Finger21" 120
122 "ValveBiped.Bip01_R_Finger22" 121
123 "ValveBiped.Bip01_R_Finger1" 119
124 "ValveBiped.Bip01_R_Finger11" 123
125 "ValveBiped.Bip01_R_Finger12" 124
126 "ValveBiped.Bip01_R_Finger0" 119
127 "ValveBiped.Bip01_R_Finger01" 126
128 "ValveBiped.Bip01_R_Finger02" 127
129 "ValveBiped.Bip01_R_Finger4" 119
130 "ValveBiped.Bip01_R_Finger41" 129
131 "ValveBiped.Bip01_R_Finger42" 130
132 "ValveBiped.Bip01_R_Finger3" 119
133 "ValveBiped.Bip01_R_Finger31" 132
134 "ValveBiped.Bip01_R_Finger32" 133
135 "lPectoral" 10
136 "rPectoral" 10
137 "Front Cloth" 10
138 "Front Cloth.001" 137
139 "Front Cloth.002" 138
140 "Front Cloth.003" 139
141 "Front Cloth.004" 140
end
skeleton
time 0
0  -0.000002 -0.444792 41.524685  1.570862 0.000000 -0.000000
1  0.002636 43.025146 0.734438  0.000060 0.000127 0.000060
2  3.061857 -4.181010 -0.610804  -1.574176 0.061565 -1.556866
3  18.476776 0.000159 -0.000001  -0.006754 0.003765 -0.033714
4  17.490086 0.000117 0.000003  0.190984 0.149691 -1.027880
5  -3.065330 -4.183575 -0.611480  -1.567480 0.061525 -1.584783
6  18.474859 -0.000034 -0.000007  0.006730 -0.003762 -0.033750
7  17.489586 0.001916 -0.000006  -0.184387 -0.151424 -1.027394
8  -0.000117 -0.048881 -0.576226  1.570798 0.086303 1.570791
9  3.224483 0.767046 0.000496  -0.000001 0.000004 -0.028770
10  3.223905 0.226399 -0.001944  -0.000007 -0.000060 0.100385
11  5.187320 -1.262560 -0.001177  0.000012 0.000066 0.194111
12  6.928411 -1.935314 -0.000227  -3.141479 -0.000094 0.372954
13  3.236362 1.079612 0.000057  -0.000129 -0.000017 0.303162
14  0.833758 3.805352 0.692956  -0.040492 0.554885 1.469872
15  0.000039 6.792212 0.000040  0.007991 0.036071 -0.011407
16  -0.000067 7.744819 0.000016  -0.017442 -0.155305 0.068151
17  0.000073 7.809705 0.000018  -0.033636 0.005026 0.006142
18  -0.000026 7.867671 0.000017  -0.073329 -0.127910 0.026375
19  3.494705 -1.749092 -3.006912  0.152544 2.070419 1.936944
20  0.000119 4.478321 0.000018  -0.194660 0.310432 -0.234994
21  0.000048 4.636117 -0.000028  0.035823 0.324593 -0.151767
22  -0.000042 5.008657 0.000014  0.075997 -0.286565 0.276090
23  0.000062 4.781172 0.000008  0.904396 -2.690903 -0.015797
24  2.253036 1.989058 -3.350106  -1.523632 1.324497 0.112399
25  0.000162 6.589458 0.000170  0.206355 -0.002129 -0.080394
26  0.000040 7.491415 0.000041  -0.333513 0.184454 -0.191167
27  0.000025 7.660304 -0.000057  -0.063175 0.127195 -0.062118
28  0.000006 7.256274 0.000020  -0.052939 -0.487829 0.313814
29  -0.791156 2.265120 -1.234655  -0.753900 1.136377 0.824673
30  -0.000259 8.572271 -0.000091  -0.222842 -0.296789 0.176503
31  -0.000095 8.117215 0.000048  0.072255 0.772520 -0.285590
32  -0.000080 8.230034 -0.000067  -0.080492 -0.347232 0.072254
33  0.000059 7.366725 0.000056  -0.015394 -0.663892 0.062741
34  0.224218 0.240127 -3.218158  -0.877384 1.468889 0.577822
35  -0.000101 7.721055 -0.000309  -0.283828 0.060496 -0.167555
36  -0.000032 7.374853 -0.000002  0.007536 -0.195021 0.049540
37  0.000075 6.848107 0.000006  0.005484 0.006497 -0.033650
38  -0.000051 7.777865 0.000010  -0.186097 0.182474 -0.152846
39  -1.514461 2.104650 -1.150167  -0.029091 0.541320 1.555677
40  -0.000167 6.982345 -0.000076  -0.199699 -0.041212 0.153489
41  0.000039 8.382865 -0.000072  0.044865 0.587986 -0.257961
42  0.000015 8.697702 -0.000025  -0.102637 -0.474318 0.290944
43  0.000056 8.921806 -0.000003  -0.076258 0.581004 -0.195605
44  1.196197 2.899154 -2.353086  -0.449719 1.030105 1.287427
45  0.000109 5.476945 0.000006  0.285575 -0.099352 -0.038446
46  -0.000072 6.060440 -0.000088  -0.155022 -0.575031 0.384609
47  0.000018 5.994258 0.000029  0.033941 0.288574 -0.067729
48  -0.000007 6.100482 0.000000  -0.068405 0.299274 -0.162152
49  0.000034 6.916756 0.000010  -0.096317 0.220533 -0.107965
50  0.000149 6.435064 -0.000045  -0.037459 0.171630 -0.116573
51  1.092797 3.649513 -1.738794  -0.148600 0.876612 1.445020
52  -0.000130 6.792208 -0.000101  0.008284 0.107792 -0.048643
53  -0.000087 7.744778 -0.000032  0.057137 -0.256893 0.015458
54  0.000084 9.115019 -0.000037  -0.020393 0.256253 -0.142636
55  3.494521 -1.749103 3.007064  0.118402 1.106974 1.813812
56  0.000015 4.323846 0.000086  -0.229908 -0.770943 0.449223
57  0.000026 4.872892 -0.000020  0.367243 -0.664052 -0.254034
58  0.000005 5.056652 0.000095  -0.511235 0.856586 -0.546322
59  2.292463 1.708614 3.661675  -1.762556 1.789111 -0.218970
60  -0.000174 6.589441 0.000274  -0.007132 -0.169123 0.176908
61  0.000172 7.491491 -0.000151  -0.132413 -0.107098 0.179326
62  -0.000142 8.249659 0.000140  0.041912 -0.058209 0.015816
63  0.000072 8.605240 -0.000026  0.101584 0.501824 -0.079698
64  -0.240480 2.066074 2.349267  -0.357331 2.461715 1.296081
65  -0.000083 7.721101 -0.000003  -0.208230 -0.126223 -0.116495
66  -0.000123 7.374863 -0.000046  -0.111017 0.046939 -0.046464
67  -0.000034 6.848064 -0.000025  0.273532 0.247522 0.299908
68  0.000034 7.777821 -0.000043  0.072920 0.186147 -0.052689
69  -0.000083 8.178051 0.000012  -0.087029 -0.422849 -0.381357
70  1.617598 3.431409 2.399266  -0.249454 2.569515 1.508570
71  -0.000161 5.476945 -0.000029  0.057728 0.074072 0.060284
72  -0.000092 6.060499 -0.000006  -0.015204 0.015650 -0.152064
73  0.000026 5.994249 0.000013  -0.126212 -0.157657 0.153301
74  -0.000079 7.076878 -0.000046  -0.008118 0.010385 0.036400
75  0.000004 7.089861 -0.000070  0.070875 0.098587 -0.025893
76  0.361118 0.886684 3.287746  -0.576374 1.978710 0.939010
77  -0.000067 6.686644 0.000222  -0.146568 0.414164 -0.327707
78  -0.000013 7.638015 0.000014  -0.079524 -0.025948 0.130955
79  -0.000032 7.290224 -0.000022  0.025325 -0.093908 0.023963
80  -0.000033 6.530365 0.000004  -0.261847 -0.300600 0.006735
81  0.000062 7.224882 0.000009  0.036506 0.032481 -0.175824
82  1.071906 3.225797 1.570115  -0.043807 2.859975 1.526247
83  0.000411 6.748901 -0.000066  -0.062702 0.083784 0.022201
84  -0.000047 8.002647 0.000027  -0.067496 -0.117209 -0.115598
85  0.000010 8.580570 -0.000098  0.088212 -0.007188 0.334604
86  0.000169 8.689827 -0.000041  0.065327 -0.412430 -0.134518
87  -1.514530 2.104640 0.318056  -0.024895 3.094491 1.569496
88  0.000192 6.982280 0.000011  -0.107589 -0.057625 -0.215716
89  -0.000009 8.382879 -0.000068  0.135031 -0.099915 0.287073
90  -0.000063 8.697666 0.000023  -0.148090 -0.510101 0.044839
91  -0.000137 8.921823 0.000079  -0.236826 -0.892634 0.098803
92  3.553617 -3.478046 2.409277  0.000820 0.762046 1.535310
93  0.000000 4.476910 -0.000008  -0.151003 -0.588331 0.377258
94  0.000031 4.514125 -0.000023  -0.228866 -2.996199 0.592368
95  0.000043 4.518380 -0.000022  0.143172 2.612778 0.693384
96  0.000022 3.598331 0.000024  -0.749302 0.869851 -0.773232
97  4.209923 -0.440347 1.018824  -1.577211 -2.025540 -0.171652
98  4.265504 1.434232 -0.404992  -1.589420 0.045546 -0.689158
99  9.400229 0.017941 0.083201  -0.006116 -0.046488 -0.202669
100  10.242427 0.033590 0.064482  1.697691 0.092008 0.064178
101  3.465860 -0.059680 0.016693  -0.025556 -0.048840 -0.423907
102  1.655593 -0.000021 0.000021  -0.025568 -0.114485 -0.467194
103  0.960768 -0.000001 -0.000006  -0.000000 0.003101 -0.216324
104  3.462031 -0.064247 0.939909  0.332571 -0.040087 -0.385575
105  1.497176 -0.000007 0.000021  -0.490562 -0.021261 -0.048813
106  0.793760 0.000004 -0.000001  -0.000571 0.004562 -0.264948
107  0.591664 -0.460692 0.835206  -1.134576 -0.717292 -0.462342
108  1.556144 0.000005 -0.000001  -0.178219 0.121880 0.438108
109  1.135907 0.000019 0.000004  0.004824 0.022557 0.396203
110  3.084273 -0.668821 -1.257085  -0.666830 0.043257 -0.487736
111  1.064204 -0.000004 0.000005  0.003765 0.083622 -0.584609
112  0.640338 0.000004 -0.000007  -0.000352 -0.001434 -0.169763
113  3.396828 -0.242140 -0.708690  -0.381719 -0.022042 -0.522962
114  1.532972 0.000008 0.000006  0.013632 -0.007332 -0.706328
115  0.832975 -0.000006 -0.000003  -0.000009 0.007359 -0.430493
116  4.209938 -0.440343 -1.019279  1.565984 2.023833 -0.184438
117  4.266745 1.424940 0.424938  1.590117 -0.050322 -0.690806
118  9.398563 0.011949 -0.082516  0.005381 0.046911 -0.202739
119  10.242434 0.028177 -0.062909  -1.687983 -0.090751 0.057742
120  3.465751 -0.067527 0.002267  0.032093 0.044647 -0.423146
121  1.655562 0.000006 0.000006  0.024890 0.112869 -0.466971
122  0.960906 0.000005 -0.000002  -0.000004 -0.004468 -0.216286
123  3.466853 -0.077779 -0.920909  -0.329974 0.034879 -0.386047
124  1.497267 -0.000033 -0.000023  -0.414601 0.020814 -0.047915
125  0.793791 -0.000007 -0.000000  -0.003599 0.010261 -0.258764
126  0.595080 -0.467150 -0.829176  2.438761 0.680472 -0.243148
127  1.555675 0.000015 -0.000003  0.314911 0.070848 0.436166
128  1.136809 -0.000008 -0.000002  0.014606 0.014493 0.384378
129  3.075973 -0.667966 1.277700  0.669253 -0.049614 -0.486271
130  1.064593 0.000019 0.000011  -0.015024 -0.091461 -0.583344
131  0.640357 -0.000013 -0.000004  0.000646 -0.000278 -0.169760
132  3.392416 -0.245368 0.728376  0.375991 0.013275 -0.523856
133  1.532736 -0.000007 -0.000001  -0.011784 0.008997 -0.706152
134  0.833153 0.000011 0.000005  0.000013 -0.009685 -0.430431
135  3.590110 -3.090295 1.193972  1.635457 1.210566 1.548541
136  3.589555 -3.089880 -1.196373  -1.505736 1.210473 -1.592853
137  -0.436561 4.719026 -0.001076  -0.000591 -1.570733 1.692996
138  -0.000000 2.775454 -0.000236  -0.135089 0.000001 -0.000000
139  -0.000000 3.189764 0.000008  0.207820 -0.000000 0.000000
140  -0.000000 3.504654 0.000045  -0.261876 0.000000 -0.000000
141  -0.000000 2.863199 -0.000002  -0.051268 0.000000 -0.000000
time 1
0  -0.000002 -0.444792 41.524685  1.570862 0.000000 -0.000000
1  0.002636 43.025146 0.734438  0.000060 0.000127 0.000060
2  3.061857 -4.181010 -0.610804  -1.574176 0.061565 -1.556866
3  18.476776 0.000159 -0.000001  -0.006754 0.003765 -0.033714
4  17.490086 0.000117 0.000003  0.190984 0.149691 -1.027880
5  -3.065330 -4.183575 -0.611480  -1.567480 0.061525 -1.584783
6  18.474859 -0.000034 -0.000007  0.006730 -0.003762 -0.033750
7  17.489586 0.001916 -0.000006  -0.184387 -0.151424 -1.027394
8  -0.000117 -0.048881 -0.576226  1.570798 0.086303 1.570791
9  3.224483 0.767046 0.000496  -0.000001 0.000004 -0.028770
10  3.223905 0.226399 -0.001944  -0.000007 -0.000060 0.100385
11  5.187320 -1.262560 -0.001177  0.000012 0.000066 0.194111
12  6.928411 -1.935314 -0.000227  -3.141479 -0.000094 0.372954
13  3.236362 1.079612 0.000057  -0.000129 -0.000017 0.303162
14  0.833758 3.805352 0.692956  -0.040492 0.554885 1.469872
15  0.000039 6.792212 0.000040  0.007991 0.036071 -0.011407
16  -0.000067 7.744819 0.000016  -0.017442 -0.155305 0.068151
17  0.000073 7.809705 0.000018  -0.033636 0.005026 0.006142
18  -0.000026 7.867671 0.000017  -0.073329 -0.127910 0.026375
19  3.494705 -1.749092 -3.006912  0.152544 2.070419 1.936944
20  0.000119 4.478321 0.000018  -0.194660 0.310432 -0.234994
21  0.000048 4.636117 -0.000028  0.035823 0.324593 -0.151767
22  -0.000042 5.008657 0.000014  0.075997 -0.286565 0.276090
23  0.000062 4.781172 0.000008  0.904396 -2.690903 -0.015797
24  2.253036 1.989058 -3.350106  -1.523632 1.324497 0.112399
25  0.000162 6.589458 0.000170  0.206355 -0.002129 -0.080394
26  0.000040 7.491415 0.000041  -0.333513 0.184454 -0.191167
27  0.000025 7.660304 -0.000057  -0.063175 0.127195 -0.062118
28  0.000006 7.256274 0.000020  -0.052939 -0.487829 0.313814
29  -0.791156 2.265120 -1.234655  -0.753900 1.136377 0.824673
30  -0.000259 8.572271 -0.000091  -0.222842 -0.296789 0.176503
31  -0.000095 8.117215 0.000048  0.072255 0.772520 -0.285590
32  -0.000080 8.230034 -0.000067  -0.080492 -0.347232 0.072254
33  0.000059 7.366725 0.000056  -0.015394 -0.663892 0.062741
34  0.224218 0.240127 -3.218158  -0.877384 1.468889 0.577822
35  -0.000101 7.721055 -0.000309  -0.283828 0.060496 -0.167555
36  -0.000032 7.374853 -0.000002  0.007536 -0.195021 0.049540
37  0.000075 6.848107 0.000006  0.005484 0.006497 -0.033650
38  -0.000051 7.777865 0.000010  -0.186097 0.182474 -0.152846
39  -1.514461 2.104650 -1.150167  -0.029091 0.541320 1.555677
40  -0.000167 6.982345 -0.000076  -0.199699 -0.041212 0.153489
41  0.000039 8.382865 -0.000072  0.044865 0.587986 -0.257961
42  0.000015 8.697702 -0.000025  -0.102637 -0.474318 0.290944
43  0.000056 8.921806 -0.000003  -0.076258 0.581004 -0.195605
44  1.196197 2.899154 -2.353086  -0.449719 1.030105 1.287427
45  0.000109 5.476945 0.000006  0.285575 -0.099352 -0.038446
46  -0.000072 6.060440 -0.000088  -0.155022 -0.575031 0.384609
47  0.000018 5.994258 0.000029  0.033941 0.288574 -0.067729
48  -0.000007 6.100482 0.000000  -0.068405 0.299274 -0.162152
49  0.000034 6.916756 0.000010  -0.096317 0.220533 -0.107965
50  0.000149 6.435064 -0.000045  -0.037459 0.171630 -0.116573
51  1.092797 3.649513 -1.738794  -0.148600 0.876612 1.445020
52  -0.000130 6.792208 -0.000101  0.008284 0.107792 -0.048643
53  -0.000087 7.744778 -0.000032  0.057137 -0.256893 0.015458
54  0.000084 9.115019 -0.000037  -0.020393 0.256253 -0.142636
55  3.494521 -1.749103 3.007064  0.118402 1.106974 1.813812
56  0.000015 4.323846 0.000086  -0.229908 -0.770943 0.449223
57  0.000026 4.872892 -0.000020  0.367243 -0.664052 -0.254034
58  0.000005 5.056652 0.000095  -0.511235 0.856586 -0.546322
59  2.292463 1.708614 3.661675  -1.762556 1.789111 -0.218970
60  -0.000174 6.589441 0.000274  -0.007132 -0.169123 0.176908
61  0.000172 7.491491 -0.000151  -0.132413 -0.107098 0.179326
62  -0.000142 8.249659 0.000140  0.041912 -0.058209 0.015816
63  0.000072 8.605240 -0.000026  0.101584 0.501824 -0.079698
64  -0.240480 2.066074 2.349267  -0.357331 2.461715 1.296081
65  -0.000083 7.721101 -0.000003  -0.208230 -0.126223 -0.116495
66  -0.000123 7.374863 -0.000046  -0.111017 0.046939 -0.046464
67  -0.000034 6.848064 -0.000025  0.273532 0.247522 0.299908
68  0.000034 7.777821 -0.000043  0.072920 0.186147 -0.052689
69  -0.000083 8.178051 0.000012  -0.087029 -0.422849 -0.381357
70  1.617598 3.431409 2.399266  -0.249454 2.569515 1.508570
71  -0.000161 5.476945 -0.000029  0.057728 0.074072 0.060284
72  -0.000092 6.060499 -0.000006  -0.015204 0.015650 -0.152064
73  0.000026 5.994249 0.000013  -0.126212 -0.157657 0.153301
74  -0.000079 7.076878 -0.000046  -0.008118 0.010385 0.036400
75  0.000004 7.089861 -0.000070  0.070875 0.098587 -0.025893
76  0.361118 0.886684 3.287746  -0.576374 1.978710 0.939010
77  -0.000067 6.686644 0.000222  -0.146568 0.414164 -0.327707
78  -0.000013 7.638015 0.000014  -0.079524 -0.025948 0.130955
79  -0.000032 7.290224 -0.000022  0.025325 -0.093908 0.023963
80  -0.000033 6.530365 0.000004  -0.261847 -0.300600 0.006735
81  0.000062 7.224882 0.000009  0.036506 0.032481 -0.175824
82  1.071906 3.225797 1.570115  -0.043807 2.859975 1.526247
83  0.000411 6.748901 -0.000066  -0.062702 0.083784 0.022201
84  -0.000047 8.002647 0.000027  -0.067496 -0.117209 -0.115598
85  0.000010 8.580570 -0.000098  0.088212 -0.007188 0.334604
86  0.000169 8.689827 -0.000041  0.065327 -0.412430 -0.134518
87  -1.514530 2.104640 0.318056  -0.024895 3.094491 1.569496
88  0.000192 6.982280 0.000011  -0.107589 -0.057625 -0.215716
89  -0.000009 8.382879 -0.000068  0.135031 -0.099915 0.287073
90  -0.000063 8.697666 0.000023  -0.148090 -0.510101 0.044839
91  -0.000137 8.921823 0.000079  -0.236826 -0.892634 0.098803
92  3.553617 -3.478046 2.409277  0.000820 0.762046 1.535310
93  0.000000 4.476910 -0.000008  -0.151003 -0.588331 0.377258
94  0.000031 4.514125 -0.000023  -0.228866 -2.996199 0.592368
95  0.000043 4.518380 -0.000022  0.143172 2.612778 0.693384
96  0.000022 3.598331 0.000024  -0.749302 0.869851 -0.773232
97  4.209923 -0.440347 1.018824  -1.577211 -2.025540 -0.171652
98  4.265504 1.434232 -0.404992  -1.589420 0.045546 -0.689158
99  9.400229 0.017941 0.083201  -0.006116 -0.046488 -0.202669
100  10.242427 0.033590 0.064482  1.697691 0.092008 0.064178
101  3.465860 -0.059680 0.016693  -0.025556 -0.048840 -0.423907
102  1.655593 -0.000021 0.000021  -0.025568 -0.114485 -0.467194
103  0.960768 -0.000001 -0.000006  -0.000000 0.003101 -0.216324
104  3.462031 -0.064247 0.939909  0.332571 -0.040087 -0.385575
105  1.497176 -0.000007 0.000021  -0.490562 -0.021261 -0.048813
106  0.793760 0.000004 -0.000001  -0.000571 0.004562 -0.264948
107  0.591664 -0.460692 0.835206  -1.134577 -0.717292 -0.462342
108  1.556143 0.000005 -0.000003  -0.178219 0.121880 0.438108
109  1.135904 0.000020 0.000004  0.004824 0.022557 0.396203
110  3.084273 -0.668821 -1.257085  -0.666830 0.043257 -0.487736
111  1.064204 -0.000004 0.000005  0.003765 0.083622 -0.584609
112  0.640338 0.000004 -0.000007  -0.000352 -0.001434 -0.169763
113  3.396828 -0.242140 -0.708690  -0.381719 -0.022042 -0.522962
114  1.532972 0.000008 0.000006  0.013633 -0.007332 -0.706328
115  0.832975 -0.000006 -0.000003  -0.000009 0.007359 -0.430493
116  4.209938 -0.440343 -1.019279  1.565984 2.023833 -0.184438
117  4.266745 1.424940 0.424938  1.590117 -0.050322 -0.690806
118  9.398563 0.011949 -0.082516  0.005381 0.046911 -0.202739
119  10.242434 0.028177 -0.062909  -1.687983 -0.090751 0.057742
120  3.465751 -0.067527 0.002267  0.032093 0.044647 -0.423146
121  1.655562 0.000007 0.000005  0.024890 0.112869 -0.466971
122  0.960906 0.000006 -0.000002  -0.000004 -0.004468 -0.216286
123  3.466853 -0.077779 -0.920909  -0.329974 0.034879 -0.386047
124  1.497267 -0.000033 -0.000023  -0.414601 0.020814 -0.047915
125  0.793791 -0.000007 -0.000000  -0.003599 0.010261 -0.258764
126  0.595080 -0.467150 -0.829176  2.438761 0.680472 -0.243148
127  1.555675 0.000015 -0.000002  0.314911 0.070848 0.436165
128  1.136809 -0.000008 0.000000  0.014606 0.014493 0.384378
129  3.075973 -0.667966 1.277700  0.669253 -0.049614 -0.486271
130  1.064593 0.000019 0.000011  -0.015024 -0.091461 -0.583344
131  0.640359 -0.000013 -0.000003  0.000646 -0.000278 -0.169760
132  3.392416 -0.245368 0.728376  0.375991 0.013275 -0.523856
133  1.532736 -0.000007 -0.000001  -0.011784 0.008997 -0.706152
134  0.833153 0.000011 0.000005  0.000013 -0.009685 -0.430431
135  3.590110 -3.090295 1.193972  1.635457 1.210566 1.548541
136  3.589555 -3.089880 -1.196373  -1.505736 1.210473 -1.592853
137  -0.436561 4.719026 -0.001076  -0.000591 -1.570733 1.692996
138  -0.000000 2.775454 -0.000236  -0.135089 0.000001 -0.000000
139  -0.000000 3.189764 0.000008  0.207820 -0.000000 0.000000
140  -0.000000 3.504654 0.000045  -0.261876 0.000000 -0.000000
141  -0.000000 2.863199 -0.000002  -0.051268 0.000000 -0.000000
end
